<svg aria-hidden="true" style="position: absolute; width: 0; height: 0; overflow: hidden;" version="1.1" xmlns="http://www.w3.org/2000/svg" xmlns:xlink="http://www.w3.org/1999/xlink">
<defs>
<symbol id="icon-ball" viewBox="0 0 32 32">
<path fill="#576f35" style="fill: var(--color1, #576f35)" d="M15.589 32.008c6.792 0 12.297-6.206 12.297-13.861s-5.506-13.861-12.297-13.861c-6.792 0-12.297 6.206-12.297 13.861s5.506 13.861 12.297 13.861z"></path>
</symbol>
<symbol id="icon-ball-4" viewBox="0 0 28 32">
<path fill="#576f35" style="fill: var(--color1, #576f35)" d="M13.615 28.54c6.789 0 12.292-6.203 12.292-13.855s-5.503-13.855-12.292-13.855c-6.789 0-12.292 6.203-12.292 13.855s5.503 13.855 12.292 13.855z"></path>
</symbol>
<symbol id="icon-ball-t" viewBox="0 0 23 32">
<path fill="#a1c487" style="fill: var(--color2, #a1c487)" d="M11.835 28.070c5.821 0 10.541-5.319 10.541-11.881s-4.719-11.881-10.541-11.881-10.541 5.319-10.541 11.881c0 6.562 4.719 11.881 10.541 11.881z"></path>
</symbol>
<symbol id="icon-ball-tt" viewBox="0 0 29 32">
<path fill="#576f35" style="fill: var(--color1, #576f35)" d="M14.415 30.49c7.097 0 12.85-6.485 12.85-14.484s-5.753-14.484-12.85-14.484c-7.097 0-12.85 6.485-12.85 14.484s5.753 14.484 12.85 14.484z"></path>
</symbol>
<symbol id="icon-ball-ttt" viewBox="0 0 28 32">
<path fill="#576f35" style="fill: var(--color1, #576f35)" d="M13.12 29.95c6.789 0 12.292-6.203 12.292-13.855s-5.503-13.855-12.292-13.855-12.292 6.203-12.292 13.855c0 7.652 5.503 13.855 12.292 13.855z"></path>
</symbol>
<symbol id="icon-ckuter-t" viewBox="0 0 84 32">
<path fill="#141414" style="fill: var(--color3, #141414)" d="M2.854 4.006h9.951v8.729h-9.951v-8.729z"></path>
<path fill="#576f35" style="fill: var(--color1, #576f35)" d="M1.139 4.006h9.103v8.729h-9.103v-8.729z"></path>
<path fill="#141414" style="fill: var(--color3, #141414)" d="M1.114 12.769h9.165v-8.799h-9.165v8.799zM10.211 12.699h-9.041v-8.659h9.041v8.659z"></path>
<path fill="#141414" style="fill: var(--color3, #141414)" d="M4.26 4.006v2.177l0.57-0.356 0.44 0.335 0.526-0.335 0.483 0.356v-2.177h-2.019z"></path>
<path fill="#141414" style="fill: var(--color3, #141414)" d="M6.279 8.29h2.099v0.14h-2.099v-0.14z"></path>
<path fill="#141414" style="fill: var(--color3, #141414)" d="M6.279 9.211h2.099v0.14h-2.099v-0.14z"></path>
<path fill="#141414" style="fill: var(--color3, #141414)" d="M6.279 10.133h2.099v0.14h-2.099v-0.14z"></path>
<path fill="#fefefe" style="fill: var(--color4, #fefefe)" d="M2.266 8.102h3.4v2.393h-3.4v-2.393z"></path>
<path fill="#141414" style="fill: var(--color3, #141414)" d="M2.235 10.523h3.462v-2.463h-3.462v2.463zM5.634 10.453h-3.338v-2.324h3.338v2.324z"></path>
<path fill="#f27b79" style="fill: var(--color5, #f27b79)" d="M12.533 14.333h-2.656c-0.124 0-0.248 0.063-0.322 0.174l-1.344 1.905c-0.217 0.307-0.025 0.754 0.322 0.754h4v-2.833z"></path>
<path fill="#141414" style="fill: var(--color3, #141414)" d="M8.533 17.2h4.031v-2.903h-2.687c-0.136 0-0.266 0.070-0.347 0.188l-1.344 1.905c-0.105 0.153-0.13 0.356-0.050 0.53 0.068 0.168 0.223 0.279 0.396 0.279zM12.502 17.131h-3.969c-0.149 0-0.279-0.091-0.347-0.244-0.062-0.154-0.050-0.328 0.043-0.454l1.344-1.905c0.074-0.105 0.18-0.161 0.297-0.161h2.626v2.763h0.006z"></path>
<path fill="#141414" style="fill: var(--color3, #141414)" d="M39.6 2.359c0 0.258-0.186 0.461-0.409 0.461h-1.338c-0.229 0-0.409-0.209-0.409-0.461 0-0.258 0.186-0.461 0.409-0.461h1.338c0.223-0.007 0.409 0.202 0.409 0.461z"></path>
<path fill="#141414" style="fill: var(--color3, #141414)" d="M34.553 2.904h1.647v2.631h-1.647v-2.631z"></path>
<path fill="#576f35" style="fill: var(--color1, #576f35)" d="M38.794 22.412v-15.378c0-1.305-0.941-2.365-2.099-2.365h-6.068c-1.158 0-2.099 1.061-2.099 2.365v14.164c0 1.2-0.861 2.17-1.926 2.17h-1.703c-1.065 0-1.926-0.97-1.926-2.17v-6.189c0 0 0.043-1.87 1.065-2.142h-10.49c0 0-4.359 4.005-5.276 10.459v0.712h30.522v-1.626z"></path>
<path fill="#141414" style="fill: var(--color3, #141414)" d="M8.242 24.073h30.584v-17.039c0-1.326-0.954-2.4-2.13-2.4h-6.068c-1.176 0-2.13 1.075-2.13 2.4v14.164c0 1.179-0.848 2.135-1.895 2.135h-1.703c-1.047 0-1.895-0.956-1.895-2.135v-6.189c0-0.021 0.050-1.842 1.047-2.107l0.26-0.070-10.775 0.007c-0.012 0.007-1.108 1.026-2.297 2.812-1.102 1.654-2.514 4.326-2.985 7.668l-0.012 0.754zM38.763 24.003h-30.46v-0.677c0.471-3.321 1.876-5.987 2.972-7.626 1.133-1.703 2.18-2.7 2.285-2.798h10.291c-0.861 0.426-0.904 2.030-0.91 2.107v6.189c0 1.214 0.879 2.205 1.957 2.205h1.703c1.077 0 1.957-0.991 1.957-2.205v-14.164c0-1.284 0.929-2.33 2.068-2.33h6.068c1.139 0 2.068 1.047 2.068 2.33v16.969z"></path>
<path fill="#141414" style="fill: var(--color3, #141414)" d="M34.658 4.662h0.743v15.462h-0.743v-15.462z"></path>
<path fill="#141414" style="fill: var(--color3, #141414)" d="M-0 12.491h14.168v0.795h-14.168v-0.795z"></path>
<path fill="#141414" style="fill: var(--color3, #141414)" d="M15.92 24.081h9.846v2.282h-9.846v-2.282z"></path>
<path fill="#141414" style="fill: var(--color3, #141414)" d="M12.372 30.856c-2.476 0-4.483-2.571-4.483-5.742s2.007-5.743 4.483-5.743 4.483 2.571 4.483 5.743c0 3.171-2.007 5.742-4.483 5.742z"></path>
<path fill="#fefefe" style="fill: var(--color4, #fefefe)" d="M11.617 28.595c-1.611 0-2.917-1.674-2.917-3.74s1.306-3.74 2.917-3.74 2.917 1.675 2.917 3.74c0 2.065-1.306 3.74-2.917 3.74z"></path>
<path fill="#141414" style="fill: var(--color3, #141414)" d="M11.617 28.63c1.629 0 2.948-1.696 2.948-3.775s-1.325-3.775-2.948-3.775-2.948 1.696-2.948 3.775c0 2.079 1.319 3.775 2.948 3.775zM11.617 21.15c1.591 0 2.886 1.661 2.886 3.705s-1.294 3.705-2.886 3.705c-1.591 0-2.886-1.661-2.886-3.705s1.294-3.705 2.886-3.705z"></path>
<path fill="#141414" style="fill: var(--color3, #141414)" d="M13.159 24.875c0 0.83-0.347 1.57-1.455 1.57-0.65 0-0.892-0.74-0.892-1.57s0.248-1.507 0.892-1.507c1.108 0 1.455 0.67 1.455 1.507z"></path>
<path fill="#fefefe" style="fill: var(--color4, #fefefe)" d="M11.629 26.383c-0.65 0-1.177-0.675-1.177-1.507s0.527-1.507 1.177-1.507c0.65 0 1.177 0.675 1.177 1.507s-0.527 1.507-1.177 1.507z"></path>
<path fill="#141414" style="fill: var(--color3, #141414)" d="M11.629 26.411c0.663 0 1.207-0.691 1.207-1.542s-0.539-1.542-1.207-1.542c-0.669 0-1.207 0.691-1.207 1.542s0.545 1.542 1.207 1.542zM11.629 23.403c0.632 0 1.146 0.663 1.146 1.472s-0.514 1.472-1.146 1.472c-0.632 0-1.146-0.663-1.146-1.472s0.514-1.472 1.146-1.472z"></path>
<path fill="#141414" style="fill: var(--color3, #141414)" d="M37.63 30.856c-2.476 0-4.483-2.571-4.483-5.742s2.007-5.743 4.483-5.743c2.476 0 4.483 2.571 4.483 5.743s-2.007 5.742-4.483 5.742z"></path>
<path fill="#fefefe" style="fill: var(--color4, #fefefe)" d="M36.875 28.595c-1.611 0-2.917-1.674-2.917-3.74s1.306-3.74 2.917-3.74c1.611 0 2.917 1.675 2.917 3.74s-1.306 3.74-2.917 3.74z"></path>
<path fill="#141414" style="fill: var(--color3, #141414)" d="M36.875 28.63c1.629 0 2.947-1.696 2.947-3.775s-1.325-3.775-2.947-3.775c-1.622 0-2.948 1.696-2.948 3.775s1.319 3.775 2.948 3.775zM36.875 21.15c1.591 0 2.886 1.661 2.886 3.705s-1.294 3.705-2.886 3.705c-1.592 0-2.886-1.661-2.886-3.705s1.294-3.705 2.886-3.705z"></path>
<path fill="#141414" style="fill: var(--color3, #141414)" d="M38.417 24.875c0 0.83-0.347 1.507-1.455 1.507-0.65 0-0.892-0.677-0.892-1.507s0.248-1.507 0.892-1.507c1.109 0 1.455 0.67 1.455 1.507z"></path>
<path fill="#fefefe" style="fill: var(--color4, #fefefe)" d="M36.887 26.383c-0.65 0-1.177-0.675-1.177-1.507s0.527-1.507 1.177-1.507c0.65 0 1.176 0.675 1.176 1.507s-0.527 1.507-1.176 1.507z"></path>
<path fill="#141414" style="fill: var(--color3, #141414)" d="M36.887 26.411c0.663 0 1.208-0.691 1.208-1.542s-0.539-1.542-1.208-1.542c-0.669 0-1.208 0.691-1.208 1.542s0.545 1.542 1.208 1.542zM36.887 23.403c0.632 0 1.146 0.663 1.146 1.472s-0.514 1.472-1.146 1.472c-0.632 0-1.146-0.663-1.146-1.472s0.52-1.472 1.146-1.472z"></path>
<path fill="#141414" style="fill: var(--color3, #141414)" d="M4.13 23.348h0.57c0.074-0.663 0.576-1.172 1.183-1.172h12.657v2.694h-12.657c-0.576 0-1.059-0.461-1.17-1.075h-0.582v-0.447z"></path>
<path fill="#576f35" style="fill: var(--color1, #576f35)" d="M6.378 24.038c0 0-0.786-7.103 6.576-9.036 2.656-0.698 8.756-1.151 7.387 9.036h-13.964z"></path>
<path fill="#141414" style="fill: var(--color3, #141414)" d="M6.347 24.073h14.013l0.006-0.028c0.508-3.789 0.031-6.482-1.418-7.989-1.771-1.849-4.527-1.472-6.006-1.082-1.684 0.44-3.078 1.193-4.149 2.233-0.855 0.83-1.505 1.849-1.926 3.028-0.718 2.003-0.533 3.789-0.526 3.81l0.006 0.028zM20.31 24.003h-13.908c-0.019-0.244-0.136-1.905 0.526-3.747 0.656-1.828 2.235-4.221 6.025-5.219 1.468-0.384 4.198-0.761 5.951 1.068 1.437 1.493 1.907 4.152 1.406 7.898z"></path>
<path fill="#141414" style="fill: var(--color3, #141414)" d="M23.344 13.286h-9.233c-0.96 0-1.74-0.879-1.74-1.961 0-1.144 0.867-2.044 1.876-1.954l9.202 0.823c0.712 0.063 1.263 0.733 1.263 1.542 0 0.851-0.613 1.549-1.368 1.549z"></path>
<path fill="#576f35" style="fill: var(--color1, #576f35)" d="M32.806 23.25h10.552c0 0-0.173-1.751-1.22-3.342-2.291-3.454-7.053-2.979-8.737 0.886-0.303 0.684-0.514 1.493-0.594 2.456z"></path>
<path fill="#141414" style="fill: var(--color3, #141414)" d="M32.769 23.285h10.62l-0.006-0.042c0-0.021-0.186-1.779-1.226-3.356-1.084-1.64-2.818-2.505-4.638-2.317-1.808 0.188-3.356 1.389-4.155 3.21-0.316 0.733-0.52 1.556-0.594 2.463v0.042zM43.321 23.215h-10.477c0.074-0.879 0.272-1.689 0.582-2.4 0.786-1.8 2.316-2.986 4.105-3.168 1.796-0.188 3.511 0.67 4.582 2.289 0.941 1.43 1.17 3.014 1.208 3.28z"></path>
<path fill="#141414" style="fill: var(--color3, #141414)" d="M6.304 24.499h27.141v-0.921h9.901v-0.837h-9.92c-0.403 0-0.725 0.37-0.725 0.816v0.105h-26.398v0.837z"></path>
<path fill="#141414" style="fill: var(--color3, #141414)" d="M25.345 29.013h1.814v-0.837h-1.56l-3.493-3-0.446 0.663 3.684 3.175z"></path>
<path fill="#576f35" style="fill: var(--color1, #576f35)" d="M34.497 3.776h2.26c0.136 0 0.272-0.021 0.396-0.056 0.718-0.202 1.251-0.935 1.251-1.807 0-0.516-0.186-0.977-0.483-1.312-0.211-0.237-0.471-0.405-0.768-0.488-0.13-0.035-0.26-0.056-0.402-0.056h-0.328c-1.133 0-2.217 0.635-2.805 1.73-0.031 0.056-0.062 0.119-0.093 0.181-0.378 0.823 0.149 1.807 0.972 1.807z"></path>
<path fill="#141414" style="fill: var(--color3, #141414)" d="M34.497 3.811h2.26c0.136 0 0.272-0.021 0.409-0.056 0.749-0.209 1.276-0.963 1.276-1.842 0-0.509-0.173-0.984-0.495-1.34-0.217-0.244-0.489-0.419-0.78-0.502-0.136-0.035-0.272-0.056-0.409-0.056h-0.328c-1.164 0-2.248 0.67-2.83 1.751-0.031 0.063-0.062 0.119-0.093 0.181-0.186 0.391-0.18 0.858 0.025 1.242 0.211 0.391 0.57 0.621 0.966 0.621zM36.757 0.092c0.13 0 0.266 0.021 0.39 0.056 0.285 0.077 0.545 0.244 0.755 0.481 0.304 0.342 0.477 0.802 0.477 1.291 0 0.844-0.508 1.57-1.226 1.772-0.13 0.035-0.26 0.056-0.39 0.056h-2.26c-0.378 0-0.718-0.216-0.91-0.586-0.192-0.363-0.204-0.802-0.025-1.172 0.031-0.063 0.062-0.119 0.093-0.181 0.57-1.061 1.635-1.716 2.774-1.716h0.322z"></path>
<path fill="#141414" style="fill: var(--color3, #141414)" d="M36.020 1.921c0 0.74 0.285 1.402 0.737 1.863h0.006c0.91 0 1.653-0.83 1.653-1.863 0-0.516-0.186-0.977-0.483-1.312s-0.712-0.544-1.164-0.544h-0.006c-0.464 0.454-0.743 1.116-0.743 1.856z"></path>
<path fill="#fefefe" style="fill: var(--color4, #fefefe)" d="M36.472 1.92c0 0.712 0.26 1.347 0.681 1.807 0.718-0.202 1.251-0.935 1.251-1.807 0-0.516-0.186-0.977-0.483-1.312-0.211-0.237-0.471-0.405-0.768-0.488-0.421 0.447-0.681 1.089-0.681 1.8z"></path>
<path fill="#141414" style="fill: var(--color3, #141414)" d="M37.148 3.763l0.019-0.007c0.749-0.209 1.276-0.963 1.276-1.842 0-0.509-0.173-0.984-0.495-1.34-0.217-0.244-0.489-0.419-0.78-0.502l-0.019-0.007-0.012 0.014c-0.446 0.481-0.694 1.13-0.694 1.828s0.248 1.347 0.694 1.828l0.012 0.028zM37.166 0.155c0.279 0.084 0.533 0.244 0.737 0.474 0.304 0.342 0.477 0.802 0.477 1.291 0 0.837-0.495 1.556-1.214 1.765-0.427-0.468-0.663-1.095-0.663-1.765 0-0.677 0.235-1.298 0.663-1.765z"></path>
<path fill="#a1c487" style="fill: var(--color2, #a1c487)" d="M32.274 2.080h1.22v0.565h-1.22v-0.565z"></path>
<path fill="#141414" style="fill: var(--color3, #141414)" d="M32.249 2.687h1.282v-0.635h-1.282v0.635zM33.463 2.617h-1.158v-0.495h1.158v0.495z"></path>
<path fill="#141414" style="fill: var(--color3, #141414)" d="M33.952 1.892h-0.489c-0.229 0-0.409 0.209-0.409 0.461 0 0.258 0.186 0.461 0.409 0.461h0.489c0.229 0 0.409-0.209 0.409-0.461s-0.18-0.461-0.409-0.461z"></path>
<path fill="#141414" style="fill: var(--color3, #141414)" d="M32.509 2.359c0 0.258-0.186 0.461-0.409 0.461h-1.338c-0.229 0-0.409-0.209-0.409-0.461 0-0.258 0.186-0.461 0.409-0.461h1.338c0.223-0.007 0.409 0.202 0.409 0.461z"></path>
<path fill="#fff" style="fill: var(--color6, #fff)" d="M10.409 22.252h6.044v0.391h-6.044v-0.391z"></path>
<path fill="#141414" style="fill: var(--color3, #141414)" d="M10.378 22.678h6.106v-0.461h-6.106v0.461zM16.422 22.609h-5.982v-0.321h5.982v0.321z"></path>
<path fill="#fff" style="fill: var(--color6, #fff)" d="M10.409 21.22h6.044v0.391h-6.044v-0.391z"></path>
<path fill="#141414" style="fill: var(--color3, #141414)" d="M10.378 21.645h6.106v-0.461h-6.106v0.461zM16.422 21.575h-5.982v-0.321h5.982v0.321z"></path>
<path fill="#fff" style="fill: var(--color6, #fff)" d="M10.409 20.193h6.044v0.391h-6.044v-0.391z"></path>
<path fill="#141414" style="fill: var(--color3, #141414)" d="M10.378 20.62h6.106v-0.461h-6.106v0.461zM16.422 20.55h-5.982v-0.321h5.982v0.321z"></path>
<path fill="#141414" style="fill: var(--color3, #141414)" d="M19.611 29.006h12.694v0.14h-12.694v-0.14z"></path>
<path fill="#141414" style="fill: var(--color3, #141414)" d="M44.337 31.892h39.741v0.108h-39.741v-0.108z"></path>
</symbol>
<symbol id="icon-cloud-t" viewBox="0 0 50 32">
<path fill="#fff" style="fill: var(--color6, #fff)" stroke-linejoin="miter" stroke-linecap="butt" stroke-miterlimit="4" stroke-width="0.9697" stroke="#000" d="M40.843 13.586h0.009l0.009-0c1.049-0.037 2.095 0.163 3.077 0.591s1.882 1.076 2.645 1.909c0.763 0.833 1.372 1.834 1.789 2.944s0.632 2.305 0.632 3.513c0 1.208-0.215 2.403-0.632 3.513s-1.026 2.11-1.789 2.943c-0.763 0.833-1.663 1.481-2.645 1.909s-2.028 0.629-3.077 0.591l-0.009-0h-34.166c-0.971 0.006-1.933-0.248-2.805-0.747s-1.633-1.23-2.213-2.135c-0.581-0.906-0.963-1.959-1.112-3.072s-0.060-2.249 0.259-3.314c0.319-1.064 0.857-2.023 1.566-2.797s1.566-1.341 2.499-1.659c0.932-0.318 1.917-0.38 2.873-0.182s1.863 0.652 2.641 1.329l0.963 0.837-0.164-1.265c-0.514-3.978 0.382-8.020 2.486-11.249 2.103-3.228 5.237-5.378 8.713-6.008 3.474-0.63 7.036 0.303 9.918 2.615 2.885 2.313 4.858 5.825 5.477 9.783l0.091 0.583 0.554-0.202c0.78-0.285 1.593-0.429 2.41-0.43z"></path>
</symbol>
<symbol id="icon-Man_and_couriers--t" viewBox="0 0 20 32">
<path fill="#141414" style="fill: var(--color3, #141414)" d="M4.078 31.93h2.775c0 0-0.175-0.673-1.404-1.227l0.004-0.154 0.011-0.836h-1.313l-0.023 0.738-0.050 1.48z"></path>
<path fill="#141414" style="fill: var(--color3, #141414)" d="M4.055 31.951h2.82l-0.008-0.026c-0.008-0.026-0.19-0.686-1.404-1.235l0.011-0.995h-1.351l-0.069 2.256zM6.826 31.909h-2.729l0.069-2.174h1.275l-0.011 0.982 0.011 0.004c1.066 0.485 1.336 1.059 1.385 1.188z"></path>
<path fill="#141414" style="fill: var(--color3, #141414)" d="M0.462 31.93h2.775c0 0-0.175-0.673-1.404-1.227l0.011-0.103 0.107-0.888h-1.313l-0.061 0.772-0.114 1.445z"></path>
<path fill="#141414" style="fill: var(--color3, #141414)" d="M0.44 31.951h2.824l-0.008-0.026c-0.008-0.026-0.19-0.686-1.404-1.235l0.118-0.999h-1.351l-0.179 2.26zM3.21 31.908h-2.729l0.171-2.174h1.275l-0.118 0.982 0.015 0.004c1.070 0.485 1.336 1.059 1.385 1.188z"></path>
<path fill="#141414" style="fill: var(--color3, #141414)" d="M16.851 31.93h2.775l-0.179-1.565-0.072-0.652h-1.313l0.156 0.802 0.038 0.36c-1.29 0.446-1.404 1.055-1.404 1.055z"></path>
<path fill="#141414" style="fill: var(--color3, #141414)" d="M16.828 31.951h2.82l-0.255-2.26h-1.355l0.164 0.828 0.034 0.339c-1.271 0.442-1.401 1.042-1.404 1.068l-0.004 0.026zM19.607 31.908h-2.729c0.042-0.12 0.274-0.63 1.385-1.012l0.015-0.004-0.038-0.377-0.152-0.776h1.271l0.247 2.17z"></path>
<path fill="#141414" style="fill: var(--color3, #141414)" d="M13.654 31.93h2.775l-0.069-1.54-0.030-0.678h-1.313l0.034 0.823 0.008 0.292c-1.229 0.557-1.405 1.102-1.405 1.102z"></path>
<path fill="#141414" style="fill: var(--color3, #141414)" d="M13.627 31.951h2.824l-0.103-2.26h-1.351l0.038 0.849 0.008 0.279c-1.214 0.549-1.397 1.085-1.404 1.106l-0.011 0.026zM16.41 31.908h-2.725c0.057-0.12 0.339-0.587 1.382-1.059l0.011-0.004-0.008-0.309-0.034-0.802h1.275l0.099 2.174z"></path>
<path fill="#ffac71" style="fill: var(--color7, #ffac71)" d="M6.259 1.205l-1.93-0.489-0.209 0.828c-0.053-0.043-0.107-0.069-0.156-0.069-0.228 0-0.274 0.309-0.274 0.309-0.065 0.335 0.129 0.54 0.217 0.686l-0.662 2.389 1.64 0.287 0.141-1.527c1.412 0.802 1.233-2.415 1.233-2.415z"></path>
<path fill="#141414" style="fill: var(--color3, #141414)" d="M4.904 5.164l0.141-1.518c0.278 0.15 0.518 0.159 0.708 0.017 0.632-0.472 0.533-2.38 0.529-2.462v-0.017l-1.964-0.498-0.206 0.815c-0.049-0.039-0.099-0.056-0.145-0.056-0.24 0-0.293 0.322-0.293 0.326-0.057 0.292 0.076 0.485 0.171 0.626 0.015 0.021 0.030 0.043 0.042 0.064l-0.666 2.402 1.682 0.3zM5.011 3.581l-0.141 1.535-1.599-0.283 0.658-2.372-0.004-0.009c-0.015-0.021-0.030-0.047-0.049-0.073-0.091-0.137-0.217-0.322-0.164-0.592 0.004-0.013 0.046-0.292 0.255-0.292 0.046 0 0.095 0.021 0.145 0.064l0.023 0.017 0.213-0.836 1.899 0.48c0.008 0.189 0.072 1.973-0.514 2.406-0.183 0.137-0.419 0.124-0.693-0.030l-0.030-0.017z"></path>
<path fill="#141414" style="fill: var(--color3, #141414)" d="M6.838 0.27c-0.088-0.021-0.308 0-0.442 0.124 0.008-0.017 0.015-0.034 0.023-0.051 0.198-0.669-0.636-0.172-1.077-0.073-0.091 0.021-0.293 0.051-0.293 0.051-1.321-0.339-1.187 1.179-1.187 1.179 0.346-0.056 0.449 0.476 0.449 0.476 0.354-0.189 0.464-0.459 0.476-0.575 0.343 0.176 1.222 0.51 1.949-0.081 0.499-0.407 0.324-1.004 0.103-1.051z"></path>
<path fill="#141414" style="fill: var(--color3, #141414)" d="M14.503 6.631c0 0 0.537-1.128 0.582-1.69l-0.225-1.235c0 0-0.027-1.184 1.355-0.896 0 0-0.008-0.558 0.32-0.69 0 0-0.16 0.313-0.103 0.622 0 0 0.266-0.686 0.769-0.326 0 0 0.388 0.24 0.285 0.678 0 0 0.008 0.497-0.598 0.506 0 0 0.008 0.622 1.344 1.467 0 0 1.111 0.6 1.020 1.908s-1.127 2.131-1.127 2.131l-3.806 0.004 0.183-2.479z"></path>
<path fill="#ffac71" style="fill: var(--color7, #ffac71)" d="M16.615 7.111l-0.164-2.157c0 0 0.285-0.189 0.213-0.558 0 0-0.069-0.296-0.331-0.069l-0.008-0.523c0 0-0.921 0.39-1.458-0.197 0 0-0.388 2.041 0.43 2.037l-0.175 1.715 1.492-0.249z"></path>
<path fill="#141414" style="fill: var(--color3, #141414)" d="M15.104 7.386l1.534-0.253-0.164-2.166c0.053-0.039 0.278-0.232 0.213-0.575 0-0.004-0.030-0.129-0.122-0.163-0.061-0.021-0.129-0.004-0.209 0.056l-0.008-0.51-0.027 0.009c-0.008 0.004-0.913 0.377-1.439-0.193l-0.023-0.026-0.008 0.039c-0.011 0.056-0.259 1.385 0.099 1.878 0.084 0.116 0.194 0.176 0.327 0.18l-0.175 1.724zM16.596 7.094l-1.446 0.24 0.175-1.711h-0.023c-0.133 0-0.24-0.056-0.32-0.167-0.312-0.433-0.133-1.583-0.095-1.806 0.491 0.498 1.275 0.24 1.427 0.184l0.008 0.536 0.030-0.026c0.080-0.069 0.148-0.094 0.202-0.073 0.072 0.026 0.099 0.133 0.099 0.133 0.069 0.352-0.194 0.527-0.206 0.536l-0.011 0.009v0.013l0.16 2.131z"></path>
<path fill="#141414" style="fill: var(--color3, #141414)" d="M4.124 30.454l1.325 0.094 0.011-0.836h-1.313l-0.023 0.742z"></path>
<path fill="#141414" style="fill: var(--color3, #141414)" d="M0.577 30.484l1.267 0.116 0.107-0.888h-1.313l-0.061 0.772z"></path>
<path fill="#7a3145" style="fill: var(--color8, #7a3145)" d="M2.468 12.454l0.053 0.326 0.324 2.011 0.837 5.172 0.049 1.707 0.255 8.552h2.215l0.247-10.207-0.35-5.691-0.118-1.87h-3.513z"></path>
<path fill="#141414" style="fill: var(--color3, #141414)" d="M3.968 30.244h2.253v-0.021l0.247-10.207-0.468-7.582h-3.555l1.218 7.535 0.304 10.276zM6.183 30.201h-2.181l-0.304-10.237-1.21-7.488h3.471l0.472 7.544-0.247 10.181z"></path>
<path fill="#141414" style="fill: var(--color3, #141414)" d="M18.062 29.712l0.16 0.802 1.229-0.15-0.076-0.652h-1.313z"></path>
<path fill="#141414" style="fill: var(--color3, #141414)" d="M15.017 29.712l0.034 0.828 1.309-0.15-0.030-0.678h-1.313z"></path>
<path fill="#7a3145" style="fill: var(--color8, #7a3145)" d="M0.215 30.266h2.238l1.279-8.595 0.285-1.926 0.487-4.966 0.194-1.998h-3.635l0.015 1.578 0.053 5.206-0.917 10.7z"></path>
<path fill="#141414" style="fill: var(--color3, #141414)" d="M0.196 30.286h2.276l0.004-0.017 1.564-10.52 0.685-6.991h-3.677l0.069 6.806-0.921 10.722zM2.438 30.244h-2.2l0.913-10.675-0.069-6.768h3.597l-0.681 6.939-1.56 10.503z"></path>
<path fill="#141414" style="fill: var(--color3, #141414)" d="M13.959 18.707l0.586 11.515h2.025l-0.069-7.299-0.042-4.164 0.293-3.86 0.114-1.54-1.698-0.030-0.959-0.021-0.080 1.728-0.171 3.671z"></path>
<path fill="#141414" style="fill: var(--color3, #141414)" d="M14.53 30.244h2.059v-0.021l-0.11-11.464 0.411-5.421-2.695-0.052-0.255 5.421 0.59 11.537zM16.551 30.201h-1.987l-0.586-11.494 0.251-5.378 2.619 0.051-0.407 5.378 0.11 11.442z"></path>
<path fill="#141414" style="fill: var(--color3, #141414)" d="M1.064 12.781l0.015 1.578c0.632 0.236 1.226 0.373 1.766 0.433 0.62 0.073 1.18 0.052 1.659-0.017 0.719-0.099 1.267-0.304 1.591-0.455l-0.114-1.87h-3.513l0.053 0.326h-1.458v0.004z"></path>
<path fill="#141414" style="fill: var(--color3, #141414)" d="M15.146 13.15l0.023 0.18 0.217 1.78 0.575 4.692 0.541 3.122 1.248 7.231 1.853 0.043-0.852-10.623-0.236-5.55-0.042-0.978-3.326 0.103z"></path>
<path fill="#141414" style="fill: var(--color3, #141414)" d="M19.626 30.219v-0.026l-0.852-10.623-0.282-6.549-3.364 0.103 0.814 6.682 1.793 10.37 1.892 0.043zM18.454 13.068l0.278 6.506 0.853 10.597-1.819-0.043-1.785-10.336-0.811-6.626 3.285-0.099z"></path>
<path fill="#7a3145" style="fill: var(--color8, #7a3145)" d="M14.37 6.939l-1.477 2.166-2.063 0.455v1.673l2.417-0.257c0.167-0.017 0.323-0.086 0.46-0.193l0.967-0.772-0.304-3.071z"></path>
<path fill="#141414" style="fill: var(--color3, #141414)" d="M10.811 11.258l2.44-0.262c0.167-0.017 0.331-0.086 0.472-0.197l0.978-0.781-0.312-3.135-1.503 2.2-2.070 0.459v1.716h-0.004zM14.659 10.001l-0.959 0.768c-0.133 0.107-0.289 0.171-0.453 0.189l-2.398 0.257v-1.634l2.055-0.455 0.004-0.004 1.45-2.123 0.301 3.002z"></path>
<path fill="#576f35" style="fill: var(--color1, #576f35)" d="M4.98 4.598c0 0-0.285 0.759-1.568-0.738l-2.2 0.914c-0.312 0.154-0.533 0.476-0.59 0.853l-0.346 2.204h1.203l-0.556 5.893c0 0 1.621 0.485 2.862 0.515 2.048 0.051 2.501-0.36 2.501-0.36l-0.091-2.093-0.015-4.761c0.023-0.678-0.228-1.188-0.586-1.737l-0.613-0.69z"></path>
<path fill="#141414" style="fill: var(--color3, #141414)" d="M4.128 14.264c1.739 0 2.15-0.356 2.166-0.369l0.008-0.009-0.091-2.106-0.015-4.76c0.023-0.665-0.221-1.184-0.59-1.75l-0.632-0.712-0.011 0.030c-0.004 0.004-0.057 0.137-0.217 0.172-0.209 0.043-0.605-0.081-1.321-0.918l-0.008-0.009-0.011 0.004-2.2 0.913c-0.32 0.159-0.544 0.485-0.601 0.871l-0.35 2.23h1.203l-0.556 5.888 0.015 0.004c0.015 0.004 1.637 0.485 2.866 0.519 0.118 0 0.236 0 0.346 0zM6.263 13.866c-0.069 0.051-0.605 0.399-2.482 0.352-1.157-0.030-2.668-0.463-2.839-0.51l0.556-5.901h-1.199l0.343-2.179c0.057-0.373 0.27-0.686 0.579-0.836l2.188-0.905c0.723 0.841 1.134 0.965 1.347 0.918 0.137-0.030 0.205-0.124 0.232-0.172l0.594 0.665c0.373 0.575 0.601 1.068 0.579 1.724l0.015 4.76 0.088 2.084z"></path>
<path fill="#141414" style="fill: var(--color3, #141414)" d="M6.293 6.811h6.071v5.327h-6.071v-5.327z"></path>
<path fill="#d4bfc4" style="fill: var(--color9, #d4bfc4)" d="M5.247 6.811h5.553v5.327h-5.553v-5.327z"></path>
<path fill="#141414" style="fill: var(--color3, #141414)" d="M5.228 12.158h5.591v-5.369h-5.591v5.369zM10.781 12.116h-5.515v-5.284h5.515v5.284z"></path>
<path fill="#141414" style="fill: var(--color3, #141414)" d="M7.15 6.811v1.33l0.346-0.214 0.266 0.202 0.32-0.202 0.297 0.214v-1.33h-1.229z"></path>
<path fill="#141414" style="fill: var(--color3, #141414)" d="M8.375 9.427h1.283v0.086h-1.283v-0.086z"></path>
<path fill="#141414" style="fill: var(--color3, #141414)" d="M8.375 9.989h1.283v0.086h-1.283v-0.086z"></path>
<path fill="#141414" style="fill: var(--color3, #141414)" d="M8.375 10.55h1.283v0.086h-1.283v-0.086z"></path>
<path fill="#fefefe" style="fill: var(--color4, #fefefe)" d="M5.932 9.311h2.074v1.458h-2.074v-1.458z"></path>
<path fill="#141414" style="fill: var(--color3, #141414)" d="M5.913 10.791h2.112v-1.501h-2.112v1.501zM7.987 10.748h-2.036v-1.415h2.036v1.415z"></path>
<path fill="#141414" style="fill: var(--color3, #141414)" d="M14.13 15.037c0.32 0.051 0.757 0.094 1.256 0.073 0.419-0.017 0.883-0.077 1.363-0.21 0.582-0.163 1.188-0.437 1.762-0.875l-0.042-0.978-3.323 0.103 0.023 0.18-0.959-0.017-0.080 1.724z"></path>
<path fill="#e78d4c" style="fill: var(--color10, #e78d4c)" d="M10.811 12.313c0.034 0.064 0.080 0.116 0.133 0.159s0.114 0.073 0.179 0.086l0.301 0.077c0.194 0.047 0.392 0.073 0.59 0.073h0.263c0.076 0 0.152-0.021 0.217-0.064l0.282-0.176 0.297-0.039 1.104-0.15v-0.956l-0.929 0.163-0.43 0.077-0.932-0.292c0 0-0.164 0.382 0.346 0.575l-0.495 0.275h-0.83c-0.088-0.009-0.145 0.107-0.095 0.193z"></path>
<path fill="#141414" style="fill: var(--color3, #141414)" d="M12.018 12.725h0.263c0.080 0 0.16-0.021 0.228-0.069l0.278-0.171 1.412-0.193v-0.999l-1.378 0.245-0.944-0.296-0.008 0.017c-0.004 0.004-0.061 0.141 0 0.296 0.046 0.124 0.152 0.223 0.316 0.292l-0.449 0.249h-0.826c-0.049 0-0.095 0.030-0.118 0.077s-0.023 0.107 0.004 0.154c0.038 0.064 0.084 0.12 0.137 0.163 0.057 0.043 0.118 0.073 0.183 0.090l0.301 0.077c0.202 0.047 0.4 0.069 0.601 0.069zM14.16 12.258l-1.389 0.189-0.282 0.176c-0.065 0.039-0.137 0.060-0.209 0.060h-0.263c-0.198 0-0.396-0.026-0.586-0.073l-0.301-0.077c-0.061-0.017-0.118-0.043-0.171-0.086-0.050-0.039-0.095-0.090-0.129-0.15-0.019-0.034-0.019-0.077-0.004-0.111s0.049-0.056 0.084-0.056h0.834l0.54-0.3-0.046-0.017c-0.175-0.064-0.289-0.163-0.335-0.283-0.042-0.107-0.019-0.206-0.004-0.244l0.921 0.287 1.34-0.236v0.922z"></path>
<path fill="#141414" style="fill: var(--color3, #141414)" d="M7.081 3.534h3.764v3.302h-3.764v-3.302z"></path>
<path fill="#576f35" style="fill: var(--color1, #576f35)" d="M6.434 3.534h3.441v3.302h-3.441v-3.302z"></path>
<path fill="#141414" style="fill: var(--color3, #141414)" d="M6.415 6.858h3.479v-3.345h-3.479v3.345zM9.856 6.815h-3.403v-3.259h3.403v3.259z"></path>
<path fill="#141414" style="fill: var(--color3, #141414)" d="M7.61 3.534v0.823l0.217-0.133 0.167 0.124 0.198-0.124 0.183 0.133v-0.823h-0.765z"></path>
<path fill="#141414" style="fill: var(--color3, #141414)" d="M8.371 5.139h0.795v0.086h-0.795v-0.086z"></path>
<path fill="#141414" style="fill: var(--color3, #141414)" d="M8.371 5.485h0.795v0.086h-0.795v-0.086z"></path>
<path fill="#141414" style="fill: var(--color3, #141414)" d="M8.371 5.837h0.795v0.086h-0.795v-0.086z"></path>
<path fill="#fefefe" style="fill: var(--color4, #fefefe)" d="M6.857 5.082h1.286v0.905h-1.286v-0.905z"></path>
<path fill="#141414" style="fill: var(--color3, #141414)" d="M6.837 6.008h1.325v-0.948h-1.325v0.948zM8.124 5.966h-1.248v-0.862h1.248v0.862z"></path>
<path fill="#141414" style="fill: var(--color3, #141414)" d="M13.076 12.424l1.104-0.15v-0.956l-0.929 0.163-0.175 0.944z"></path>
<path fill="#7a3145" style="fill: var(--color8, #7a3145)" d="M13.411 11.387l0.697-0.15 0.114-3.851c0.008-0.244 0.107-0.476 0.274-0.635l0.712-0.669c0 0 0.137 0.982 1.465 0l1.229 0.497c0.346 0.142 0.609 0.472 0.693 0.875l0.776 4.25c0.072 0.395-0.187 0.768-0.544 0.781l-0.369 0.013 0.179 1.355c0 0-1.267 0.613-2.569 0.703-1.5 0.107-1.991-0.296-1.972-0.352l0.076-1.441-0.761 0.034v-1.411z"></path>
<path fill="#141414" style="fill: var(--color3, #141414)" d="M15.58 14.603c0.148 0 0.312-0.004 0.487-0.017 1.29-0.090 2.562-0.699 2.577-0.708l0.015-0.009-0.004-0.017-0.175-1.33 0.35-0.013c0.175-0.009 0.339-0.099 0.449-0.257 0.11-0.154 0.152-0.356 0.114-0.549l-0.776-4.25c-0.088-0.416-0.35-0.746-0.708-0.892l-1.237-0.502-0.008 0.004c-0.514 0.382-0.921 0.515-1.18 0.386-0.217-0.107-0.255-0.369-0.255-0.369l-0.004-0.039-0.735 0.695c-0.171 0.163-0.274 0.399-0.282 0.652l-0.114 3.834-0.697 0.15v1.458l0.761-0.034-0.076 1.415c-0.004 0.013 0 0.021 0.008 0.034 0.046 0.082 0.445 0.356 1.488 0.356zM18.613 13.844c-0.141 0.064-1.336 0.609-2.55 0.695-1.435 0.103-1.926-0.266-1.949-0.326v-0.004l0.076-1.467-0.765 0.034v-1.377l0.696-0.15 0.114-3.868c0.008-0.24 0.107-0.463 0.266-0.618l0.685-0.648c0.019 0.081 0.084 0.274 0.27 0.365 0.274 0.137 0.677 0.009 1.21-0.382l1.222 0.493c0.343 0.137 0.598 0.459 0.681 0.862l0.776 4.25c0.034 0.18-0.008 0.369-0.107 0.515-0.103 0.146-0.255 0.232-0.419 0.24l-0.392 0.013 0.183 1.372z"></path>
<path fill="#141414" style="fill: var(--color3, #141414)" d="M18.454 12.474l0.002 0.043-4.317 0.279-0.002-0.043 4.317-0.279z"></path>
<path fill="#141414" style="fill: var(--color3, #141414)" d="M14.092 11.258l3.285-0.763-0.297-1.844-0.038 0.009 0.293 1.801-3.25 0.759 0.008 0.039z"></path>
<path fill="#ffac71" style="fill: var(--color7, #ffac71)" d="M0.097 10.542c-0.034 0.433 0.206 0.836 0.575 0.965l3.89 1.364 0.369 0.146c0.141 0.056 0.293 0.073 0.442 0.051l0.746-0.103c0.046-0.009 0.095-0.021 0.137-0.039l0.872-0.36c0.11-0.047 0.209-0.133 0.274-0.244l0.011-0.021c0.046-0.077-0.004-0.18-0.088-0.18h-1.401c0.407-0.292 0.377-0.549 0.377-0.549l-0.86 0.133-0.628 0.086-2.965-1.63 0.343-1.926 0.069-0.39h-1.972l-0.019 0.227-0.171 2.47z"></path>
<path fill="#141414" style="fill: var(--color3, #141414)" d="M5.254 13.098c0.042 0 0.084-0.004 0.122-0.009l0.746-0.103c0.049-0.009 0.099-0.021 0.141-0.039l0.872-0.36c0.118-0.047 0.213-0.133 0.282-0.253l0.011-0.021c0.027-0.043 0.027-0.099 0.004-0.141-0.023-0.047-0.061-0.073-0.11-0.073h-1.336c0.358-0.279 0.335-0.519 0.331-0.532l-0.004-0.021-0.879 0.133-0.624 0.081-2.946-1.617 0.415-2.329h-2.010l-0.206 2.723c-0.034 0.446 0.209 0.853 0.59 0.986l3.89 1.364 0.369 0.146c0.118 0.043 0.232 0.064 0.343 0.064zM7.332 12.141c0.030 0 0.061 0.017 0.076 0.051 0.015 0.030 0.015 0.069-0.004 0.099l-0.011 0.021c-0.065 0.107-0.156 0.189-0.263 0.236l-0.872 0.36c-0.042 0.017-0.088 0.030-0.133 0.039l-0.746 0.103c-0.145 0.021-0.297 0.004-0.434-0.052l-0.369-0.146-3.89-1.364c-0.362-0.129-0.594-0.515-0.563-0.944l0.202-2.685h1.93l-0.411 2.307 0.011 0.009 2.969 1.63 0.636-0.086 0.837-0.129c-0.004 0.064-0.046 0.274-0.369 0.506l-0.053 0.039h1.458v0.004z"></path>
<path fill="#141414" style="fill: var(--color3, #141414)" d="M2.441 6.915l0.037 0.010-0.21 0.989-0.037-0.010 0.21-0.989z"></path>
<path fill="#141414" style="fill: var(--color3, #141414)" d="M0.283 8.063l1.914 0.167 0.072-0.395h-1.972l-0.015 0.227z"></path>
</symbol>
<symbol id="icon-romb-t" viewBox="0 0 29 32">
<path d="M28.56 16.63c-1.781-0.001-3.544 0.394-5.189 1.161s-3.14 1.892-4.4 3.311-2.259 3.103-2.941 4.957c-0.682 1.854-1.033 3.841-1.034 5.848 0-4.053-1.429-7.941-3.971-10.807s-5.992-4.476-9.588-4.476c3.596 0 7.045-1.61 9.588-4.476s3.971-6.753 3.971-10.807c0 4.053 1.429 7.941 3.971 10.807s5.992 4.476 9.588 4.476l0.004 0.005z"></path>
</symbol>
<symbol id="icon-romb-tt" viewBox="0 0 26 32">
<path d="M26.274 15.587c-3.469 0-6.796 1.553-9.249 4.318s-3.831 6.515-3.831 10.425c0-3.91-1.378-7.66-3.831-10.425s-5.78-4.318-9.249-4.318c3.469 0 6.796-1.553 9.249-4.318s3.831-6.515 3.831-10.425c0 3.91 1.378 7.66 3.831 10.425s5.78 4.318 9.249 4.318z"></path>
</symbol>
<symbol id="icon-romb-ttt" viewBox="0 0 29 32">
<path d="M27.584 16.102c-1.781-0.001-3.544 0.394-5.189 1.161s-3.14 1.893-4.4 3.311c-1.26 1.419-2.259 3.103-2.941 4.957s-1.033 3.841-1.034 5.848c0-4.053-1.429-7.941-3.971-10.807s-5.992-4.476-9.588-4.476c3.596 0 7.045-1.61 9.588-4.476s3.971-6.753 3.971-10.807c0 4.053 1.429 7.941 3.971 10.807s5.992 4.476 9.588 4.476l0.005 0.005z"></path>
</symbol>
<symbol id="icon-ball1" viewBox="0 0 30 32">
<path fill="#a1c487" style="fill: var(--color2, #a1c487)" d="M14.752 10.353c1.959 0 3.547-1.81 3.547-4.043s-1.588-4.043-3.547-4.043c-1.959 0-3.547 1.81-3.547 4.043s1.588 4.043 3.547 4.043z"></path>
</symbol>
<symbol id="icon-ball-p" viewBox="0 0 27 32">
<path fill="#576f35" style="fill: var(--color1, #576f35)" d="M13.014 31.319c6.97 0 12.621-6.44 12.621-14.385s-5.65-14.385-12.621-14.385c-6.97 0-12.621 6.44-12.621 14.385s5.65 14.385 12.621 14.385z"></path>
</symbol>
<symbol id="icon-ball-p-a" viewBox="0 0 32 32">
<path fill="#576f35" style="fill: var(--color1, #576f35)" d="M16.098 26.739c6.365 0 11.524-5.881 11.524-13.135s-5.16-13.135-11.524-13.135-11.524 5.881-11.524 13.135c0 7.254 5.16 13.135 11.524 13.135z"></path>
</symbol>
<symbol id="icon-ball-p-v-2" viewBox="0 0 27 32">
<path fill="#576f35" style="fill: var(--color1, #576f35)" d="M14.299 27.057c6.365 0 11.524-5.881 11.524-13.135s-5.159-13.135-11.524-13.135-11.524 5.881-11.524 13.135c0 7.254 5.16 13.135 11.524 13.135z"></path>
</symbol>
<symbol id="icon-cloud-m2x" viewBox="0 0 48 32">
<path fill="#fff" style="fill: var(--color6, #fff)" stroke-linejoin="miter" stroke-linecap="butt" stroke-miterlimit="4" stroke-width="1.4545" stroke="#000" d="M38.472 13.952h0.013l0.013-0c0.94-0.034 1.879 0.148 2.762 0.537s1.697 0.981 2.388 1.744c0.691 0.763 1.245 1.682 1.625 2.704s0.577 2.124 0.577 3.239-0.197 2.217-0.577 3.239c-0.38 1.022-0.934 1.941-1.625 2.704s-1.504 1.354-2.388 1.744c-0.883 0.39-1.822 0.571-2.762 0.537l-0.013-0h-32.037c-0.859 0.006-1.712-0.222-2.489-0.671s-1.459-1.111-1.982-1.935c-0.523-0.825-0.869-1.786-1.004-2.805s-0.054-2.059 0.234-3.032c0.288-0.973 0.774-1.846 1.41-2.548s1.402-1.212 2.23-1.498c0.827-0.285 1.699-0.341 2.546-0.163s1.654 0.585 2.351 1.198l1.446 1.272-0.244-1.91c-0.475-3.713 0.354-7.482 2.291-10.488 1.936-3.005 4.811-4.993 7.988-5.576 3.173-0.582 6.431 0.278 9.074 2.422 2.648 2.147 4.468 5.414 5.039 9.109l0.136 0.879 0.835-0.308c0.701-0.259 1.431-0.39 2.164-0.39z"></path>
</symbol>
<symbol id="icon-Man_and_couriers" viewBox="0 0 20 32">
<path fill="#141414" style="fill: var(--color3, #141414)" d="M4.086 31.929h2.744c0 0-0.173-0.673-1.389-1.227l0.004-0.154 0.011-0.836h-1.298l-0.023 0.738-0.049 1.48z"></path>
<path fill="#141414" style="fill: var(--color3, #141414)" d="M4.064 31.951h2.789l-0.008-0.026c-0.008-0.026-0.188-0.686-1.389-1.235l0.011-0.995h-1.336l-0.068 2.256zM6.804 31.908h-2.699l0.068-2.174h1.261l-0.011 0.982 0.011 0.004c1.054 0.485 1.321 1.059 1.37 1.188z"></path>
<path fill="#141414" style="fill: var(--color3, #141414)" d="M0.511 31.929h2.744c0 0-0.173-0.673-1.389-1.227l0.011-0.103 0.105-0.888h-1.298l-0.060 0.772-0.113 1.445z"></path>
<path fill="#141414" style="fill: var(--color3, #141414)" d="M0.488 31.951h2.793l-0.008-0.026c-0.008-0.026-0.188-0.686-1.389-1.235l0.117-0.999h-1.336l-0.177 2.26zM3.228 31.908h-2.699l0.169-2.174h1.261l-0.117 0.982 0.015 0.004c1.058 0.485 1.321 1.059 1.37 1.188z"></path>
<path fill="#141414" style="fill: var(--color3, #141414)" d="M16.717 31.929h2.744l-0.177-1.565-0.072-0.652h-1.299l0.154 0.802 0.038 0.36c-1.276 0.446-1.389 1.055-1.389 1.055z"></path>
<path fill="#141414" style="fill: var(--color3, #141414)" d="M16.695 31.951h2.789l-0.252-2.26h-1.34l0.162 0.828 0.034 0.339c-1.257 0.442-1.385 1.042-1.389 1.068l-0.004 0.026zM19.442 31.908h-2.699c0.041-0.12 0.271-0.63 1.37-1.012l0.015-0.004-0.038-0.377-0.151-0.776h1.257l0.245 2.17z"></path>
<path fill="#141414" style="fill: var(--color3, #141414)" d="M13.556 31.929h2.744l-0.068-1.54-0.030-0.678h-1.299l0.034 0.823 0.008 0.292c-1.216 0.558-1.389 1.102-1.389 1.102z"></path>
<path fill="#141414" style="fill: var(--color3, #141414)" d="M13.529 31.951h2.793l-0.102-2.26h-1.336l0.038 0.849 0.007 0.279c-1.201 0.549-1.381 1.085-1.389 1.107l-0.011 0.026zM16.281 31.908h-2.695c0.056-0.12 0.335-0.588 1.366-1.059l0.011-0.004-0.008-0.309-0.034-0.802h1.261l0.098 2.174z"></path>
<path fill="#ffac71" style="fill: var(--color7, #ffac71)" d="M6.243 1.205l-1.908-0.489-0.207 0.828c-0.053-0.043-0.105-0.069-0.154-0.069-0.226 0-0.271 0.309-0.271 0.309-0.064 0.335 0.128 0.54 0.215 0.686l-0.655 2.389 1.622 0.287 0.139-1.527c1.396 0.802 1.22-2.415 1.22-2.415z"></path>
<path fill="#141414" style="fill: var(--color3, #141414)" d="M4.903 5.164l0.139-1.518c0.275 0.15 0.512 0.159 0.7 0.017 0.625-0.472 0.527-2.38 0.523-2.462v-0.017l-1.942-0.498-0.203 0.815c-0.049-0.039-0.098-0.056-0.143-0.056-0.237 0-0.29 0.322-0.29 0.326-0.056 0.292 0.075 0.485 0.169 0.626 0.015 0.021 0.030 0.043 0.041 0.064l-0.659 2.402 1.664 0.3zM5.008 3.581l-0.139 1.535-1.581-0.283 0.651-2.372-0.004-0.009c-0.015-0.021-0.030-0.047-0.049-0.073-0.090-0.137-0.215-0.322-0.162-0.592 0.004-0.013 0.045-0.292 0.252-0.292 0.045 0 0.094 0.021 0.143 0.064l0.023 0.017 0.211-0.836 1.878 0.48c0.008 0.189 0.072 1.973-0.508 2.406-0.181 0.137-0.414 0.124-0.685-0.030l-0.030-0.017z"></path>
<path fill="#141414" style="fill: var(--color3, #141414)" d="M6.815 0.27c-0.087-0.021-0.305 0-0.437 0.124 0.008-0.017 0.015-0.034 0.023-0.051 0.196-0.669-0.629-0.172-1.065-0.073-0.090 0.021-0.29 0.051-0.29 0.051-1.306-0.339-1.174 1.179-1.174 1.179 0.343-0.056 0.444 0.476 0.444 0.476 0.35-0.189 0.459-0.459 0.47-0.575 0.339 0.176 1.208 0.51 1.927-0.081 0.493-0.407 0.32-1.004 0.102-1.051z"></path>
<path fill="#141414" style="fill: var(--color3, #141414)" d="M14.395 6.631c0 0 0.531-1.128 0.576-1.69l-0.222-1.235c0 0-0.026-1.184 1.34-0.896 0 0-0.008-0.558 0.316-0.69 0 0-0.158 0.313-0.102 0.622 0 0 0.264-0.686 0.76-0.326 0 0 0.384 0.24 0.282 0.678 0 0 0.008 0.498-0.591 0.506 0 0 0.008 0.622 1.329 1.467 0 0 1.099 0.6 1.009 1.908s-1.114 2.131-1.114 2.131l-3.764 0.004 0.181-2.479z"></path>
<path fill="#ffac71" style="fill: var(--color7, #ffac71)" d="M16.484 7.111l-0.162-2.157c0 0 0.282-0.189 0.211-0.558 0 0-0.068-0.296-0.327-0.069l-0.008-0.523c0 0-0.911 0.39-1.442-0.197 0 0-0.384 2.041 0.425 2.037l-0.173 1.715 1.475-0.249z"></path>
<path fill="#141414" style="fill: var(--color3, #141414)" d="M14.99 7.386l1.517-0.253-0.162-2.166c0.053-0.039 0.275-0.232 0.211-0.575 0-0.004-0.030-0.129-0.12-0.163-0.060-0.021-0.128-0.004-0.207 0.056l-0.008-0.51-0.026 0.009c-0.008 0.004-0.903 0.377-1.423-0.193l-0.023-0.026-0.008 0.039c-0.011 0.056-0.256 1.385 0.098 1.878 0.083 0.116 0.192 0.176 0.324 0.18l-0.173 1.724zM16.465 7.094l-1.43 0.24 0.173-1.711h-0.023c-0.132 0-0.237-0.056-0.316-0.167-0.309-0.433-0.132-1.583-0.094-1.806 0.485 0.498 1.261 0.24 1.411 0.184l0.008 0.536 0.030-0.026c0.079-0.069 0.147-0.094 0.2-0.073 0.072 0.026 0.098 0.133 0.098 0.133 0.068 0.352-0.192 0.527-0.203 0.536l-0.011 0.009v0.013l0.158 2.131z"></path>
<path fill="#141414" style="fill: var(--color3, #141414)" d="M4.131 30.454l1.31 0.094 0.011-0.836h-1.298l-0.023 0.742z"></path>
<path fill="#141414" style="fill: var(--color3, #141414)" d="M0.624 30.484l1.253 0.116 0.105-0.888h-1.298l-0.060 0.772z"></path>
<path fill="#7a3145" style="fill: var(--color8, #7a3145)" d="M2.494 12.454l0.053 0.326 0.32 2.011 0.828 5.172 0.049 1.707 0.252 8.552h2.191l0.245-10.207-0.346-5.691-0.117-1.87h-3.474z"></path>
<path fill="#141414" style="fill: var(--color3, #141414)" d="M3.977 30.244h2.228v-0.021l0.245-10.207-0.463-7.582h-3.515l1.204 7.535 0.301 10.276zM6.168 30.201h-2.157l-0.301-10.237-1.197-7.488h3.433l0.467 7.544-0.245 10.181z"></path>
<path fill="#141414" style="fill: var(--color3, #141414)" d="M17.914 29.712l0.158 0.802 1.216-0.15-0.075-0.652h-1.299z"></path>
<path fill="#141414" style="fill: var(--color3, #141414)" d="M14.903 29.712l0.034 0.828 1.295-0.15-0.030-0.678h-1.299z"></path>
<path fill="#7a3145" style="fill: var(--color8, #7a3145)" d="M0.266 30.266h2.213l1.265-8.595 0.282-1.926 0.482-4.966 0.192-1.998h-3.594l0.015 1.578 0.053 5.206-0.907 10.7z"></path>
<path fill="#141414" style="fill: var(--color3, #141414)" d="M0.247 30.286h2.251l0.004-0.017 1.547-10.52 0.677-6.991h-3.636l0.068 6.806-0.911 10.722zM2.464 30.243h-2.175l0.903-10.675-0.068-6.768h3.557l-0.674 6.939-1.543 10.503z"></path>
<path fill="#141414" style="fill: var(--color3, #141414)" d="M13.857 18.707l0.58 11.515h2.002l-0.068-7.299-0.041-4.164 0.29-3.86 0.113-1.54-1.679-0.030-0.948-0.021-0.079 1.728-0.169 3.671z"></path>
<path fill="#141414" style="fill: var(--color3, #141414)" d="M14.421 30.244h2.036v-0.021l-0.109-11.464 0.406-5.421-2.665-0.051-0.252 5.421 0.583 11.537zM16.42 30.201h-1.965l-0.58-11.494 0.248-5.378 2.589 0.051-0.403 5.378 0.109 11.442z"></path>
<path fill="#141414" style="fill: var(--color3, #141414)" d="M1.105 12.781l0.015 1.578c0.625 0.236 1.212 0.373 1.746 0.433 0.614 0.073 1.167 0.052 1.641-0.017 0.711-0.099 1.253-0.305 1.573-0.455l-0.113-1.87h-3.474l0.053 0.326h-1.442v0.004z"></path>
<path fill="#141414" style="fill: var(--color3, #141414)" d="M15.031 13.15l0.023 0.18 0.214 1.78 0.568 4.692 0.534 3.122 1.235 7.231 1.833 0.043-0.843-10.623-0.233-5.55-0.041-0.978-3.289 0.103z"></path>
<path fill="#141414" style="fill: var(--color3, #141414)" d="M19.461 30.219v-0.026l-0.843-10.623-0.279-6.549-3.327 0.103 0.805 6.682 1.773 10.37 1.87 0.043zM18.302 13.068l0.275 6.506 0.843 10.597-1.799-0.043-1.765-10.336-0.802-6.626 3.248-0.099z"></path>
<path fill="#7a3145" style="fill: var(--color8, #7a3145)" d="M14.263 6.939l-1.46 2.166-2.040 0.455v1.673l2.39-0.257c0.166-0.017 0.32-0.086 0.455-0.193l0.956-0.772-0.301-3.071z"></path>
<path fill="#141414" style="fill: var(--color3, #141414)" d="M10.744 11.258l2.413-0.262c0.166-0.017 0.327-0.086 0.467-0.197l0.967-0.781-0.309-3.135-1.487 2.2-2.047 0.459v1.715h-0.004zM14.549 10.001l-0.948 0.768c-0.132 0.107-0.286 0.172-0.448 0.189l-2.371 0.257v-1.634l2.032-0.455 0.004-0.004 1.434-2.123 0.297 3.002z"></path>
<path fill="#576f35" style="fill: var(--color1, #576f35)" d="M4.978 4.598c0 0-0.282 0.759-1.551-0.738l-2.175 0.914c-0.309 0.154-0.527 0.476-0.583 0.853l-0.343 2.204h1.189l-0.55 5.893c0 0 1.603 0.485 2.83 0.515 2.025 0.052 2.473-0.36 2.473-0.36l-0.090-2.093-0.015-4.76c0.023-0.678-0.226-1.188-0.58-1.737l-0.606-0.691z"></path>
<path fill="#141414" style="fill: var(--color3, #141414)" d="M4.135 14.264c1.72 0 2.127-0.356 2.142-0.369l0.008-0.009-0.090-2.106-0.015-4.76c0.023-0.665-0.218-1.184-0.583-1.75l-0.625-0.712-0.011 0.030c-0.004 0.004-0.056 0.137-0.215 0.172-0.207 0.043-0.598-0.082-1.306-0.918l-0.008-0.009-0.011 0.004-2.175 0.913c-0.316 0.159-0.538 0.485-0.595 0.871l-0.346 2.23h1.189l-0.549 5.888 0.015 0.004c0.015 0.004 1.618 0.485 2.834 0.519 0.117 0 0.233 0 0.342 0zM6.247 13.866c-0.068 0.051-0.598 0.399-2.454 0.352-1.144-0.030-2.638-0.463-2.808-0.51l0.55-5.901h-1.186l0.339-2.179c0.056-0.373 0.267-0.686 0.572-0.836l2.164-0.905c0.715 0.841 1.122 0.965 1.332 0.918 0.136-0.030 0.203-0.124 0.23-0.172l0.587 0.665c0.369 0.575 0.595 1.068 0.572 1.724l0.015 4.76 0.087 2.084z"></path>
<path fill="#141414" style="fill: var(--color3, #141414)" d="M6.277 6.811h6.003v5.327h-6.003v-5.327z"></path>
<path fill="#d4bfc4" style="fill: var(--color9, #d4bfc4)" d="M5.242 6.811h5.491v5.327h-5.491v-5.327z"></path>
<path fill="#141414" style="fill: var(--color3, #141414)" d="M5.223 12.158h5.529v-5.369h-5.529v5.369zM10.714 12.116h-5.454v-5.284h5.454v5.284z"></path>
<path fill="#141414" style="fill: var(--color3, #141414)" d="M7.123 6.811v1.33l0.343-0.214 0.263 0.202 0.316-0.202 0.294 0.214v-1.33h-1.216z"></path>
<path fill="#141414" style="fill: var(--color3, #141414)" d="M8.335 9.427h1.268v0.086h-1.268v-0.086z"></path>
<path fill="#141414" style="fill: var(--color3, #141414)" d="M8.335 9.989h1.268v0.086h-1.268v-0.086z"></path>
<path fill="#141414" style="fill: var(--color3, #141414)" d="M8.335 10.55h1.268v0.086h-1.268v-0.086z"></path>
<path fill="#fefefe" style="fill: var(--color4, #fefefe)" d="M5.919 9.311h2.051v1.458h-2.051v-1.458z"></path>
<path fill="#141414" style="fill: var(--color3, #141414)" d="M5.9 10.791h2.089v-1.501h-2.089v1.501zM7.952 10.748h-2.014v-1.415h2.014v1.415z"></path>
<path fill="#141414" style="fill: var(--color3, #141414)" d="M14.026 15.036c0.316 0.052 0.749 0.094 1.242 0.073 0.414-0.017 0.873-0.077 1.347-0.21 0.576-0.163 1.174-0.437 1.743-0.875l-0.041-0.978-3.286 0.103 0.023 0.18-0.948-0.017-0.079 1.724z"></path>
<path fill="#e78d4c" style="fill: var(--color10, #e78d4c)" d="M10.744 12.313c0.034 0.064 0.079 0.116 0.132 0.159s0.113 0.073 0.177 0.086l0.297 0.077c0.192 0.047 0.388 0.073 0.583 0.073h0.26c0.075 0 0.151-0.021 0.215-0.064l0.279-0.176 0.294-0.039 1.091-0.15v-0.956l-0.918 0.163-0.425 0.077-0.922-0.292c0 0-0.162 0.382 0.342 0.575l-0.489 0.274h-0.821c-0.087-0.009-0.143 0.107-0.094 0.193z"></path>
<path fill="#141414" style="fill: var(--color3, #141414)" d="M11.937 12.725h0.26c0.079 0 0.158-0.021 0.226-0.069l0.275-0.172 1.396-0.193v-0.999l-1.362 0.244-0.933-0.296-0.008 0.017c-0.004 0.004-0.060 0.142 0 0.296 0.045 0.124 0.151 0.223 0.312 0.292l-0.444 0.249h-0.817c-0.049 0-0.094 0.030-0.117 0.077s-0.023 0.107 0.004 0.154c0.038 0.064 0.083 0.12 0.136 0.163 0.056 0.043 0.117 0.073 0.181 0.090l0.297 0.077c0.199 0.047 0.395 0.069 0.595 0.069zM14.056 12.258l-1.374 0.189-0.278 0.176c-0.064 0.039-0.136 0.060-0.207 0.060h-0.26c-0.196 0-0.391-0.026-0.58-0.073l-0.297-0.077c-0.060-0.017-0.117-0.043-0.169-0.086-0.049-0.039-0.094-0.090-0.128-0.15-0.019-0.034-0.019-0.077-0.004-0.112s0.049-0.056 0.083-0.056h0.824l0.534-0.3-0.045-0.017c-0.173-0.064-0.286-0.163-0.331-0.283-0.041-0.107-0.019-0.206-0.004-0.244l0.911 0.287 1.325-0.236v0.922z"></path>
<path fill="#141414" style="fill: var(--color3, #141414)" d="M7.056 3.534h3.722v3.302h-3.722v-3.302z"></path>
<path fill="#576f35" style="fill: var(--color1, #576f35)" d="M6.416 3.534h3.402v3.302h-3.402v-3.302z"></path>
<path fill="#141414" style="fill: var(--color3, #141414)" d="M6.397 6.858h3.44v-3.345h-3.44v3.345zM9.799 6.815h-3.365v-3.259h3.365v3.259z"></path>
<path fill="#141414" style="fill: var(--color3, #141414)" d="M7.579 3.534v0.823l0.215-0.133 0.166 0.124 0.196-0.124 0.181 0.133v-0.823h-0.756z"></path>
<path fill="#141414" style="fill: var(--color3, #141414)" d="M8.332 5.138h0.787v0.086h-0.787v-0.086z"></path>
<path fill="#141414" style="fill: var(--color3, #141414)" d="M8.332 5.485h0.787v0.086h-0.787v-0.086z"></path>
<path fill="#141414" style="fill: var(--color3, #141414)" d="M8.332 5.837h0.787v0.086h-0.787v-0.086z"></path>
<path fill="#fefefe" style="fill: var(--color4, #fefefe)" d="M6.834 5.082h1.272v0.905h-1.272v-0.905z"></path>
<path fill="#141414" style="fill: var(--color3, #141414)" d="M6.815 6.008h1.31v-0.948h-1.31v0.948zM8.087 5.965h-1.235v-0.862h1.235v0.862z"></path>
<path fill="#141414" style="fill: var(--color3, #141414)" d="M12.984 12.424l1.091-0.15v-0.956l-0.918 0.163-0.173 0.944z"></path>
<path fill="#7a3145" style="fill: var(--color8, #7a3145)" d="M13.315 11.387l0.689-0.15 0.113-3.851c0.008-0.244 0.105-0.476 0.271-0.635l0.704-0.669c0 0 0.136 0.982 1.449 0l1.216 0.497c0.342 0.142 0.602 0.472 0.685 0.875l0.768 4.25c0.072 0.395-0.184 0.768-0.538 0.781l-0.365 0.013 0.177 1.355c0 0-1.253 0.613-2.541 0.703-1.483 0.107-1.968-0.296-1.95-0.352l0.075-1.441-0.753 0.034v-1.411z"></path>
<path fill="#141414" style="fill: var(--color3, #141414)" d="M15.46 14.603c0.147 0 0.309-0.004 0.482-0.017 1.276-0.090 2.533-0.699 2.548-0.708l0.015-0.009-0.004-0.017-0.173-1.329 0.346-0.013c0.173-0.009 0.335-0.099 0.444-0.257 0.109-0.154 0.15-0.356 0.113-0.549l-0.768-4.25c-0.087-0.416-0.346-0.746-0.7-0.892l-1.223-0.502-0.008 0.004c-0.508 0.382-0.911 0.515-1.167 0.386-0.214-0.107-0.252-0.369-0.252-0.369l-0.004-0.039-0.726 0.695c-0.169 0.163-0.271 0.399-0.278 0.652l-0.113 3.834-0.689 0.15v1.458l0.753-0.034-0.075 1.415c-0.004 0.013 0 0.021 0.008 0.034 0.045 0.082 0.44 0.356 1.472 0.356zM18.46 13.844c-0.139 0.064-1.321 0.609-2.522 0.695-1.419 0.103-1.905-0.266-1.927-0.326v-0.004l0.075-1.467-0.757 0.034v-1.377l0.689-0.15 0.113-3.868c0.008-0.24 0.105-0.463 0.263-0.618l0.678-0.648c0.019 0.081 0.083 0.274 0.267 0.365 0.271 0.137 0.67 0.009 1.197-0.382l1.208 0.493c0.339 0.137 0.591 0.459 0.674 0.862l0.768 4.25c0.034 0.18-0.008 0.369-0.105 0.515-0.102 0.146-0.252 0.232-0.414 0.24l-0.388 0.013 0.181 1.372z"></path>
<path fill="#141414" style="fill: var(--color3, #141414)" d="M18.302 12.473l0.002 0.043-4.269 0.279-0.002-0.043 4.269-0.279z"></path>
<path fill="#141414" style="fill: var(--color3, #141414)" d="M13.989 11.258l3.248-0.763-0.294-1.844-0.038 0.009 0.29 1.801-3.214 0.759 0.008 0.039z"></path>
<path fill="#ffac71" style="fill: var(--color7, #ffac71)" d="M0.149 10.542c-0.034 0.433 0.203 0.836 0.568 0.965l3.847 1.364 0.365 0.146c0.139 0.056 0.29 0.073 0.437 0.051l0.738-0.103c0.045-0.009 0.094-0.021 0.136-0.039l0.862-0.36c0.109-0.047 0.207-0.133 0.271-0.244l0.011-0.021c0.045-0.077-0.004-0.18-0.087-0.18h-1.385c0.403-0.292 0.373-0.549 0.373-0.549l-0.851 0.133-0.621 0.086-2.932-1.63 0.339-1.926 0.068-0.39h-1.95l-0.019 0.227-0.169 2.47z"></path>
<path fill="#141414" style="fill: var(--color3, #141414)" d="M5.249 13.098c0.041 0 0.083-0.004 0.12-0.009l0.738-0.103c0.049-0.009 0.098-0.021 0.139-0.039l0.862-0.36c0.117-0.047 0.211-0.133 0.279-0.253l0.011-0.021c0.026-0.043 0.026-0.099 0.004-0.142-0.023-0.047-0.060-0.073-0.109-0.073h-1.321c0.354-0.279 0.331-0.519 0.327-0.532l-0.004-0.021-0.869 0.133-0.617 0.082-2.913-1.617 0.41-2.329h-1.987l-0.203 2.723c-0.034 0.446 0.207 0.853 0.583 0.986l3.847 1.364 0.365 0.146c0.117 0.043 0.23 0.064 0.339 0.064zM7.304 12.141c0.030 0 0.060 0.017 0.075 0.051 0.015 0.030 0.015 0.069-0.004 0.099l-0.011 0.021c-0.064 0.107-0.154 0.189-0.26 0.236l-0.862 0.36c-0.041 0.017-0.087 0.030-0.132 0.039l-0.738 0.103c-0.143 0.021-0.294 0.004-0.429-0.051l-0.365-0.146-3.847-1.364c-0.358-0.129-0.587-0.515-0.557-0.944l0.199-2.685h1.908l-0.406 2.307 0.011 0.009 2.936 1.63 0.629-0.086 0.828-0.129c-0.004 0.064-0.045 0.274-0.365 0.506l-0.053 0.039h1.442v0.004z"></path>
<path fill="#141414" style="fill: var(--color3, #141414)" d="M2.467 6.915l0.037 0.010-0.208 0.989-0.037-0.010 0.208-0.989z"></path>
<path fill="#141414" style="fill: var(--color3, #141414)" d="M0.334 8.063l1.893 0.167 0.071-0.395h-1.95l-0.015 0.227z"></path>
</symbol>
<symbol id="icon-romb-m-a2x-1" viewBox="0 0 29 32">
<path d="M27.924 15.869c-3.351 0-6.564 1.517-8.934 4.218s-3.7 6.363-3.7 10.183c0-3.819-1.331-7.482-3.7-10.183s-5.583-4.218-8.934-4.218c3.351 0 6.564-1.517 8.934-4.218s3.7-6.363 3.7-10.183c0 3.819 1.331 7.482 3.7 10.183s5.583 4.218 8.934 4.218z"></path>
</symbol>
<symbol id="icon-romb-pip1x" viewBox="0 0 27 32">
<path d="M26.216 17.046c-1.712-0.001-3.408 0.383-4.99 1.129s-3.020 1.84-4.231 3.22c-1.211 1.379-2.172 3.017-2.828 4.82s-0.994 3.735-0.994 5.686c0-3.941-1.374-7.721-3.819-10.508s-5.761-4.352-9.219-4.352c3.458 0 6.774-1.566 9.219-4.352s3.819-6.567 3.819-10.508c0 3.941 1.374 7.721 3.819 10.508s5.761 4.352 9.219 4.352l0.004 0.005z"></path>
</symbol>
<symbol id="icon-roumb-m2x" viewBox="0 0 27 32">
<path d="M26.539 16.178c-1.712-0.001-3.408 0.383-4.99 1.129s-3.020 1.84-4.231 3.22c-1.211 1.379-2.172 3.017-2.828 4.82s-0.994 3.735-0.994 5.686c0-3.941-1.374-7.721-3.819-10.508s-5.761-4.352-9.219-4.352c3.458 0 6.774-1.566 9.219-4.352s3.819-6.567 3.819-10.508c0 3.941 1.374 7.721 3.819 10.508s5.761 4.352 9.219 4.352l0.004 0.005z"></path>
</symbol>
<symbol id="icon-rover" viewBox="0 0 83 32">
<path fill="#141414" style="fill: var(--color3, #141414)" d="M2.821 4.021h9.835v8.724h-9.835v-8.724z"></path>
<path fill="#576f35" style="fill: var(--color1, #576f35)" d="M1.126 4.021h8.997v8.724h-8.997v-8.724z"></path>
<path fill="#141414" style="fill: var(--color3, #141414)" d="M1.101 12.779h9.058v-8.794h-9.058v8.794zM10.092 12.71h-8.936v-8.655h8.936v8.655z"></path>
<path fill="#141414" style="fill: var(--color3, #141414)" d="M4.21 4.021v2.176l0.563-0.356 0.435 0.335 0.52-0.335 0.477 0.356v-2.176h-1.995z"></path>
<path fill="#141414" style="fill: var(--color3, #141414)" d="M6.206 8.303h2.075v0.14h-2.075v-0.14z"></path>
<path fill="#141414" style="fill: var(--color3, #141414)" d="M6.206 9.223h2.075v0.14h-2.075v-0.14z"></path>
<path fill="#141414" style="fill: var(--color3, #141414)" d="M6.206 10.144h2.075v0.14h-2.075v-0.14z"></path>
<path fill="#fefefe" style="fill: var(--color4, #fefefe)" d="M2.24 8.114h3.36v2.392h-3.36v-2.392z"></path>
<path fill="#141414" style="fill: var(--color3, #141414)" d="M2.209 10.534h3.421v-2.462h-3.421v2.462zM5.569 10.465h-3.299v-2.322h3.299v2.322z"></path>
<path fill="#f27b79" style="fill: var(--color5, #f27b79)" d="M12.387 14.342h-2.626c-0.122 0-0.245 0.063-0.318 0.174l-1.328 1.904c-0.214 0.307-0.024 0.753 0.318 0.753h3.954v-2.831z"></path>
<path fill="#141414" style="fill: var(--color3, #141414)" d="M8.434 17.208h3.984v-2.901h-2.656c-0.135 0-0.263 0.070-0.343 0.188l-1.328 1.904c-0.104 0.153-0.129 0.356-0.049 0.53 0.067 0.167 0.22 0.279 0.392 0.279zM12.357 17.138h-3.923c-0.147 0-0.275-0.091-0.343-0.244-0.061-0.153-0.049-0.328 0.043-0.453l1.328-1.904c0.073-0.105 0.178-0.16 0.294-0.16h2.595v2.762h0.006z"></path>
<path fill="#141414" style="fill: var(--color3, #141414)" d="M39.139 2.375c0 0.258-0.184 0.46-0.404 0.46h-1.322c-0.226 0-0.404-0.209-0.404-0.46 0-0.258 0.184-0.46 0.404-0.46h1.322c0.22-0.007 0.404 0.202 0.404 0.46z"></path>
<path fill="#141414" style="fill: var(--color3, #141414)" d="M34.151 2.919h1.628v2.629h-1.628v-2.629z"></path>
<path fill="#576f35" style="fill: var(--color1, #576f35)" d="M38.343 22.417v-15.37c0-1.304-0.93-2.364-2.075-2.364h-5.998c-1.144 0-2.075 1.060-2.075 2.364v14.157c0 1.2-0.851 2.169-1.903 2.169h-1.683c-1.053 0-1.903-0.969-1.903-2.169v-6.186c0 0 0.043-1.869 1.053-2.141h-10.368c0 0-4.309 4.003-5.214 10.454v0.711h30.167v-1.625z"></path>
<path fill="#141414" style="fill: var(--color3, #141414)" d="M8.146 24.077h30.228v-17.030c0-1.325-0.942-2.399-2.105-2.399h-5.998c-1.163 0-2.105 1.074-2.105 2.399v14.157c0 1.179-0.838 2.134-1.873 2.134h-1.683c-1.034 0-1.873-0.955-1.873-2.134v-6.186c0-0.021 0.049-1.841 1.034-2.106l0.257-0.070-10.649 0.007c-0.012 0.007-1.096 1.025-2.271 2.81-1.089 1.653-2.485 4.324-2.95 7.664l-0.012 0.753zM38.313 24.007h-30.106v-0.676c0.465-3.32 1.854-5.984 2.938-7.622 1.12-1.702 2.154-2.699 2.258-2.797h10.172c-0.851 0.425-0.894 2.029-0.9 2.106v6.186c0 1.213 0.869 2.204 1.934 2.204h1.683c1.065 0 1.934-0.99 1.934-2.204v-14.157c0-1.283 0.918-2.329 2.044-2.329h5.998c1.126 0 2.044 1.046 2.044 2.329v16.96z"></path>
<path fill="#141414" style="fill: var(--color3, #141414)" d="M34.255 4.676h0.734v15.454h-0.734v-15.454z"></path>
<path fill="#141414" style="fill: var(--color3, #141414)" d="M0 12.501h14.003v0.795h-14.003v-0.795z"></path>
<path fill="#141414" style="fill: var(--color3, #141414)" d="M15.735 24.085h9.731v2.28h-9.731v-2.28z"></path>
<path fill="#141414" style="fill: var(--color3, #141414)" d="M12.228 30.857c-2.447 0-4.431-2.57-4.431-5.74s1.984-5.739 4.431-5.739 4.431 2.57 4.431 5.739c0 3.17-1.984 5.74-4.431 5.74z"></path>
<path fill="#fefefe" style="fill: var(--color4, #fefefe)" d="M11.482 28.596c-1.592 0-2.883-1.673-2.883-3.738s1.291-3.738 2.883-3.738 2.883 1.674 2.883 3.738c0 2.065-1.291 3.738-2.883 3.738z"></path>
<path fill="#141414" style="fill: var(--color3, #141414)" d="M11.481 28.632c1.61 0 2.913-1.695 2.913-3.773s-1.31-3.773-2.913-3.773-2.913 1.695-2.913 3.773c0 2.078 1.304 3.773 2.913 3.773zM11.481 21.156c1.573 0 2.852 1.66 2.852 3.703s-1.279 3.703-2.852 3.703c-1.573 0-2.852-1.66-2.852-3.703s1.279-3.703 2.852-3.703z"></path>
<path fill="#141414" style="fill: var(--color3, #141414)" d="M13.006 24.879c0 0.83-0.343 1.569-1.438 1.569-0.643 0-0.881-0.739-0.881-1.569s0.245-1.506 0.881-1.506c1.096 0 1.438 0.67 1.438 1.506z"></path>
<path fill="#fefefe" style="fill: var(--color4, #fefefe)" d="M11.494 26.386c-0.642 0-1.163-0.674-1.163-1.506s0.521-1.506 1.163-1.506 1.163 0.674 1.163 1.506c0 0.832-0.521 1.506-1.163 1.506z"></path>
<path fill="#141414" style="fill: var(--color3, #141414)" d="M11.494 26.413c0.655 0 1.193-0.69 1.193-1.541s-0.532-1.541-1.193-1.541c-0.661 0-1.193 0.69-1.193 1.541s0.539 1.541 1.193 1.541zM11.494 23.408c0.624 0 1.132 0.663 1.132 1.471s-0.508 1.471-1.132 1.471c-0.624 0-1.132-0.663-1.132-1.471s0.508-1.471 1.132-1.471z"></path>
<path fill="#141414" style="fill: var(--color3, #141414)" d="M37.193 30.857c-2.447 0-4.431-2.57-4.431-5.74s1.984-5.739 4.431-5.739c2.447 0 4.431 2.57 4.431 5.739s-1.984 5.74-4.431 5.74z"></path>
<path fill="#fefefe" style="fill: var(--color4, #fefefe)" d="M36.446 28.596c-1.592 0-2.882-1.673-2.882-3.738s1.29-3.738 2.882-3.738 2.883 1.674 2.883 3.738c0 2.065-1.291 3.738-2.883 3.738z"></path>
<path fill="#141414" style="fill: var(--color3, #141414)" d="M36.446 28.632c1.61 0 2.913-1.695 2.913-3.773s-1.31-3.773-2.913-3.773c-1.603 0-2.913 1.695-2.913 3.773s1.304 3.773 2.913 3.773zM36.446 21.156c1.573 0 2.852 1.66 2.852 3.703s-1.279 3.703-2.852 3.703c-1.573 0-2.852-1.66-2.852-3.703s1.279-3.703 2.852-3.703z"></path>
<path fill="#141414" style="fill: var(--color3, #141414)" d="M37.97 24.879c0 0.83-0.343 1.506-1.438 1.506-0.642 0-0.881-0.676-0.881-1.506s0.245-1.506 0.881-1.506c1.095 0 1.438 0.67 1.438 1.506z"></path>
<path fill="#fefefe" style="fill: var(--color4, #fefefe)" d="M36.458 26.386c-0.642 0-1.163-0.674-1.163-1.506s0.521-1.506 1.163-1.506 1.163 0.674 1.163 1.506c0 0.832-0.52 1.506-1.163 1.506z"></path>
<path fill="#141414" style="fill: var(--color3, #141414)" d="M36.458 26.413c0.655 0 1.193-0.69 1.193-1.541s-0.532-1.541-1.193-1.541c-0.661 0-1.193 0.69-1.193 1.541s0.539 1.541 1.193 1.541zM36.458 23.408c0.624 0 1.132 0.663 1.132 1.471s-0.508 1.471-1.132 1.471c-0.624 0-1.132-0.663-1.132-1.471s0.514-1.471 1.132-1.471z"></path>
<path fill="#141414" style="fill: var(--color3, #141414)" d="M4.082 23.352h0.563c0.073-0.663 0.569-1.172 1.169-1.172h12.51v2.692h-12.51c-0.569 0-1.047-0.46-1.157-1.074h-0.575v-0.446z"></path>
<path fill="#576f35" style="fill: var(--color1, #576f35)" d="M6.304 24.042c0 0-0.777-7.099 6.5-9.031 2.626-0.697 8.654-1.151 7.301 9.031h-13.801z"></path>
<path fill="#141414" style="fill: var(--color3, #141414)" d="M6.273 24.077h13.85l0.006-0.028c0.502-3.787 0.031-6.479-1.402-7.985-1.75-1.848-4.474-1.471-5.937-1.081-1.665 0.439-3.042 1.193-4.101 2.232-0.845 0.83-1.487 1.848-1.903 3.027-0.71 2.002-0.526 3.787-0.52 3.808l0.006 0.028zM20.074 24.007h-13.746c-0.018-0.244-0.135-1.904 0.52-3.745 0.649-1.827 2.209-4.219 5.955-5.216 1.45-0.384 4.15-0.76 5.882 1.067 1.42 1.492 1.885 4.149 1.389 7.894z"></path>
<path fill="#141414" style="fill: var(--color3, #141414)" d="M23.073 13.296h-9.125c-0.949 0-1.72-0.879-1.72-1.96 0-1.144 0.857-2.043 1.854-1.953l9.095 0.823c0.704 0.063 1.249 0.732 1.249 1.541 0 0.851-0.606 1.548-1.353 1.548z"></path>
<path fill="#576f35" style="fill: var(--color1, #576f35)" d="M32.425 23.255h10.429c0 0-0.171-1.75-1.206-3.34-2.265-3.452-6.971-2.978-8.636 0.886-0.3 0.683-0.508 1.492-0.588 2.455z"></path>
<path fill="#141414" style="fill: var(--color3, #141414)" d="M32.388 23.289h10.496l-0.006-0.042c0-0.021-0.184-1.778-1.212-3.354-1.071-1.639-2.785-2.504-4.584-2.315-1.787 0.188-3.317 1.388-4.107 3.208-0.312 0.732-0.514 1.555-0.588 2.462v0.042zM42.817 23.219h-10.356c0.073-0.879 0.269-1.688 0.575-2.399 0.777-1.799 2.289-2.985 4.058-3.166 1.775-0.188 3.47 0.669 4.529 2.287 0.93 1.43 1.157 3.013 1.193 3.278z"></path>
<path fill="#141414" style="fill: var(--color3, #141414)" d="M6.231 24.503h26.825v-0.921h9.786v-0.837h-9.805c-0.398 0-0.716 0.37-0.716 0.816v0.105h-26.091v0.837z"></path>
<path fill="#141414" style="fill: var(--color3, #141414)" d="M25.050 29.014h1.793v-0.837h-1.542l-3.452-2.999-0.441 0.663 3.641 3.173z"></path>
<path fill="#576f35" style="fill: var(--color1, #576f35)" d="M34.096 3.791h2.234c0.135 0 0.269-0.021 0.392-0.056 0.71-0.202 1.236-0.934 1.236-1.806 0-0.516-0.184-0.976-0.477-1.311-0.208-0.237-0.465-0.405-0.759-0.488-0.129-0.035-0.257-0.056-0.398-0.056h-0.324c-1.12 0-2.191 0.635-2.773 1.73-0.031 0.056-0.061 0.119-0.092 0.181-0.373 0.823 0.147 1.806 0.961 1.806z"></path>
<path fill="#141414" style="fill: var(--color3, #141414)" d="M34.096 3.826h2.234c0.134 0 0.269-0.021 0.404-0.056 0.74-0.209 1.261-0.962 1.261-1.841 0-0.509-0.171-0.983-0.49-1.339-0.214-0.244-0.483-0.418-0.771-0.502-0.135-0.035-0.269-0.056-0.404-0.056h-0.324c-1.151 0-2.222 0.669-2.797 1.75-0.031 0.063-0.061 0.119-0.092 0.181-0.184 0.391-0.178 0.858 0.024 1.241 0.208 0.391 0.563 0.621 0.955 0.621zM36.33 0.109c0.129 0 0.263 0.021 0.386 0.056 0.282 0.077 0.539 0.244 0.747 0.481 0.3 0.342 0.471 0.802 0.471 1.29 0 0.844-0.502 1.569-1.212 1.771-0.129 0.035-0.257 0.056-0.386 0.056h-2.234c-0.373 0-0.71-0.216-0.9-0.586-0.19-0.363-0.202-0.802-0.025-1.172 0.031-0.063 0.061-0.119 0.092-0.181 0.563-1.060 1.616-1.716 2.742-1.716h0.318z"></path>
<path fill="#141414" style="fill: var(--color3, #141414)" d="M35.602 1.936c0 0.739 0.282 1.402 0.728 1.862h0.006c0.899 0 1.634-0.83 1.634-1.862 0-0.516-0.184-0.976-0.477-1.311s-0.704-0.544-1.151-0.544h-0.006c-0.459 0.453-0.734 1.116-0.734 1.855z"></path>
<path fill="#fefefe" style="fill: var(--color4, #fefefe)" d="M36.048 1.936c0 0.711 0.257 1.346 0.673 1.806 0.71-0.202 1.236-0.935 1.236-1.806 0-0.516-0.184-0.976-0.478-1.311-0.208-0.237-0.465-0.405-0.759-0.488-0.416 0.446-0.673 1.088-0.673 1.799z"></path>
<path fill="#141414" style="fill: var(--color3, #141414)" d="M36.716 3.778l0.018-0.007c0.741-0.209 1.261-0.962 1.261-1.841 0-0.509-0.171-0.983-0.49-1.339-0.214-0.244-0.483-0.418-0.771-0.502l-0.018-0.007-0.012 0.014c-0.441 0.481-0.685 1.13-0.685 1.827s0.245 1.346 0.685 1.827l0.012 0.028zM36.734 0.172c0.275 0.084 0.526 0.244 0.728 0.474 0.3 0.342 0.471 0.802 0.471 1.29 0 0.837-0.49 1.555-1.2 1.764-0.422-0.467-0.655-1.095-0.655-1.764 0-0.676 0.233-1.297 0.655-1.764z"></path>
<path fill="#a1c487" style="fill: var(--color2, #a1c487)" d="M31.899 2.096h1.206v0.565h-1.206v-0.565z"></path>
<path fill="#141414" style="fill: var(--color3, #141414)" d="M31.874 2.702h1.267v-0.635h-1.267v0.635zM33.074 2.633h-1.145v-0.495h1.145v0.495z"></path>
<path fill="#141414" style="fill: var(--color3, #141414)" d="M33.557 1.908h-0.483c-0.226 0-0.404 0.209-0.404 0.46 0 0.258 0.184 0.46 0.404 0.46h0.483c0.226 0 0.404-0.209 0.404-0.46s-0.178-0.46-0.404-0.46z"></path>
<path fill="#141414" style="fill: var(--color3, #141414)" d="M32.131 2.375c0 0.258-0.184 0.46-0.404 0.46h-1.322c-0.226 0-0.404-0.209-0.404-0.46 0-0.258 0.184-0.46 0.404-0.46h1.322c0.22-0.007 0.404 0.202 0.404 0.46z"></path>
<path fill="#fff" style="fill: var(--color6, #fff)" d="M10.288 22.257h5.973v0.391h-5.973v-0.391z"></path>
<path fill="#141414" style="fill: var(--color3, #141414)" d="M10.258 22.683h6.035v-0.46h-6.035v0.46zM16.231 22.613h-5.912v-0.321h5.912v0.321z"></path>
<path fill="#fff" style="fill: var(--color6, #fff)" d="M10.288 21.226h5.973v0.391h-5.973v-0.391z"></path>
<path fill="#141414" style="fill: var(--color3, #141414)" d="M10.258 21.65h6.035v-0.46h-6.035v0.46zM16.231 21.58h-5.912v-0.321h5.912v0.321z"></path>
<path fill="#fff" style="fill: var(--color6, #fff)" d="M10.288 20.199h5.973v0.391h-5.973v-0.391z"></path>
<path fill="#141414" style="fill: var(--color3, #141414)" d="M10.258 20.625h6.035v-0.46h-6.035v0.46zM16.231 20.556h-5.912v-0.321h5.912v0.321z"></path>
<path fill="#141414" style="fill: var(--color3, #141414)" d="M19.383 29.008h12.547v0.139h-12.547v-0.139z"></path>
<path fill="#141414" style="fill: var(--color3, #141414)" d="M43.822 31.892h39.279v0.108h-39.279v-0.108z"></path>
</symbol>
</defs>
</svg>
