<svg aria-hidden="true" style="position: absolute; width: 0; height: 0; overflow: hidden;" version="1.1" xmlns="http://www.w3.org/2000/svg" xmlns:xlink="http://www.w3.org/1999/xlink">
<defs>
<symbol id="icon-boll-2deck" viewBox="0 0 32 32">
<path fill="#a1c487" style="fill: var(--color1, #a1c487)" d="M16.081 31.722c7.603 0 13.766-6.882 13.766-15.372s-6.163-15.372-13.766-15.372c-7.603 0-13.766 6.882-13.766 15.372s6.163 15.372 13.766 15.372z"></path>
</symbol>
<symbol id="icon-boll-3-deck" viewBox="0 0 29 32">
<path fill="#576f35" style="fill: var(--color2, #576f35)" d="M13.933 31.301c7.282 0 13.186-6.592 13.186-14.724s-5.904-14.724-13.186-14.724c-7.282 0-13.186 6.592-13.186 14.724s5.904 14.724 13.186 14.724z"></path>
</symbol>
<symbol id="icon-boll-4-deck" viewBox="0 0 32 32">
<path fill="#576f35" style="fill: var(--color2, #576f35)" d="M16.648 30.029c7.125 0 12.9-6.449 12.9-14.405s-5.776-14.405-12.9-14.405c-7.125 0-12.9 6.449-12.9 14.405s5.776 14.405 12.9 14.405z"></path>
</symbol>
<symbol id="icon-boll-5-deck" viewBox="0 0 28 32">
<path fill="#576f35" style="fill: var(--color2, #576f35)" d="M13.978 30.148c7.125 0 12.9-6.449 12.9-14.405s-5.776-14.405-12.9-14.405c-7.125 0-12.9 6.449-12.9 14.405s5.776 14.405 12.9 14.405z"></path>
</symbol>
<symbol id="icon-boll-deck" viewBox="0 0 27 32">
<path fill="#576f35" style="fill: var(--color2, #576f35)" d="M14.544 27.093c6.336 0 11.471-5.735 11.471-12.81s-5.136-12.81-11.471-12.81-11.472 5.735-11.472 12.81c0 7.075 5.136 12.81 11.472 12.81z"></path>
</symbol>
<symbol id="icon-ckuter-deck" viewBox="0 0 85 32">
<path fill="#141414" style="fill: var(--color3, #141414)" d="M2.874 4.076h10.019v8.707h-10.019v-8.707z"></path>
<path fill="#576f35" style="fill: var(--color2, #576f35)" d="M1.147 4.076h9.165v8.707h-9.165v-8.707z"></path>
<path fill="#141414" style="fill: var(--color3, #141414)" d="M1.122 12.817h9.228v-8.777h-9.228v8.777zM10.281 12.748h-9.103v-8.638h9.103v8.638z"></path>
<path fill="#141414" style="fill: var(--color3, #141414)" d="M4.289 4.076v2.172l0.574-0.355 0.443 0.334 0.53-0.334 0.486 0.355v-2.172h-2.033z"></path>
<path fill="#141414" style="fill: var(--color3, #141414)" d="M6.322 8.349h2.114v0.139h-2.114v-0.139z"></path>
<path fill="#141414" style="fill: var(--color3, #141414)" d="M6.322 9.268h2.114v0.139h-2.114v-0.139z"></path>
<path fill="#141414" style="fill: var(--color3, #141414)" d="M6.322 10.187h2.114v0.139h-2.114v-0.139z"></path>
<path fill="#fefefe" style="fill: var(--color4, #fefefe)" d="M2.282 8.161h3.423v2.387h-3.423v-2.387z"></path>
<path fill="#141414" style="fill: var(--color3, #141414)" d="M2.25 10.577h3.485v-2.457h-3.485v2.457zM5.673 10.507h-3.361v-2.318h3.361v2.318z"></path>
<path fill="#f27b79" style="fill: var(--color5, #f27b79)" d="M12.619 14.377h-2.675c-0.125 0-0.249 0.063-0.324 0.174l-1.353 1.9c-0.218 0.306-0.025 0.752 0.324 0.752h4.028v-2.826z"></path>
<path fill="#141414" style="fill: var(--color3, #141414)" d="M8.591 17.237h4.059v-2.896h-2.706c-0.137 0-0.268 0.070-0.349 0.188l-1.353 1.9c-0.106 0.153-0.131 0.355-0.050 0.529 0.069 0.167 0.224 0.279 0.399 0.279zM12.588 17.168h-3.997c-0.15 0-0.281-0.091-0.349-0.244-0.062-0.153-0.050-0.327 0.044-0.452l1.353-1.9c0.075-0.104 0.181-0.16 0.299-0.16h2.644v2.756h0.006z"></path>
<path fill="#141414" style="fill: var(--color3, #141414)" d="M39.872 2.434c0 0.258-0.187 0.459-0.411 0.459h-1.347c-0.231 0-0.412-0.209-0.412-0.459 0-0.258 0.187-0.459 0.412-0.459h1.347c0.224-0.007 0.411 0.202 0.411 0.459z"></path>
<path fill="#141414" style="fill: var(--color3, #141414)" d="M34.79 2.976h1.658v2.624h-1.658v-2.624z"></path>
<path fill="#576f35" style="fill: var(--color2, #576f35)" d="M39.061 22.436v-15.34c0-1.302-0.948-2.359-2.114-2.359h-6.11c-1.166 0-2.114 1.058-2.114 2.359v14.129c0 1.197-0.867 2.165-1.939 2.165h-1.714c-1.072 0-1.939-0.967-1.939-2.165v-6.174c0 0 0.044-1.865 1.072-2.137h-10.562c0 0-4.389 3.995-5.312 10.433v0.71h30.731v-1.622z"></path>
<path fill="#141414" style="fill: var(--color3, #141414)" d="M8.298 24.093h30.794v-16.997c0-1.322-0.96-2.394-2.145-2.394h-6.11c-1.184 0-2.145 1.072-2.145 2.394v14.129c0 1.176-0.854 2.13-1.908 2.13h-1.714c-1.054 0-1.908-0.954-1.908-2.13v-6.174c0-0.021 0.050-1.837 1.054-2.102l0.262-0.070-10.849 0.007c-0.012 0.007-1.116 1.023-2.313 2.805-1.11 1.65-2.531 4.315-3.005 7.649l-0.012 0.752zM39.030 24.024h-30.669v-0.675c0.474-3.313 1.889-5.972 2.993-7.607 1.141-1.698 2.195-2.694 2.301-2.791h10.362c-0.867 0.425-0.91 2.025-0.916 2.102v6.174c0 1.211 0.885 2.2 1.97 2.2h1.714c1.085 0 1.97-0.988 1.97-2.2v-14.129c0-1.281 0.935-2.325 2.082-2.325h6.11c1.147 0 2.082 1.044 2.082 2.325v16.927z"></path>
<path fill="#141414" style="fill: var(--color3, #141414)" d="M34.896 4.73h0.748v15.424h-0.748v-15.424z"></path>
<path fill="#141414" style="fill: var(--color3, #141414)" d="M0 12.539h14.265v0.793h-14.265v-0.793z"></path>
<path fill="#141414" style="fill: var(--color3, #141414)" d="M16.030 24.101h9.913v2.276h-9.913v-2.276z"></path>
<path fill="#141414" style="fill: var(--color3, #141414)" d="M12.457 30.859c-2.493 0-4.514-2.565-4.514-5.728s2.021-5.728 4.514-5.728c2.493 0 4.514 2.565 4.514 5.728s-2.021 5.728-4.514 5.728z"></path>
<path fill="#fefefe" style="fill: var(--color4, #fefefe)" d="M11.696 28.603c-1.622 0-2.937-1.67-2.937-3.731s1.315-3.731 2.937-3.731c1.622 0 2.937 1.67 2.937 3.731s-1.315 3.731-2.937 3.731z"></path>
<path fill="#141414" style="fill: var(--color3, #141414)" d="M11.696 28.638c1.64 0 2.968-1.691 2.968-3.765s-1.334-3.765-2.968-3.765-2.968 1.691-2.968 3.765c0 2.074 1.328 3.765 2.968 3.765zM11.696 21.177c1.602 0 2.905 1.657 2.905 3.696s-1.303 3.696-2.905 3.696-2.905-1.657-2.905-3.696c0-2.039 1.303-3.696 2.905-3.696z"></path>
<path fill="#141414" style="fill: var(--color3, #141414)" d="M13.249 24.893c0 0.828-0.349 1.566-1.465 1.566-0.655 0-0.898-0.738-0.898-1.566s0.249-1.503 0.898-1.503c1.116 0 1.465 0.668 1.465 1.503z"></path>
<path fill="#fefefe" style="fill: var(--color4, #fefefe)" d="M11.709 26.397c-0.654 0-1.185-0.673-1.185-1.503s0.53-1.503 1.185-1.503c0.654 0 1.185 0.673 1.185 1.503s-0.53 1.503-1.185 1.503z"></path>
<path fill="#141414" style="fill: var(--color3, #141414)" d="M11.709 26.425c0.667 0 1.216-0.689 1.216-1.538s-0.542-1.538-1.216-1.538-1.216 0.689-1.216 1.538c0 0.849 0.549 1.538 1.216 1.538zM11.709 23.425c0.636 0 1.153 0.661 1.153 1.469s-0.518 1.469-1.153 1.469c-0.636 0-1.153-0.661-1.153-1.469s0.518-1.469 1.153-1.469z"></path>
<path fill="#141414" style="fill: var(--color3, #141414)" d="M37.889 30.859c-2.493 0-4.514-2.565-4.514-5.728s2.021-5.728 4.514-5.728c2.493 0 4.514 2.565 4.514 5.728s-2.021 5.728-4.514 5.728z"></path>
<path fill="#fefefe" style="fill: var(--color4, #fefefe)" d="M37.128 28.603c-1.622 0-2.937-1.67-2.937-3.731s1.315-3.731 2.937-3.731c1.622 0 2.937 1.67 2.937 3.731s-1.315 3.731-2.937 3.731z"></path>
<path fill="#141414" style="fill: var(--color3, #141414)" d="M37.128 28.638c1.64 0 2.968-1.691 2.968-3.765s-1.334-3.765-2.968-3.765-2.968 1.691-2.968 3.765c0 2.074 1.328 3.765 2.968 3.765zM37.128 21.177c1.602 0 2.905 1.657 2.905 3.696s-1.303 3.696-2.905 3.696-2.905-1.657-2.905-3.696c0-2.039 1.303-3.696 2.905-3.696z"></path>
<path fill="#141414" style="fill: var(--color3, #141414)" d="M38.681 24.893c0 0.828-0.349 1.503-1.465 1.503-0.655 0-0.898-0.675-0.898-1.503s0.249-1.503 0.898-1.503c1.116 0 1.465 0.668 1.465 1.503z"></path>
<path fill="#fefefe" style="fill: var(--color4, #fefefe)" d="M37.141 26.397c-0.654 0-1.184-0.673-1.184-1.503s0.53-1.503 1.184-1.503c0.654 0 1.185 0.673 1.185 1.503s-0.53 1.503-1.185 1.503z"></path>
<path fill="#141414" style="fill: var(--color3, #141414)" d="M37.141 26.425c0.667 0 1.216-0.689 1.216-1.538s-0.542-1.538-1.216-1.538-1.216 0.689-1.216 1.538c0 0.849 0.549 1.538 1.216 1.538zM37.141 23.425c0.636 0 1.154 0.661 1.154 1.469s-0.518 1.469-1.154 1.469-1.153-0.661-1.153-1.469c0-0.807 0.524-1.469 1.153-1.469z"></path>
<path fill="#141414" style="fill: var(--color3, #141414)" d="M4.159 23.369h0.574c0.075-0.661 0.58-1.169 1.191-1.169h12.744v2.687h-12.744c-0.58 0-1.066-0.459-1.178-1.072h-0.586v-0.445z"></path>
<path fill="#576f35" style="fill: var(--color2, #576f35)" d="M6.422 24.058c0 0-0.792-7.085 6.621-9.013 2.675-0.696 8.816-1.148 7.438 9.013h-14.059z"></path>
<path fill="#141414" style="fill: var(--color3, #141414)" d="M6.391 24.093h14.109l0.006-0.028c0.511-3.779 0.031-6.466-1.428-7.969-1.783-1.844-4.558-1.469-6.048-1.079-1.696 0.438-3.099 1.19-4.177 2.227-0.86 0.828-1.515 1.844-1.939 3.021-0.723 1.998-0.536 3.779-0.53 3.8l0.006 0.028zM20.45 24.024h-14.003c-0.019-0.244-0.137-1.9 0.53-3.738 0.661-1.824 2.251-4.211 6.066-5.206 1.478-0.383 4.227-0.759 5.992 1.065 1.446 1.49 1.92 4.141 1.415 7.879z"></path>
<path fill="#141414" style="fill: var(--color3, #141414)" d="M23.505 13.333h-9.296c-0.966 0-1.752-0.877-1.752-1.956 0-1.141 0.873-2.039 1.889-1.949l9.265 0.821c0.717 0.063 1.272 0.731 1.272 1.538 0 0.849-0.617 1.545-1.378 1.545z"></path>
<path fill="#576f35" style="fill: var(--color2, #576f35)" d="M33.032 23.272h10.624c0 0-0.175-1.747-1.228-3.334-2.307-3.445-7.101-2.972-8.797 0.884-0.305 0.682-0.517 1.489-0.599 2.45z"></path>
<path fill="#141414" style="fill: var(--color3, #141414)" d="M32.995 23.306h10.693l-0.006-0.042c0-0.021-0.187-1.775-1.234-3.348-1.091-1.636-2.837-2.499-4.67-2.311-1.821 0.188-3.379 1.385-4.184 3.202-0.318 0.731-0.524 1.552-0.599 2.457v0.042zM43.619 23.237h-10.549c0.075-0.877 0.274-1.684 0.586-2.394 0.792-1.796 2.332-2.979 4.134-3.16 1.808-0.188 3.535 0.668 4.614 2.283 0.948 1.427 1.178 3.007 1.216 3.271z"></path>
<path fill="#141414" style="fill: var(--color3, #141414)" d="M6.347 24.517h27.327v-0.919h9.969v-0.835h-9.988c-0.405 0-0.73 0.369-0.73 0.814v0.104h-26.579v0.835z"></path>
<path fill="#141414" style="fill: var(--color3, #141414)" d="M25.519 29.021h1.827v-0.835h-1.571l-3.516-2.993-0.449 0.661 3.71 3.167z"></path>
<path fill="#576f35" style="fill: var(--color2, #576f35)" d="M34.734 3.846h2.276c0.137 0 0.274-0.021 0.399-0.056 0.723-0.202 1.259-0.933 1.259-1.803 0-0.515-0.187-0.974-0.486-1.308-0.212-0.237-0.474-0.404-0.773-0.487-0.131-0.035-0.262-0.056-0.405-0.056h-0.331c-1.141 0-2.232 0.633-2.824 1.726-0.031 0.056-0.062 0.118-0.093 0.181-0.38 0.821 0.15 1.803 0.979 1.803z"></path>
<path fill="#141414" style="fill: var(--color3, #141414)" d="M34.734 3.881h2.276c0.137 0 0.274-0.021 0.412-0.056 0.754-0.209 1.284-0.961 1.284-1.837 0-0.508-0.175-0.981-0.499-1.336-0.218-0.244-0.493-0.418-0.786-0.501-0.137-0.035-0.274-0.056-0.412-0.056h-0.33c-1.172 0-2.263 0.668-2.849 1.747-0.031 0.063-0.062 0.118-0.094 0.181-0.187 0.39-0.181 0.856 0.025 1.239 0.212 0.39 0.574 0.619 0.973 0.619zM37.010 0.171c0.131 0 0.268 0.021 0.393 0.056 0.287 0.077 0.549 0.244 0.761 0.48 0.305 0.341 0.48 0.8 0.48 1.288 0 0.842-0.511 1.566-1.234 1.768-0.131 0.035-0.262 0.056-0.393 0.056h-2.276c-0.38 0-0.723-0.216-0.916-0.585-0.193-0.362-0.206-0.8-0.025-1.169 0.031-0.063 0.062-0.118 0.093-0.181 0.574-1.058 1.646-1.712 2.793-1.712h0.324z"></path>
<path fill="#141414" style="fill: var(--color3, #141414)" d="M36.268 1.995c0 0.738 0.287 1.399 0.742 1.858h0.006c0.916 0 1.665-0.828 1.665-1.858 0-0.515-0.187-0.974-0.486-1.308s-0.717-0.543-1.172-0.543h-0.006c-0.468 0.452-0.748 1.114-0.748 1.851z"></path>
<path fill="#fefefe" style="fill: var(--color4, #fefefe)" d="M36.723 1.994c0 0.71 0.262 1.343 0.686 1.803 0.723-0.202 1.259-0.933 1.259-1.803 0-0.515-0.187-0.974-0.486-1.309-0.212-0.237-0.474-0.404-0.773-0.487-0.424 0.445-0.686 1.086-0.686 1.796z"></path>
<path fill="#141414" style="fill: var(--color3, #141414)" d="M37.403 3.832l0.019-0.007c0.754-0.209 1.284-0.961 1.284-1.837 0-0.508-0.175-0.981-0.499-1.336-0.218-0.244-0.493-0.418-0.785-0.501l-0.019-0.007-0.013 0.014c-0.449 0.48-0.698 1.128-0.698 1.824s0.249 1.343 0.698 1.824l0.013 0.028zM37.422 0.234c0.281 0.084 0.536 0.244 0.742 0.473 0.305 0.341 0.48 0.8 0.48 1.288 0 0.835-0.499 1.552-1.222 1.761-0.43-0.466-0.667-1.093-0.667-1.761 0-0.675 0.237-1.295 0.667-1.761z"></path>
<path fill="#a1c487" style="fill: var(--color1, #a1c487)" d="M32.496 2.155h1.228v0.564h-1.228v-0.564z"></path>
<path fill="#141414" style="fill: var(--color3, #141414)" d="M32.471 2.76h1.291v-0.633h-1.291v0.633zM33.693 2.691h-1.166v-0.494h1.166v0.494z"></path>
<path fill="#141414" style="fill: var(--color3, #141414)" d="M34.185 1.967h-0.493c-0.231 0-0.412 0.209-0.412 0.459 0 0.258 0.187 0.459 0.412 0.459h0.493c0.231 0 0.411-0.209 0.411-0.459s-0.181-0.459-0.411-0.459z"></path>
<path fill="#141414" style="fill: var(--color3, #141414)" d="M32.733 2.434c0 0.258-0.187 0.459-0.412 0.459h-1.347c-0.231 0-0.411-0.209-0.411-0.459 0-0.258 0.187-0.459 0.411-0.459h1.347c0.224-0.007 0.412 0.202 0.412 0.459z"></path>
<path fill="#fff" style="fill: var(--color6, #fff)" d="M10.48 22.276h6.085v0.39h-6.085v-0.39z"></path>
<path fill="#141414" style="fill: var(--color3, #141414)" d="M10.449 22.701h6.148v-0.459h-6.148v0.459zM16.535 22.632h-6.023v-0.32h6.023v0.32z"></path>
<path fill="#fff" style="fill: var(--color6, #fff)" d="M10.48 21.247h6.085v0.39h-6.085v-0.39z"></path>
<path fill="#141414" style="fill: var(--color3, #141414)" d="M10.449 21.671h6.148v-0.459h-6.148v0.459zM16.535 21.601h-6.023v-0.32h6.023v0.32z"></path>
<path fill="#fff" style="fill: var(--color6, #fff)" d="M10.48 20.223h6.085v0.39h-6.085v-0.39z"></path>
<path fill="#141414" style="fill: var(--color3, #141414)" d="M10.449 20.648h6.148v-0.459h-6.148v0.459zM16.535 20.579h-6.023v-0.32h6.023v0.32z"></path>
<path fill="#141414" style="fill: var(--color3, #141414)" d="M19.745 29.014h12.781v0.139h-12.781v-0.139z"></path>
<path fill="#141414" style="fill: var(--color3, #141414)" d="M44.642 31.892h40.014v0.108h-40.014v-0.108z"></path>
</symbol>
<symbol id="icon-cloud-deck" viewBox="0 0 50 32">
<path fill="#fff" style="fill: var(--color6, #fff)" stroke-linejoin="miter" stroke-linecap="butt" stroke-miterlimit="4" stroke-width="1.0323" stroke="#000" d="M40.719 13.792h0.009l0.009-0c1.037-0.036 2.071 0.16 3.042 0.579s1.861 1.054 2.615 1.87c0.754 0.816 1.356 1.796 1.769 2.883s0.625 2.257 0.625 3.441c0 1.183-0.213 2.354-0.625 3.441s-1.015 2.067-1.769 2.883c-0.754 0.816-1.644 1.451-2.615 1.87s-2.005 0.616-3.042 0.579l-0.009-0h-33.928c-0.959 0.006-1.908-0.243-2.77-0.731s-1.612-1.203-2.185-2.089c-0.573-0.886-0.951-1.916-1.098-3.005s-0.059-2.2 0.256-3.242c0.315-1.041 0.847-1.979 1.546-2.736s1.547-1.311 2.468-1.623c0.921-0.311 1.893-0.372 2.837-0.178s1.839 0.638 2.608 1.3l1.023 0.882-0.175-1.34c-0.509-3.904 0.379-7.869 2.462-11.038 2.083-3.167 5.186-5.277 8.629-5.895 3.441-0.618 6.969 0.298 9.823 2.566 2.857 2.27 4.812 5.715 5.425 9.6l0.097 0.618 0.588-0.213c0.771-0.279 1.575-0.421 2.383-0.421z"></path>
</symbol>
<symbol id="icon-Man_and_couriers-2" viewBox="0 0 20 32">
<path fill="#141414" style="fill: var(--color3, #141414)" d="M4.135 31.93h2.801c0 0-0.177-0.673-1.418-1.227l0.004-0.154 0.012-0.836h-1.325l-0.023 0.738-0.050 1.48z"></path>
<path fill="#141414" style="fill: var(--color3, #141414)" d="M4.112 31.952h2.847l-0.008-0.026c-0.008-0.026-0.192-0.686-1.418-1.235l0.012-0.995h-1.364l-0.069 2.256zM6.908 31.909h-2.755l0.069-2.174h1.287l-0.012 0.982 0.012 0.004c1.076 0.485 1.348 1.059 1.398 1.188z"></path>
<path fill="#141414" style="fill: var(--color3, #141414)" d="M0.485 31.93h2.801c0 0-0.177-0.673-1.418-1.227l0.012-0.103 0.108-0.888h-1.325l-0.061 0.772-0.115 1.445z"></path>
<path fill="#141414" style="fill: var(--color3, #141414)" d="M0.462 31.951h2.851l-0.008-0.026c-0.008-0.026-0.192-0.686-1.418-1.235l0.119-0.999h-1.364l-0.181 2.26zM3.259 31.908h-2.755l0.173-2.174h1.287l-0.119 0.982 0.015 0.004c1.080 0.485 1.348 1.059 1.398 1.188z"></path>
<path fill="#141414" style="fill: var(--color3, #141414)" d="M17.028 31.93h2.801l-0.181-1.565-0.073-0.652h-1.325l0.157 0.802 0.038 0.36c-1.302 0.446-1.418 1.055-1.418 1.055z"></path>
<path fill="#141414" style="fill: var(--color3, #141414)" d="M17.005 31.951h2.847l-0.257-2.26h-1.368l0.165 0.828 0.035 0.339c-1.283 0.442-1.414 1.042-1.418 1.068l-0.004 0.026zM19.809 31.908h-2.755c0.042-0.12 0.277-0.63 1.398-1.012l0.015-0.004-0.038-0.377-0.154-0.776h1.283l0.25 2.17z"></path>
<path fill="#141414" style="fill: var(--color3, #141414)" d="M13.8 31.93h2.801l-0.069-1.54-0.031-0.678h-1.325l0.035 0.823 0.008 0.292c-1.241 0.558-1.418 1.102-1.418 1.102z"></path>
<path fill="#141414" style="fill: var(--color3, #141414)" d="M13.774 31.951h2.851l-0.104-2.26h-1.364l0.038 0.849 0.008 0.279c-1.226 0.549-1.41 1.085-1.418 1.106l-0.012 0.026zM16.582 31.908h-2.751c0.058-0.12 0.342-0.588 1.395-1.059l0.011-0.004-0.008-0.309-0.035-0.802h1.287l0.1 2.174z"></path>
<path fill="#ffac71" style="fill: var(--color7, #ffac71)" d="M6.336 1.205l-1.948-0.489-0.211 0.828c-0.054-0.043-0.108-0.069-0.158-0.069-0.231 0-0.277 0.309-0.277 0.309-0.065 0.335 0.131 0.54 0.219 0.686l-0.668 2.389 1.656 0.287 0.142-1.527c1.425 0.802 1.245-2.415 1.245-2.415z"></path>
<path fill="#141414" style="fill: var(--color3, #141414)" d="M4.968 5.164l0.142-1.518c0.28 0.15 0.522 0.159 0.715 0.017 0.638-0.472 0.538-2.38 0.534-2.462v-0.017l-1.982-0.498-0.207 0.815c-0.050-0.039-0.1-0.056-0.146-0.056-0.242 0-0.296 0.322-0.296 0.326-0.058 0.292 0.077 0.485 0.173 0.626 0.015 0.021 0.031 0.043 0.042 0.064l-0.672 2.402 1.698 0.3zM5.076 3.581l-0.142 1.535-1.614-0.283 0.665-2.372-0.004-0.009c-0.015-0.021-0.031-0.047-0.050-0.073-0.092-0.137-0.219-0.322-0.165-0.592 0.004-0.013 0.046-0.292 0.257-0.292 0.046 0 0.096 0.021 0.146 0.064l0.023 0.017 0.215-0.836 1.917 0.48c0.008 0.189 0.073 1.973-0.519 2.406-0.184 0.137-0.423 0.124-0.699-0.030l-0.031-0.017z"></path>
<path fill="#141414" style="fill: var(--color3, #141414)" d="M6.92 0.271c-0.088-0.021-0.311 0-0.446 0.124 0.008-0.017 0.015-0.034 0.023-0.051 0.2-0.669-0.642-0.172-1.087-0.073-0.092 0.021-0.296 0.051-0.296 0.051-1.333-0.339-1.199 1.179-1.199 1.179 0.35-0.056 0.453 0.476 0.453 0.476 0.357-0.189 0.469-0.459 0.48-0.575 0.346 0.176 1.233 0.51 1.967-0.081 0.503-0.407 0.327-1.004 0.104-1.051z"></path>
<path fill="#141414" style="fill: var(--color3, #141414)" d="M14.657 6.631c0 0 0.542-1.128 0.588-1.69l-0.227-1.235c0 0-0.027-1.184 1.368-0.896 0 0-0.008-0.558 0.323-0.69 0 0-0.161 0.313-0.104 0.622 0 0 0.269-0.686 0.776-0.326 0 0 0.392 0.24 0.288 0.678 0 0 0.008 0.498-0.603 0.506 0 0 0.008 0.622 1.356 1.467 0 0 1.122 0.6 1.030 1.908s-1.137 2.131-1.137 2.131l-3.842 0.004 0.184-2.479z"></path>
<path fill="#ffac71" style="fill: var(--color7, #ffac71)" d="M16.79 7.111l-0.165-2.157c0 0 0.288-0.189 0.215-0.558 0 0-0.069-0.296-0.334-0.069l-0.008-0.523c0 0-0.93 0.39-1.471-0.197 0 0-0.392 2.041 0.434 2.037l-0.177 1.715 1.506-0.249z"></path>
<path fill="#141414" style="fill: var(--color3, #141414)" d="M15.264 7.386l1.548-0.253-0.165-2.166c0.054-0.039 0.28-0.232 0.215-0.575 0-0.004-0.031-0.129-0.123-0.163-0.061-0.021-0.131-0.004-0.211 0.056l-0.008-0.51-0.027 0.009c-0.008 0.004-0.922 0.377-1.452-0.193l-0.023-0.026-0.008 0.039c-0.011 0.056-0.261 1.385 0.1 1.878 0.085 0.116 0.196 0.176 0.33 0.18l-0.177 1.724zM16.77 7.094l-1.46 0.24 0.177-1.711h-0.023c-0.135 0-0.242-0.056-0.323-0.167-0.315-0.433-0.134-1.583-0.096-1.806 0.496 0.497 1.287 0.24 1.441 0.184l0.008 0.536 0.031-0.026c0.081-0.069 0.15-0.094 0.204-0.073 0.073 0.026 0.1 0.133 0.1 0.133 0.069 0.352-0.196 0.527-0.207 0.536l-0.012 0.009v0.013l0.161 2.131z"></path>
<path fill="#141414" style="fill: var(--color3, #141414)" d="M4.181 30.454l1.337 0.094 0.012-0.836h-1.325l-0.023 0.742z"></path>
<path fill="#141414" style="fill: var(--color3, #141414)" d="M0.6 30.484l1.279 0.116 0.108-0.888h-1.325l-0.061 0.772z"></path>
<path fill="#7a3145" style="fill: var(--color8, #7a3145)" d="M2.51 12.455l0.054 0.326 0.327 2.011 0.845 5.172 0.050 1.707 0.257 8.552h2.236l0.25-10.207-0.353-5.691-0.119-1.87h-3.546z"></path>
<path fill="#141414" style="fill: var(--color3, #141414)" d="M4.023 30.244h2.274v-0.021l0.25-10.207-0.473-7.582h-3.588l1.229 7.535 0.307 10.276zM6.259 30.202h-2.201l-0.307-10.237-1.222-7.488h3.504l0.476 7.544-0.25 10.181z"></path>
<path fill="#141414" style="fill: var(--color3, #141414)" d="M18.249 29.712l0.161 0.802 1.241-0.15-0.077-0.652h-1.325z"></path>
<path fill="#141414" style="fill: var(--color3, #141414)" d="M15.176 29.712l0.035 0.828 1.322-0.15-0.031-0.678h-1.325z"></path>
<path fill="#7a3145" style="fill: var(--color8, #7a3145)" d="M0.235 30.266h2.259l1.291-8.595 0.288-1.926 0.492-4.966 0.196-1.999h-3.669l0.015 1.578 0.054 5.206-0.926 10.7z"></path>
<path fill="#141414" style="fill: var(--color3, #141414)" d="M0.216 30.287h2.297l0.004-0.017 1.579-10.52 0.692-6.991h-3.711l0.069 6.806-0.93 10.722zM2.479 30.244h-2.221l0.922-10.675-0.069-6.768h3.63l-0.688 6.939-1.575 10.503z"></path>
<path fill="#141414" style="fill: var(--color3, #141414)" d="M14.108 18.708l0.592 11.515h2.044l-0.069-7.299-0.042-4.164 0.296-3.86 0.115-1.54-1.713-0.030-0.968-0.021-0.081 1.728-0.173 3.671z"></path>
<path fill="#141414" style="fill: var(--color3, #141414)" d="M14.684 30.244h2.078v-0.021l-0.111-11.464 0.415-5.421-2.72-0.051-0.257 5.421 0.595 11.537zM16.724 30.202h-2.005l-0.592-11.494 0.254-5.378 2.643 0.051-0.411 5.378 0.111 11.442z"></path>
<path fill="#141414" style="fill: var(--color3, #141414)" d="M1.092 12.781l0.015 1.578c0.638 0.236 1.237 0.373 1.783 0.433 0.626 0.073 1.191 0.051 1.675-0.017 0.726-0.099 1.279-0.304 1.606-0.455l-0.115-1.87h-3.546l0.054 0.326h-1.471v0.004z"></path>
<path fill="#141414" style="fill: var(--color3, #141414)" d="M15.306 13.15l0.023 0.18 0.219 1.78 0.58 4.692 0.545 3.122 1.26 7.231 1.871 0.043-0.861-10.623-0.238-5.55-0.042-0.978-3.358 0.103z"></path>
<path fill="#141414" style="fill: var(--color3, #141414)" d="M19.828 30.219v-0.026l-0.86-10.623-0.284-6.549-3.396 0.103 0.822 6.682 1.809 10.37 1.909 0.043zM18.645 13.068l0.28 6.506 0.861 10.597-1.836-0.043-1.802-10.336-0.818-6.626 3.315-0.099z"></path>
<path fill="#7a3145" style="fill: var(--color8, #7a3145)" d="M14.523 6.939l-1.491 2.166-2.082 0.455v1.673l2.44-0.257c0.169-0.017 0.327-0.086 0.465-0.193l0.976-0.772-0.307-3.071z"></path>
<path fill="#141414" style="fill: var(--color3, #141414)" d="M10.931 11.258l2.463-0.262c0.169-0.017 0.334-0.086 0.476-0.197l0.987-0.781-0.315-3.135-1.518 2.2-2.090 0.459v1.716h-0.004zM14.815 10.002l-0.968 0.768c-0.134 0.107-0.292 0.172-0.457 0.189l-2.42 0.257v-1.634l2.075-0.455 0.004-0.004 1.464-2.123 0.303 3.002z"></path>
<path fill="#576f35" style="fill: var(--color2, #576f35)" d="M5.045 4.598c0 0-0.288 0.759-1.583-0.738l-2.221 0.914c-0.315 0.154-0.538 0.476-0.595 0.853l-0.35 2.204h1.214l-0.561 5.893c0 0 1.637 0.485 2.889 0.515 2.067 0.051 2.524-0.36 2.524-0.36l-0.092-2.093-0.015-4.76c0.023-0.678-0.231-1.188-0.592-1.737l-0.619-0.69z"></path>
<path fill="#141414" style="fill: var(--color3, #141414)" d="M4.185 14.265c1.756 0 2.171-0.356 2.186-0.369l0.008-0.009-0.092-2.106-0.015-4.76c0.023-0.665-0.223-1.184-0.595-1.75l-0.638-0.712-0.012 0.030c-0.004 0.004-0.058 0.137-0.219 0.172-0.211 0.043-0.611-0.082-1.333-0.918l-0.008-0.009-0.012 0.004-2.221 0.913c-0.323 0.159-0.549 0.485-0.607 0.871l-0.353 2.23h1.214l-0.561 5.888 0.015 0.004c0.015 0.004 1.652 0.485 2.893 0.519 0.119 0 0.238 0 0.35 0zM6.34 13.866c-0.069 0.051-0.611 0.399-2.505 0.352-1.168-0.030-2.693-0.463-2.866-0.51l0.561-5.901h-1.21l0.346-2.179c0.058-0.373 0.273-0.686 0.584-0.836l2.209-0.905c0.73 0.841 1.145 0.965 1.36 0.918 0.138-0.030 0.207-0.124 0.234-0.172l0.599 0.665c0.377 0.575 0.607 1.068 0.584 1.724l0.015 4.76 0.088 2.084z"></path>
<path fill="#141414" style="fill: var(--color3, #141414)" d="M6.37 6.811h6.128v5.327h-6.128v-5.327z"></path>
<path fill="#d4bfc4" style="fill: var(--color9, #d4bfc4)" d="M5.314 6.811h5.605v5.327h-5.605v-5.327z"></path>
<path fill="#141414" style="fill: var(--color3, #141414)" d="M5.295 12.159h5.644v-5.369h-5.644v5.369zM10.9 12.116h-5.567v-5.284h5.567v5.284z"></path>
<path fill="#141414" style="fill: var(--color3, #141414)" d="M7.235 6.811v1.33l0.35-0.214 0.269 0.202 0.323-0.202 0.3 0.214v-1.33h-1.241z"></path>
<path fill="#141414" style="fill: var(--color3, #141414)" d="M8.472 9.427h1.295v0.086h-1.295v-0.086z"></path>
<path fill="#141414" style="fill: var(--color3, #141414)" d="M8.472 9.989h1.295v0.086h-1.295v-0.086z"></path>
<path fill="#141414" style="fill: var(--color3, #141414)" d="M8.472 10.55h1.295v0.086h-1.295v-0.086z"></path>
<path fill="#fefefe" style="fill: var(--color4, #fefefe)" d="M6.006 9.311h2.094v1.458h-2.094v-1.458z"></path>
<path fill="#141414" style="fill: var(--color3, #141414)" d="M5.986 10.791h2.132v-1.501h-2.132v1.501zM8.080 10.748h-2.055v-1.415h2.055v1.415z"></path>
<path fill="#141414" style="fill: var(--color3, #141414)" d="M14.281 15.037c0.323 0.051 0.765 0.094 1.268 0.073 0.423-0.017 0.891-0.077 1.375-0.21 0.588-0.163 1.199-0.438 1.779-0.875l-0.042-0.978-3.354 0.103 0.023 0.18-0.968-0.017-0.081 1.724z"></path>
<path fill="#e78d4c" style="fill: var(--color10, #e78d4c)" d="M10.931 12.313c0.035 0.064 0.081 0.116 0.134 0.159s0.115 0.073 0.181 0.086l0.303 0.077c0.196 0.047 0.396 0.073 0.595 0.073h0.265c0.077 0 0.154-0.021 0.219-0.064l0.284-0.176 0.3-0.039 1.114-0.15v-0.956l-0.937 0.163-0.434 0.077-0.941-0.292c0 0-0.165 0.382 0.35 0.575l-0.499 0.274h-0.838c-0.088-0.009-0.146 0.107-0.096 0.193z"></path>
<path fill="#141414" style="fill: var(--color3, #141414)" d="M12.149 12.725h0.265c0.081 0 0.161-0.021 0.23-0.069l0.28-0.172 1.425-0.193v-0.999l-1.391 0.245-0.953-0.296-0.008 0.017c-0.004 0.004-0.061 0.142 0 0.296 0.046 0.124 0.154 0.223 0.319 0.292l-0.453 0.249h-0.834c-0.050 0-0.096 0.030-0.119 0.077s-0.023 0.107 0.004 0.154c0.038 0.064 0.085 0.12 0.138 0.163 0.058 0.043 0.119 0.073 0.184 0.090l0.304 0.077c0.204 0.047 0.403 0.069 0.607 0.069zM14.312 12.258l-1.402 0.189-0.284 0.176c-0.065 0.039-0.138 0.060-0.211 0.060h-0.265c-0.2 0-0.4-0.026-0.592-0.073l-0.303-0.077c-0.061-0.017-0.119-0.043-0.173-0.086-0.050-0.039-0.096-0.090-0.131-0.15-0.019-0.034-0.019-0.077-0.004-0.112s0.050-0.056 0.085-0.056h0.841l0.546-0.3-0.046-0.017c-0.177-0.064-0.292-0.163-0.338-0.283-0.042-0.107-0.019-0.206-0.004-0.245l0.93 0.287 1.352-0.236v0.922z"></path>
<path fill="#141414" style="fill: var(--color3, #141414)" d="M7.166 3.534h3.8v3.302h-3.8v-3.302z"></path>
<path fill="#576f35" style="fill: var(--color2, #576f35)" d="M6.513 3.534h3.473v3.302h-3.473v-3.302z"></path>
<path fill="#141414" style="fill: var(--color3, #141414)" d="M6.493 6.858h3.511v-3.345h-3.511v3.345zM9.966 6.815h-3.435v-3.259h3.435v3.259z"></path>
<path fill="#141414" style="fill: var(--color3, #141414)" d="M7.7 3.534v0.823l0.219-0.133 0.169 0.124 0.2-0.124 0.184 0.133v-0.823h-0.772z"></path>
<path fill="#141414" style="fill: var(--color3, #141414)" d="M8.468 5.139h0.803v0.086h-0.803v-0.086z"></path>
<path fill="#141414" style="fill: var(--color3, #141414)" d="M8.468 5.485h0.803v0.086h-0.803v-0.086z"></path>
<path fill="#141414" style="fill: var(--color3, #141414)" d="M8.468 5.837h0.803v0.086h-0.803v-0.086z"></path>
<path fill="#fefefe" style="fill: var(--color4, #fefefe)" d="M6.939 5.083h1.299v0.905h-1.299v-0.905z"></path>
<path fill="#141414" style="fill: var(--color3, #141414)" d="M6.92 6.009h1.337v-0.948h-1.337v0.948zM8.218 5.966h-1.26v-0.862h1.26v0.862z"></path>
<path fill="#141414" style="fill: var(--color3, #141414)" d="M13.217 12.425l1.114-0.15v-0.956l-0.937 0.163-0.177 0.944z"></path>
<path fill="#7a3145" style="fill: var(--color8, #7a3145)" d="M13.555 11.387l0.703-0.15 0.115-3.851c0.008-0.244 0.108-0.476 0.277-0.635l0.718-0.669c0 0 0.138 0.982 1.479 0l1.241 0.497c0.35 0.142 0.615 0.472 0.699 0.875l0.784 4.25c0.073 0.395-0.188 0.768-0.549 0.781l-0.373 0.013 0.181 1.355c0 0-1.279 0.613-2.593 0.703-1.514 0.107-2.009-0.296-1.99-0.352l0.077-1.441-0.768 0.034v-1.411z"></path>
<path fill="#141414" style="fill: var(--color3, #141414)" d="M15.745 14.603c0.15 0 0.315-0.004 0.492-0.017 1.302-0.090 2.586-0.699 2.601-0.708l0.015-0.009-0.004-0.017-0.177-1.329 0.353-0.013c0.177-0.009 0.342-0.099 0.453-0.257 0.111-0.154 0.154-0.356 0.115-0.549l-0.784-4.25c-0.088-0.416-0.353-0.746-0.715-0.892l-1.249-0.502-0.008 0.004c-0.519 0.382-0.93 0.515-1.191 0.386-0.219-0.107-0.257-0.369-0.257-0.369l-0.004-0.039-0.741 0.695c-0.173 0.163-0.277 0.399-0.284 0.652l-0.115 3.834-0.703 0.15v1.458l0.768-0.034-0.077 1.415c-0.004 0.013 0 0.021 0.008 0.034 0.046 0.082 0.449 0.356 1.502 0.356zM18.806 13.844c-0.142 0.064-1.348 0.609-2.574 0.695-1.448 0.103-1.944-0.266-1.967-0.326v-0.004l0.077-1.467-0.772 0.034v-1.377l0.703-0.15 0.115-3.868c0.008-0.24 0.108-0.463 0.269-0.618l0.691-0.648c0.019 0.081 0.085 0.274 0.273 0.365 0.277 0.137 0.684 0.009 1.222-0.382l1.233 0.493c0.346 0.137 0.603 0.459 0.688 0.862l0.784 4.25c0.035 0.18-0.008 0.369-0.108 0.515-0.104 0.146-0.257 0.232-0.423 0.24l-0.396 0.013 0.184 1.372z"></path>
<path fill="#141414" style="fill: var(--color3, #141414)" d="M18.646 12.473l0.002 0.043-4.357 0.279-0.002-0.043 4.357-0.279z"></path>
<path fill="#141414" style="fill: var(--color3, #141414)" d="M14.242 11.258l3.315-0.763-0.3-1.844-0.038 0.009 0.296 1.801-3.281 0.759 0.008 0.039z"></path>
<path fill="#ffac71" style="fill: var(--color7, #ffac71)" d="M0.116 10.542c-0.035 0.433 0.207 0.836 0.58 0.965l3.926 1.364 0.373 0.146c0.142 0.056 0.296 0.073 0.446 0.051l0.753-0.103c0.046-0.009 0.096-0.021 0.138-0.039l0.88-0.36c0.111-0.047 0.211-0.133 0.277-0.245l0.012-0.021c0.046-0.077-0.004-0.18-0.088-0.18h-1.414c0.411-0.292 0.38-0.549 0.38-0.549l-0.868 0.133-0.634 0.086-2.993-1.63 0.346-1.926 0.069-0.39h-1.99l-0.019 0.227-0.173 2.47z"></path>
<path fill="#141414" style="fill: var(--color3, #141414)" d="M5.322 13.098c0.042 0 0.085-0.004 0.123-0.009l0.753-0.103c0.050-0.009 0.1-0.021 0.142-0.039l0.88-0.36c0.119-0.047 0.215-0.133 0.284-0.253l0.012-0.021c0.027-0.043 0.027-0.099 0.004-0.142-0.023-0.047-0.061-0.073-0.111-0.073h-1.348c0.361-0.279 0.338-0.519 0.334-0.532l-0.004-0.021-0.887 0.133-0.63 0.082-2.974-1.617 0.419-2.329h-2.028l-0.207 2.723c-0.035 0.446 0.211 0.853 0.595 0.986l3.926 1.364 0.373 0.146c0.119 0.043 0.234 0.064 0.346 0.064zM7.419 12.142c0.031 0 0.061 0.017 0.077 0.051 0.015 0.030 0.015 0.069-0.004 0.099l-0.012 0.021c-0.065 0.107-0.157 0.189-0.265 0.236l-0.88 0.36c-0.042 0.017-0.088 0.030-0.134 0.039l-0.753 0.103c-0.146 0.021-0.3 0.004-0.438-0.051l-0.373-0.146-3.926-1.364c-0.365-0.129-0.599-0.515-0.569-0.943l0.204-2.685h1.948l-0.415 2.307 0.012 0.009 2.997 1.63 0.642-0.086 0.845-0.129c-0.004 0.064-0.046 0.274-0.373 0.506l-0.054 0.039h1.471v0.004z"></path>
<path fill="#141414" style="fill: var(--color3, #141414)" d="M2.482 6.915l0.037 0.010-0.212 0.989-0.037-0.010 0.212-0.989z"></path>
<path fill="#141414" style="fill: var(--color3, #141414)" d="M0.304 8.063l1.932 0.167 0.073-0.395h-1.99l-0.015 0.227z"></path>
</symbol>
<symbol id="icon-romb-2-deck" viewBox="0 0 30 32">
<path d="M29.035 16.443c-3.668 0-7.185 1.627-9.778 4.523s-4.050 6.823-4.050 10.919c0-4.095-1.457-8.023-4.050-10.919s-6.111-4.523-9.778-4.523c3.668 0 7.185-1.627 9.778-4.523s4.050-6.824 4.050-10.919c0 4.095 1.457 8.023 4.050 10.919s6.111 4.523 9.778 4.523z"></path>
</symbol>
<symbol id="icon-romb-3-deck-2" viewBox="0 0 29 32">
<path d="M27.878 16.429c-1.749-0.001-3.48 0.383-5.096 1.13s-3.084 1.841-4.32 3.221c-1.237 1.38-2.218 3.019-2.888 4.822s-1.015 3.737-1.015 5.689c0-3.943-1.403-7.725-3.9-10.513s-5.883-4.355-9.415-4.355c3.531 0 6.918-1.566 9.415-4.355s3.9-6.57 3.9-10.513c0 3.943 1.403 7.725 3.9 10.513s5.883 4.355 9.415 4.355l0.005 0.005z"></path>
</symbol>
<symbol id="icon-romb-deck" viewBox="0 0 30 32">
<path d="M29.139 16.223c-1.846-0.001-3.673 0.405-5.378 1.193s-3.255 1.943-4.56 3.4c-1.306 1.457-2.341 3.186-3.048 5.090s-1.071 3.944-1.072 6.005c0-4.162-1.481-8.154-4.116-11.097s-6.21-4.597-9.938-4.597c3.727 0 7.302-1.653 9.938-4.596s4.116-6.935 4.116-11.097c0 4.162 1.481 8.154 4.116 11.097s6.21 4.596 9.938 4.596l0.005 0.005z"></path>
</symbol>
<symbol id="icon-ball" viewBox="0 0 32 32">
<path fill="#576f35" style="fill: var(--color2, #576f35)" d="M15.589 32.008c6.792 0 12.297-6.206 12.297-13.861s-5.506-13.861-12.297-13.861c-6.792 0-12.297 6.206-12.297 13.861s5.506 13.861 12.297 13.861z"></path>
</symbol>
<symbol id="icon-ball-4" viewBox="0 0 28 32">
<path fill="#576f35" style="fill: var(--color2, #576f35)" d="M13.615 28.54c6.789 0 12.292-6.203 12.292-13.855s-5.503-13.855-12.292-13.855c-6.789 0-12.292 6.203-12.292 13.855s5.503 13.855 12.292 13.855z"></path>
</symbol>
<symbol id="icon-ball-t" viewBox="0 0 23 32">
<path fill="#a1c487" style="fill: var(--color1, #a1c487)" d="M11.835 28.070c5.821 0 10.541-5.319 10.541-11.881s-4.719-11.881-10.541-11.881-10.541 5.319-10.541 11.881c0 6.562 4.719 11.881 10.541 11.881z"></path>
</symbol>
<symbol id="icon-ball-tt" viewBox="0 0 29 32">
<path fill="#576f35" style="fill: var(--color2, #576f35)" d="M14.415 30.49c7.097 0 12.85-6.485 12.85-14.484s-5.753-14.484-12.85-14.484c-7.097 0-12.85 6.485-12.85 14.484s5.753 14.484 12.85 14.484z"></path>
</symbol>
<symbol id="icon-ball-ttt" viewBox="0 0 28 32">
<path fill="#576f35" style="fill: var(--color2, #576f35)" d="M13.12 29.95c6.789 0 12.292-6.203 12.292-13.855s-5.503-13.855-12.292-13.855-12.292 6.203-12.292 13.855c0 7.652 5.503 13.855 12.292 13.855z"></path>
</symbol>
<symbol id="icon-ckuter-t" viewBox="0 0 84 32">
<path fill="#141414" style="fill: var(--color3, #141414)" d="M2.854 4.006h9.951v8.729h-9.951v-8.729z"></path>
<path fill="#576f35" style="fill: var(--color2, #576f35)" d="M1.139 4.006h9.103v8.729h-9.103v-8.729z"></path>
<path fill="#141414" style="fill: var(--color3, #141414)" d="M1.114 12.769h9.165v-8.799h-9.165v8.799zM10.211 12.699h-9.041v-8.659h9.041v8.659z"></path>
<path fill="#141414" style="fill: var(--color3, #141414)" d="M4.26 4.006v2.177l0.57-0.356 0.44 0.335 0.526-0.335 0.483 0.356v-2.177h-2.019z"></path>
<path fill="#141414" style="fill: var(--color3, #141414)" d="M6.279 8.29h2.099v0.14h-2.099v-0.14z"></path>
<path fill="#141414" style="fill: var(--color3, #141414)" d="M6.279 9.211h2.099v0.14h-2.099v-0.14z"></path>
<path fill="#141414" style="fill: var(--color3, #141414)" d="M6.279 10.133h2.099v0.14h-2.099v-0.14z"></path>
<path fill="#fefefe" style="fill: var(--color4, #fefefe)" d="M2.266 8.102h3.4v2.393h-3.4v-2.393z"></path>
<path fill="#141414" style="fill: var(--color3, #141414)" d="M2.235 10.523h3.462v-2.463h-3.462v2.463zM5.634 10.453h-3.338v-2.324h3.338v2.324z"></path>
<path fill="#f27b79" style="fill: var(--color5, #f27b79)" d="M12.533 14.333h-2.656c-0.124 0-0.248 0.063-0.322 0.174l-1.344 1.905c-0.217 0.307-0.025 0.754 0.322 0.754h4v-2.833z"></path>
<path fill="#141414" style="fill: var(--color3, #141414)" d="M8.533 17.2h4.031v-2.903h-2.687c-0.136 0-0.266 0.070-0.347 0.188l-1.344 1.905c-0.105 0.153-0.13 0.356-0.050 0.53 0.068 0.168 0.223 0.279 0.396 0.279zM12.502 17.131h-3.969c-0.149 0-0.279-0.091-0.347-0.244-0.062-0.154-0.050-0.328 0.043-0.454l1.344-1.905c0.074-0.105 0.18-0.161 0.297-0.161h2.626v2.763h0.006z"></path>
<path fill="#141414" style="fill: var(--color3, #141414)" d="M39.6 2.359c0 0.258-0.186 0.461-0.409 0.461h-1.338c-0.229 0-0.409-0.209-0.409-0.461 0-0.258 0.186-0.461 0.409-0.461h1.338c0.223-0.007 0.409 0.202 0.409 0.461z"></path>
<path fill="#141414" style="fill: var(--color3, #141414)" d="M34.553 2.904h1.647v2.631h-1.647v-2.631z"></path>
<path fill="#576f35" style="fill: var(--color2, #576f35)" d="M38.794 22.412v-15.378c0-1.305-0.941-2.365-2.099-2.365h-6.068c-1.158 0-2.099 1.061-2.099 2.365v14.164c0 1.2-0.861 2.17-1.926 2.17h-1.703c-1.065 0-1.926-0.97-1.926-2.17v-6.189c0 0 0.043-1.87 1.065-2.142h-10.49c0 0-4.359 4.005-5.276 10.459v0.712h30.522v-1.626z"></path>
<path fill="#141414" style="fill: var(--color3, #141414)" d="M8.242 24.073h30.584v-17.039c0-1.326-0.954-2.4-2.13-2.4h-6.068c-1.176 0-2.13 1.075-2.13 2.4v14.164c0 1.179-0.848 2.135-1.895 2.135h-1.703c-1.047 0-1.895-0.956-1.895-2.135v-6.189c0-0.021 0.050-1.842 1.047-2.107l0.26-0.070-10.775 0.007c-0.012 0.007-1.108 1.026-2.297 2.812-1.102 1.654-2.514 4.326-2.985 7.668l-0.012 0.754zM38.763 24.003h-30.46v-0.677c0.471-3.321 1.876-5.987 2.972-7.626 1.133-1.703 2.18-2.7 2.285-2.798h10.291c-0.861 0.426-0.904 2.030-0.91 2.107v6.189c0 1.214 0.879 2.205 1.957 2.205h1.703c1.077 0 1.957-0.991 1.957-2.205v-14.164c0-1.284 0.929-2.33 2.068-2.33h6.068c1.139 0 2.068 1.047 2.068 2.33v16.969z"></path>
<path fill="#141414" style="fill: var(--color3, #141414)" d="M34.658 4.662h0.743v15.462h-0.743v-15.462z"></path>
<path fill="#141414" style="fill: var(--color3, #141414)" d="M-0 12.491h14.168v0.795h-14.168v-0.795z"></path>
<path fill="#141414" style="fill: var(--color3, #141414)" d="M15.92 24.081h9.846v2.282h-9.846v-2.282z"></path>
<path fill="#141414" style="fill: var(--color3, #141414)" d="M12.372 30.856c-2.476 0-4.483-2.571-4.483-5.742s2.007-5.743 4.483-5.743 4.483 2.571 4.483 5.743c0 3.171-2.007 5.742-4.483 5.742z"></path>
<path fill="#fefefe" style="fill: var(--color4, #fefefe)" d="M11.617 28.595c-1.611 0-2.917-1.674-2.917-3.74s1.306-3.74 2.917-3.74 2.917 1.675 2.917 3.74c0 2.065-1.306 3.74-2.917 3.74z"></path>
<path fill="#141414" style="fill: var(--color3, #141414)" d="M11.617 28.63c1.629 0 2.948-1.696 2.948-3.775s-1.325-3.775-2.948-3.775-2.948 1.696-2.948 3.775c0 2.079 1.319 3.775 2.948 3.775zM11.617 21.15c1.591 0 2.886 1.661 2.886 3.705s-1.294 3.705-2.886 3.705c-1.591 0-2.886-1.661-2.886-3.705s1.294-3.705 2.886-3.705z"></path>
<path fill="#141414" style="fill: var(--color3, #141414)" d="M13.159 24.875c0 0.83-0.347 1.57-1.455 1.57-0.65 0-0.892-0.74-0.892-1.57s0.248-1.507 0.892-1.507c1.108 0 1.455 0.67 1.455 1.507z"></path>
<path fill="#fefefe" style="fill: var(--color4, #fefefe)" d="M11.629 26.383c-0.65 0-1.177-0.675-1.177-1.507s0.527-1.507 1.177-1.507c0.65 0 1.177 0.675 1.177 1.507s-0.527 1.507-1.177 1.507z"></path>
<path fill="#141414" style="fill: var(--color3, #141414)" d="M11.629 26.411c0.663 0 1.207-0.691 1.207-1.542s-0.539-1.542-1.207-1.542c-0.669 0-1.207 0.691-1.207 1.542s0.545 1.542 1.207 1.542zM11.629 23.403c0.632 0 1.146 0.663 1.146 1.472s-0.514 1.472-1.146 1.472c-0.632 0-1.146-0.663-1.146-1.472s0.514-1.472 1.146-1.472z"></path>
<path fill="#141414" style="fill: var(--color3, #141414)" d="M37.63 30.856c-2.476 0-4.483-2.571-4.483-5.742s2.007-5.743 4.483-5.743c2.476 0 4.483 2.571 4.483 5.743s-2.007 5.742-4.483 5.742z"></path>
<path fill="#fefefe" style="fill: var(--color4, #fefefe)" d="M36.875 28.595c-1.611 0-2.917-1.674-2.917-3.74s1.306-3.74 2.917-3.74c1.611 0 2.917 1.675 2.917 3.74s-1.306 3.74-2.917 3.74z"></path>
<path fill="#141414" style="fill: var(--color3, #141414)" d="M36.875 28.63c1.629 0 2.947-1.696 2.947-3.775s-1.325-3.775-2.947-3.775c-1.622 0-2.948 1.696-2.948 3.775s1.319 3.775 2.948 3.775zM36.875 21.15c1.591 0 2.886 1.661 2.886 3.705s-1.294 3.705-2.886 3.705c-1.592 0-2.886-1.661-2.886-3.705s1.294-3.705 2.886-3.705z"></path>
<path fill="#141414" style="fill: var(--color3, #141414)" d="M38.417 24.875c0 0.83-0.347 1.507-1.455 1.507-0.65 0-0.892-0.677-0.892-1.507s0.248-1.507 0.892-1.507c1.109 0 1.455 0.67 1.455 1.507z"></path>
<path fill="#fefefe" style="fill: var(--color4, #fefefe)" d="M36.887 26.383c-0.65 0-1.177-0.675-1.177-1.507s0.527-1.507 1.177-1.507c0.65 0 1.176 0.675 1.176 1.507s-0.527 1.507-1.176 1.507z"></path>
<path fill="#141414" style="fill: var(--color3, #141414)" d="M36.887 26.411c0.663 0 1.208-0.691 1.208-1.542s-0.539-1.542-1.208-1.542c-0.669 0-1.208 0.691-1.208 1.542s0.545 1.542 1.208 1.542zM36.887 23.403c0.632 0 1.146 0.663 1.146 1.472s-0.514 1.472-1.146 1.472c-0.632 0-1.146-0.663-1.146-1.472s0.52-1.472 1.146-1.472z"></path>
<path fill="#141414" style="fill: var(--color3, #141414)" d="M4.13 23.348h0.57c0.074-0.663 0.576-1.172 1.183-1.172h12.657v2.694h-12.657c-0.576 0-1.059-0.461-1.17-1.075h-0.582v-0.447z"></path>
<path fill="#576f35" style="fill: var(--color2, #576f35)" d="M6.378 24.038c0 0-0.786-7.103 6.576-9.036 2.656-0.698 8.756-1.151 7.387 9.036h-13.964z"></path>
<path fill="#141414" style="fill: var(--color3, #141414)" d="M6.347 24.073h14.013l0.006-0.028c0.508-3.789 0.031-6.482-1.418-7.989-1.771-1.849-4.527-1.472-6.006-1.082-1.684 0.44-3.078 1.193-4.149 2.233-0.855 0.83-1.505 1.849-1.926 3.028-0.718 2.003-0.533 3.789-0.526 3.81l0.006 0.028zM20.31 24.003h-13.908c-0.019-0.244-0.136-1.905 0.526-3.747 0.656-1.828 2.235-4.221 6.025-5.219 1.468-0.384 4.198-0.761 5.951 1.068 1.437 1.493 1.907 4.152 1.406 7.898z"></path>
<path fill="#141414" style="fill: var(--color3, #141414)" d="M23.344 13.286h-9.233c-0.96 0-1.74-0.879-1.74-1.961 0-1.144 0.867-2.044 1.876-1.954l9.202 0.823c0.712 0.063 1.263 0.733 1.263 1.542 0 0.851-0.613 1.549-1.368 1.549z"></path>
<path fill="#576f35" style="fill: var(--color2, #576f35)" d="M32.806 23.25h10.552c0 0-0.173-1.751-1.22-3.342-2.291-3.454-7.053-2.979-8.737 0.886-0.303 0.684-0.514 1.493-0.594 2.456z"></path>
<path fill="#141414" style="fill: var(--color3, #141414)" d="M32.769 23.285h10.62l-0.006-0.042c0-0.021-0.186-1.779-1.226-3.356-1.084-1.64-2.818-2.505-4.638-2.317-1.808 0.188-3.356 1.389-4.155 3.21-0.316 0.733-0.52 1.556-0.594 2.463v0.042zM43.321 23.215h-10.477c0.074-0.879 0.272-1.689 0.582-2.4 0.786-1.8 2.316-2.986 4.105-3.168 1.796-0.188 3.511 0.67 4.582 2.289 0.941 1.43 1.17 3.014 1.208 3.28z"></path>
<path fill="#141414" style="fill: var(--color3, #141414)" d="M6.304 24.499h27.141v-0.921h9.901v-0.837h-9.92c-0.403 0-0.725 0.37-0.725 0.816v0.105h-26.398v0.837z"></path>
<path fill="#141414" style="fill: var(--color3, #141414)" d="M25.345 29.013h1.814v-0.837h-1.56l-3.493-3-0.446 0.663 3.684 3.175z"></path>
<path fill="#576f35" style="fill: var(--color2, #576f35)" d="M34.497 3.776h2.26c0.136 0 0.272-0.021 0.396-0.056 0.718-0.202 1.251-0.935 1.251-1.807 0-0.516-0.186-0.977-0.483-1.312-0.211-0.237-0.471-0.405-0.768-0.488-0.13-0.035-0.26-0.056-0.402-0.056h-0.328c-1.133 0-2.217 0.635-2.805 1.73-0.031 0.056-0.062 0.119-0.093 0.181-0.378 0.823 0.149 1.807 0.972 1.807z"></path>
<path fill="#141414" style="fill: var(--color3, #141414)" d="M34.497 3.811h2.26c0.136 0 0.272-0.021 0.409-0.056 0.749-0.209 1.276-0.963 1.276-1.842 0-0.509-0.173-0.984-0.495-1.34-0.217-0.244-0.489-0.419-0.78-0.502-0.136-0.035-0.272-0.056-0.409-0.056h-0.328c-1.164 0-2.248 0.67-2.83 1.751-0.031 0.063-0.062 0.119-0.093 0.181-0.186 0.391-0.18 0.858 0.025 1.242 0.211 0.391 0.57 0.621 0.966 0.621zM36.757 0.092c0.13 0 0.266 0.021 0.39 0.056 0.285 0.077 0.545 0.244 0.755 0.481 0.304 0.342 0.477 0.802 0.477 1.291 0 0.844-0.508 1.57-1.226 1.772-0.13 0.035-0.26 0.056-0.39 0.056h-2.26c-0.378 0-0.718-0.216-0.91-0.586-0.192-0.363-0.204-0.802-0.025-1.172 0.031-0.063 0.062-0.119 0.093-0.181 0.57-1.061 1.635-1.716 2.774-1.716h0.322z"></path>
<path fill="#141414" style="fill: var(--color3, #141414)" d="M36.020 1.921c0 0.74 0.285 1.402 0.737 1.863h0.006c0.91 0 1.653-0.83 1.653-1.863 0-0.516-0.186-0.977-0.483-1.312s-0.712-0.544-1.164-0.544h-0.006c-0.464 0.454-0.743 1.116-0.743 1.856z"></path>
<path fill="#fefefe" style="fill: var(--color4, #fefefe)" d="M36.472 1.92c0 0.712 0.26 1.347 0.681 1.807 0.718-0.202 1.251-0.935 1.251-1.807 0-0.516-0.186-0.977-0.483-1.312-0.211-0.237-0.471-0.405-0.768-0.488-0.421 0.447-0.681 1.089-0.681 1.8z"></path>
<path fill="#141414" style="fill: var(--color3, #141414)" d="M37.148 3.763l0.019-0.007c0.749-0.209 1.276-0.963 1.276-1.842 0-0.509-0.173-0.984-0.495-1.34-0.217-0.244-0.489-0.419-0.78-0.502l-0.019-0.007-0.012 0.014c-0.446 0.481-0.694 1.13-0.694 1.828s0.248 1.347 0.694 1.828l0.012 0.028zM37.166 0.155c0.279 0.084 0.533 0.244 0.737 0.474 0.304 0.342 0.477 0.802 0.477 1.291 0 0.837-0.495 1.556-1.214 1.765-0.427-0.468-0.663-1.095-0.663-1.765 0-0.677 0.235-1.298 0.663-1.765z"></path>
<path fill="#a1c487" style="fill: var(--color1, #a1c487)" d="M32.274 2.080h1.22v0.565h-1.22v-0.565z"></path>
<path fill="#141414" style="fill: var(--color3, #141414)" d="M32.249 2.687h1.282v-0.635h-1.282v0.635zM33.463 2.617h-1.158v-0.495h1.158v0.495z"></path>
<path fill="#141414" style="fill: var(--color3, #141414)" d="M33.952 1.892h-0.489c-0.229 0-0.409 0.209-0.409 0.461 0 0.258 0.186 0.461 0.409 0.461h0.489c0.229 0 0.409-0.209 0.409-0.461s-0.18-0.461-0.409-0.461z"></path>
<path fill="#141414" style="fill: var(--color3, #141414)" d="M32.509 2.359c0 0.258-0.186 0.461-0.409 0.461h-1.338c-0.229 0-0.409-0.209-0.409-0.461 0-0.258 0.186-0.461 0.409-0.461h1.338c0.223-0.007 0.409 0.202 0.409 0.461z"></path>
<path fill="#fff" style="fill: var(--color6, #fff)" d="M10.409 22.252h6.044v0.391h-6.044v-0.391z"></path>
<path fill="#141414" style="fill: var(--color3, #141414)" d="M10.378 22.678h6.106v-0.461h-6.106v0.461zM16.422 22.609h-5.982v-0.321h5.982v0.321z"></path>
<path fill="#fff" style="fill: var(--color6, #fff)" d="M10.409 21.22h6.044v0.391h-6.044v-0.391z"></path>
<path fill="#141414" style="fill: var(--color3, #141414)" d="M10.378 21.645h6.106v-0.461h-6.106v0.461zM16.422 21.575h-5.982v-0.321h5.982v0.321z"></path>
<path fill="#fff" style="fill: var(--color6, #fff)" d="M10.409 20.193h6.044v0.391h-6.044v-0.391z"></path>
<path fill="#141414" style="fill: var(--color3, #141414)" d="M10.378 20.62h6.106v-0.461h-6.106v0.461zM16.422 20.55h-5.982v-0.321h5.982v0.321z"></path>
<path fill="#141414" style="fill: var(--color3, #141414)" d="M19.611 29.006h12.694v0.14h-12.694v-0.14z"></path>
<path fill="#141414" style="fill: var(--color3, #141414)" d="M44.337 31.892h39.741v0.108h-39.741v-0.108z"></path>
</symbol>
<symbol id="icon-cloud-t" viewBox="0 0 50 32">
<path fill="#fff" style="fill: var(--color6, #fff)" stroke-linejoin="miter" stroke-linecap="butt" stroke-miterlimit="4" stroke-width="0.9697" stroke="#000" d="M40.843 13.586h0.009l0.009-0c1.049-0.037 2.095 0.163 3.077 0.591s1.882 1.076 2.645 1.909c0.763 0.833 1.372 1.834 1.789 2.944s0.632 2.305 0.632 3.513c0 1.208-0.215 2.403-0.632 3.513s-1.026 2.11-1.789 2.943c-0.763 0.833-1.663 1.481-2.645 1.909s-2.028 0.629-3.077 0.591l-0.009-0h-34.166c-0.971 0.006-1.933-0.248-2.805-0.747s-1.633-1.23-2.213-2.135c-0.581-0.906-0.963-1.959-1.112-3.072s-0.060-2.249 0.259-3.314c0.319-1.064 0.857-2.023 1.566-2.797s1.566-1.341 2.499-1.659c0.932-0.318 1.917-0.38 2.873-0.182s1.863 0.652 2.641 1.329l0.963 0.837-0.164-1.265c-0.514-3.978 0.382-8.020 2.486-11.249 2.103-3.228 5.237-5.378 8.713-6.008 3.474-0.63 7.036 0.303 9.918 2.615 2.885 2.313 4.858 5.825 5.477 9.783l0.091 0.583 0.554-0.202c0.78-0.285 1.593-0.429 2.41-0.43z"></path>
</symbol>
<symbol id="icon-Man_and_couriers--t" viewBox="0 0 20 32">
<path fill="#141414" style="fill: var(--color3, #141414)" d="M4.078 31.93h2.775c0 0-0.175-0.673-1.404-1.227l0.004-0.154 0.011-0.836h-1.313l-0.023 0.738-0.050 1.48z"></path>
<path fill="#141414" style="fill: var(--color3, #141414)" d="M4.055 31.951h2.82l-0.008-0.026c-0.008-0.026-0.19-0.686-1.404-1.235l0.011-0.995h-1.351l-0.069 2.256zM6.826 31.909h-2.729l0.069-2.174h1.275l-0.011 0.982 0.011 0.004c1.066 0.485 1.336 1.059 1.385 1.188z"></path>
<path fill="#141414" style="fill: var(--color3, #141414)" d="M0.462 31.93h2.775c0 0-0.175-0.673-1.404-1.227l0.011-0.103 0.107-0.888h-1.313l-0.061 0.772-0.114 1.445z"></path>
<path fill="#141414" style="fill: var(--color3, #141414)" d="M0.44 31.951h2.824l-0.008-0.026c-0.008-0.026-0.19-0.686-1.404-1.235l0.118-0.999h-1.351l-0.179 2.26zM3.21 31.908h-2.729l0.171-2.174h1.275l-0.118 0.982 0.015 0.004c1.070 0.485 1.336 1.059 1.385 1.188z"></path>
<path fill="#141414" style="fill: var(--color3, #141414)" d="M16.851 31.93h2.775l-0.179-1.565-0.072-0.652h-1.313l0.156 0.802 0.038 0.36c-1.29 0.446-1.404 1.055-1.404 1.055z"></path>
<path fill="#141414" style="fill: var(--color3, #141414)" d="M16.828 31.951h2.82l-0.255-2.26h-1.355l0.164 0.828 0.034 0.339c-1.271 0.442-1.401 1.042-1.404 1.068l-0.004 0.026zM19.607 31.908h-2.729c0.042-0.12 0.274-0.63 1.385-1.012l0.015-0.004-0.038-0.377-0.152-0.776h1.271l0.247 2.17z"></path>
<path fill="#141414" style="fill: var(--color3, #141414)" d="M13.654 31.93h2.775l-0.069-1.54-0.030-0.678h-1.313l0.034 0.823 0.008 0.292c-1.229 0.557-1.405 1.102-1.405 1.102z"></path>
<path fill="#141414" style="fill: var(--color3, #141414)" d="M13.627 31.951h2.824l-0.103-2.26h-1.351l0.038 0.849 0.008 0.279c-1.214 0.549-1.397 1.085-1.404 1.106l-0.011 0.026zM16.41 31.908h-2.725c0.057-0.12 0.339-0.587 1.382-1.059l0.011-0.004-0.008-0.309-0.034-0.802h1.275l0.099 2.174z"></path>
<path fill="#ffac71" style="fill: var(--color7, #ffac71)" d="M6.259 1.205l-1.93-0.489-0.209 0.828c-0.053-0.043-0.107-0.069-0.156-0.069-0.228 0-0.274 0.309-0.274 0.309-0.065 0.335 0.129 0.54 0.217 0.686l-0.662 2.389 1.64 0.287 0.141-1.527c1.412 0.802 1.233-2.415 1.233-2.415z"></path>
<path fill="#141414" style="fill: var(--color3, #141414)" d="M4.904 5.164l0.141-1.518c0.278 0.15 0.518 0.159 0.708 0.017 0.632-0.472 0.533-2.38 0.529-2.462v-0.017l-1.964-0.498-0.206 0.815c-0.049-0.039-0.099-0.056-0.145-0.056-0.24 0-0.293 0.322-0.293 0.326-0.057 0.292 0.076 0.485 0.171 0.626 0.015 0.021 0.030 0.043 0.042 0.064l-0.666 2.402 1.682 0.3zM5.011 3.581l-0.141 1.535-1.599-0.283 0.658-2.372-0.004-0.009c-0.015-0.021-0.030-0.047-0.049-0.073-0.091-0.137-0.217-0.322-0.164-0.592 0.004-0.013 0.046-0.292 0.255-0.292 0.046 0 0.095 0.021 0.145 0.064l0.023 0.017 0.213-0.836 1.899 0.48c0.008 0.189 0.072 1.973-0.514 2.406-0.183 0.137-0.419 0.124-0.693-0.030l-0.030-0.017z"></path>
<path fill="#141414" style="fill: var(--color3, #141414)" d="M6.838 0.27c-0.088-0.021-0.308 0-0.442 0.124 0.008-0.017 0.015-0.034 0.023-0.051 0.198-0.669-0.636-0.172-1.077-0.073-0.091 0.021-0.293 0.051-0.293 0.051-1.321-0.339-1.187 1.179-1.187 1.179 0.346-0.056 0.449 0.476 0.449 0.476 0.354-0.189 0.464-0.459 0.476-0.575 0.343 0.176 1.222 0.51 1.949-0.081 0.499-0.407 0.324-1.004 0.103-1.051z"></path>
<path fill="#141414" style="fill: var(--color3, #141414)" d="M14.503 6.631c0 0 0.537-1.128 0.582-1.69l-0.225-1.235c0 0-0.027-1.184 1.355-0.896 0 0-0.008-0.558 0.32-0.69 0 0-0.16 0.313-0.103 0.622 0 0 0.266-0.686 0.769-0.326 0 0 0.388 0.24 0.285 0.678 0 0 0.008 0.497-0.598 0.506 0 0 0.008 0.622 1.344 1.467 0 0 1.111 0.6 1.020 1.908s-1.127 2.131-1.127 2.131l-3.806 0.004 0.183-2.479z"></path>
<path fill="#ffac71" style="fill: var(--color7, #ffac71)" d="M16.615 7.111l-0.164-2.157c0 0 0.285-0.189 0.213-0.558 0 0-0.069-0.296-0.331-0.069l-0.008-0.523c0 0-0.921 0.39-1.458-0.197 0 0-0.388 2.041 0.43 2.037l-0.175 1.715 1.492-0.249z"></path>
<path fill="#141414" style="fill: var(--color3, #141414)" d="M15.104 7.386l1.534-0.253-0.164-2.166c0.053-0.039 0.278-0.232 0.213-0.575 0-0.004-0.030-0.129-0.122-0.163-0.061-0.021-0.129-0.004-0.209 0.056l-0.008-0.51-0.027 0.009c-0.008 0.004-0.913 0.377-1.439-0.193l-0.023-0.026-0.008 0.039c-0.011 0.056-0.259 1.385 0.099 1.878 0.084 0.116 0.194 0.176 0.327 0.18l-0.175 1.724zM16.596 7.094l-1.446 0.24 0.175-1.711h-0.023c-0.133 0-0.24-0.056-0.32-0.167-0.312-0.433-0.133-1.583-0.095-1.806 0.491 0.498 1.275 0.24 1.427 0.184l0.008 0.536 0.030-0.026c0.080-0.069 0.148-0.094 0.202-0.073 0.072 0.026 0.099 0.133 0.099 0.133 0.069 0.352-0.194 0.527-0.206 0.536l-0.011 0.009v0.013l0.16 2.131z"></path>
<path fill="#141414" style="fill: var(--color3, #141414)" d="M4.124 30.454l1.325 0.094 0.011-0.836h-1.313l-0.023 0.742z"></path>
<path fill="#141414" style="fill: var(--color3, #141414)" d="M0.577 30.484l1.267 0.116 0.107-0.888h-1.313l-0.061 0.772z"></path>
<path fill="#7a3145" style="fill: var(--color8, #7a3145)" d="M2.468 12.454l0.053 0.326 0.324 2.011 0.837 5.172 0.049 1.707 0.255 8.552h2.215l0.247-10.207-0.35-5.691-0.118-1.87h-3.513z"></path>
<path fill="#141414" style="fill: var(--color3, #141414)" d="M3.968 30.244h2.253v-0.021l0.247-10.207-0.468-7.582h-3.555l1.218 7.535 0.304 10.276zM6.183 30.201h-2.181l-0.304-10.237-1.21-7.488h3.471l0.472 7.544-0.247 10.181z"></path>
<path fill="#141414" style="fill: var(--color3, #141414)" d="M18.062 29.712l0.16 0.802 1.229-0.15-0.076-0.652h-1.313z"></path>
<path fill="#141414" style="fill: var(--color3, #141414)" d="M15.017 29.712l0.034 0.828 1.309-0.15-0.030-0.678h-1.313z"></path>
<path fill="#7a3145" style="fill: var(--color8, #7a3145)" d="M0.215 30.266h2.238l1.279-8.595 0.285-1.926 0.487-4.966 0.194-1.998h-3.635l0.015 1.578 0.053 5.206-0.917 10.7z"></path>
<path fill="#141414" style="fill: var(--color3, #141414)" d="M0.196 30.286h2.276l0.004-0.017 1.564-10.52 0.685-6.991h-3.677l0.069 6.806-0.921 10.722zM2.438 30.244h-2.2l0.913-10.675-0.069-6.768h3.597l-0.681 6.939-1.56 10.503z"></path>
<path fill="#141414" style="fill: var(--color3, #141414)" d="M13.959 18.707l0.586 11.515h2.025l-0.069-7.299-0.042-4.164 0.293-3.86 0.114-1.54-1.698-0.030-0.959-0.021-0.080 1.728-0.171 3.671z"></path>
<path fill="#141414" style="fill: var(--color3, #141414)" d="M14.53 30.244h2.059v-0.021l-0.11-11.464 0.411-5.421-2.695-0.052-0.255 5.421 0.59 11.537zM16.551 30.201h-1.987l-0.586-11.494 0.251-5.378 2.619 0.051-0.407 5.378 0.11 11.442z"></path>
<path fill="#141414" style="fill: var(--color3, #141414)" d="M1.064 12.781l0.015 1.578c0.632 0.236 1.226 0.373 1.766 0.433 0.62 0.073 1.18 0.052 1.659-0.017 0.719-0.099 1.267-0.304 1.591-0.455l-0.114-1.87h-3.513l0.053 0.326h-1.458v0.004z"></path>
<path fill="#141414" style="fill: var(--color3, #141414)" d="M15.146 13.15l0.023 0.18 0.217 1.78 0.575 4.692 0.541 3.122 1.248 7.231 1.853 0.043-0.852-10.623-0.236-5.55-0.042-0.978-3.326 0.103z"></path>
<path fill="#141414" style="fill: var(--color3, #141414)" d="M19.626 30.219v-0.026l-0.852-10.623-0.282-6.549-3.364 0.103 0.814 6.682 1.793 10.37 1.892 0.043zM18.454 13.068l0.278 6.506 0.853 10.597-1.819-0.043-1.785-10.336-0.811-6.626 3.285-0.099z"></path>
<path fill="#7a3145" style="fill: var(--color8, #7a3145)" d="M14.37 6.939l-1.477 2.166-2.063 0.455v1.673l2.417-0.257c0.167-0.017 0.323-0.086 0.46-0.193l0.967-0.772-0.304-3.071z"></path>
<path fill="#141414" style="fill: var(--color3, #141414)" d="M10.811 11.258l2.44-0.262c0.167-0.017 0.331-0.086 0.472-0.197l0.978-0.781-0.312-3.135-1.503 2.2-2.070 0.459v1.716h-0.004zM14.659 10.001l-0.959 0.768c-0.133 0.107-0.289 0.171-0.453 0.189l-2.398 0.257v-1.634l2.055-0.455 0.004-0.004 1.45-2.123 0.301 3.002z"></path>
<path fill="#576f35" style="fill: var(--color2, #576f35)" d="M4.98 4.598c0 0-0.285 0.759-1.568-0.738l-2.2 0.914c-0.312 0.154-0.533 0.476-0.59 0.853l-0.346 2.204h1.203l-0.556 5.893c0 0 1.621 0.485 2.862 0.515 2.048 0.051 2.501-0.36 2.501-0.36l-0.091-2.093-0.015-4.761c0.023-0.678-0.228-1.188-0.586-1.737l-0.613-0.69z"></path>
<path fill="#141414" style="fill: var(--color3, #141414)" d="M4.128 14.264c1.739 0 2.15-0.356 2.166-0.369l0.008-0.009-0.091-2.106-0.015-4.76c0.023-0.665-0.221-1.184-0.59-1.75l-0.632-0.712-0.011 0.030c-0.004 0.004-0.057 0.137-0.217 0.172-0.209 0.043-0.605-0.081-1.321-0.918l-0.008-0.009-0.011 0.004-2.2 0.913c-0.32 0.159-0.544 0.485-0.601 0.871l-0.35 2.23h1.203l-0.556 5.888 0.015 0.004c0.015 0.004 1.637 0.485 2.866 0.519 0.118 0 0.236 0 0.346 0zM6.263 13.866c-0.069 0.051-0.605 0.399-2.482 0.352-1.157-0.030-2.668-0.463-2.839-0.51l0.556-5.901h-1.199l0.343-2.179c0.057-0.373 0.27-0.686 0.579-0.836l2.188-0.905c0.723 0.841 1.134 0.965 1.347 0.918 0.137-0.030 0.205-0.124 0.232-0.172l0.594 0.665c0.373 0.575 0.601 1.068 0.579 1.724l0.015 4.76 0.088 2.084z"></path>
<path fill="#141414" style="fill: var(--color3, #141414)" d="M6.293 6.811h6.071v5.327h-6.071v-5.327z"></path>
<path fill="#d4bfc4" style="fill: var(--color9, #d4bfc4)" d="M5.247 6.811h5.553v5.327h-5.553v-5.327z"></path>
<path fill="#141414" style="fill: var(--color3, #141414)" d="M5.228 12.158h5.591v-5.369h-5.591v5.369zM10.781 12.116h-5.515v-5.284h5.515v5.284z"></path>
<path fill="#141414" style="fill: var(--color3, #141414)" d="M7.15 6.811v1.33l0.346-0.214 0.266 0.202 0.32-0.202 0.297 0.214v-1.33h-1.229z"></path>
<path fill="#141414" style="fill: var(--color3, #141414)" d="M8.375 9.427h1.283v0.086h-1.283v-0.086z"></path>
<path fill="#141414" style="fill: var(--color3, #141414)" d="M8.375 9.989h1.283v0.086h-1.283v-0.086z"></path>
<path fill="#141414" style="fill: var(--color3, #141414)" d="M8.375 10.55h1.283v0.086h-1.283v-0.086z"></path>
<path fill="#fefefe" style="fill: var(--color4, #fefefe)" d="M5.932 9.311h2.074v1.458h-2.074v-1.458z"></path>
<path fill="#141414" style="fill: var(--color3, #141414)" d="M5.913 10.791h2.112v-1.501h-2.112v1.501zM7.987 10.748h-2.036v-1.415h2.036v1.415z"></path>
<path fill="#141414" style="fill: var(--color3, #141414)" d="M14.13 15.037c0.32 0.051 0.757 0.094 1.256 0.073 0.419-0.017 0.883-0.077 1.363-0.21 0.582-0.163 1.188-0.437 1.762-0.875l-0.042-0.978-3.323 0.103 0.023 0.18-0.959-0.017-0.080 1.724z"></path>
<path fill="#e78d4c" style="fill: var(--color10, #e78d4c)" d="M10.811 12.313c0.034 0.064 0.080 0.116 0.133 0.159s0.114 0.073 0.179 0.086l0.301 0.077c0.194 0.047 0.392 0.073 0.59 0.073h0.263c0.076 0 0.152-0.021 0.217-0.064l0.282-0.176 0.297-0.039 1.104-0.15v-0.956l-0.929 0.163-0.43 0.077-0.932-0.292c0 0-0.164 0.382 0.346 0.575l-0.495 0.275h-0.83c-0.088-0.009-0.145 0.107-0.095 0.193z"></path>
<path fill="#141414" style="fill: var(--color3, #141414)" d="M12.018 12.725h0.263c0.080 0 0.16-0.021 0.228-0.069l0.278-0.171 1.412-0.193v-0.999l-1.378 0.245-0.944-0.296-0.008 0.017c-0.004 0.004-0.061 0.141 0 0.296 0.046 0.124 0.152 0.223 0.316 0.292l-0.449 0.249h-0.826c-0.049 0-0.095 0.030-0.118 0.077s-0.023 0.107 0.004 0.154c0.038 0.064 0.084 0.12 0.137 0.163 0.057 0.043 0.118 0.073 0.183 0.090l0.301 0.077c0.202 0.047 0.4 0.069 0.601 0.069zM14.16 12.258l-1.389 0.189-0.282 0.176c-0.065 0.039-0.137 0.060-0.209 0.060h-0.263c-0.198 0-0.396-0.026-0.586-0.073l-0.301-0.077c-0.061-0.017-0.118-0.043-0.171-0.086-0.050-0.039-0.095-0.090-0.129-0.15-0.019-0.034-0.019-0.077-0.004-0.111s0.049-0.056 0.084-0.056h0.834l0.54-0.3-0.046-0.017c-0.175-0.064-0.289-0.163-0.335-0.283-0.042-0.107-0.019-0.206-0.004-0.244l0.921 0.287 1.34-0.236v0.922z"></path>
<path fill="#141414" style="fill: var(--color3, #141414)" d="M7.081 3.534h3.764v3.302h-3.764v-3.302z"></path>
<path fill="#576f35" style="fill: var(--color2, #576f35)" d="M6.434 3.534h3.441v3.302h-3.441v-3.302z"></path>
<path fill="#141414" style="fill: var(--color3, #141414)" d="M6.415 6.858h3.479v-3.345h-3.479v3.345zM9.856 6.815h-3.403v-3.259h3.403v3.259z"></path>
<path fill="#141414" style="fill: var(--color3, #141414)" d="M7.61 3.534v0.823l0.217-0.133 0.167 0.124 0.198-0.124 0.183 0.133v-0.823h-0.765z"></path>
<path fill="#141414" style="fill: var(--color3, #141414)" d="M8.371 5.139h0.795v0.086h-0.795v-0.086z"></path>
<path fill="#141414" style="fill: var(--color3, #141414)" d="M8.371 5.485h0.795v0.086h-0.795v-0.086z"></path>
<path fill="#141414" style="fill: var(--color3, #141414)" d="M8.371 5.837h0.795v0.086h-0.795v-0.086z"></path>
<path fill="#fefefe" style="fill: var(--color4, #fefefe)" d="M6.857 5.082h1.286v0.905h-1.286v-0.905z"></path>
<path fill="#141414" style="fill: var(--color3, #141414)" d="M6.837 6.008h1.325v-0.948h-1.325v0.948zM8.124 5.966h-1.248v-0.862h1.248v0.862z"></path>
<path fill="#141414" style="fill: var(--color3, #141414)" d="M13.076 12.424l1.104-0.15v-0.956l-0.929 0.163-0.175 0.944z"></path>
<path fill="#7a3145" style="fill: var(--color8, #7a3145)" d="M13.411 11.387l0.697-0.15 0.114-3.851c0.008-0.244 0.107-0.476 0.274-0.635l0.712-0.669c0 0 0.137 0.982 1.465 0l1.229 0.497c0.346 0.142 0.609 0.472 0.693 0.875l0.776 4.25c0.072 0.395-0.187 0.768-0.544 0.781l-0.369 0.013 0.179 1.355c0 0-1.267 0.613-2.569 0.703-1.5 0.107-1.991-0.296-1.972-0.352l0.076-1.441-0.761 0.034v-1.411z"></path>
<path fill="#141414" style="fill: var(--color3, #141414)" d="M15.58 14.603c0.148 0 0.312-0.004 0.487-0.017 1.29-0.090 2.562-0.699 2.577-0.708l0.015-0.009-0.004-0.017-0.175-1.33 0.35-0.013c0.175-0.009 0.339-0.099 0.449-0.257 0.11-0.154 0.152-0.356 0.114-0.549l-0.776-4.25c-0.088-0.416-0.35-0.746-0.708-0.892l-1.237-0.502-0.008 0.004c-0.514 0.382-0.921 0.515-1.18 0.386-0.217-0.107-0.255-0.369-0.255-0.369l-0.004-0.039-0.735 0.695c-0.171 0.163-0.274 0.399-0.282 0.652l-0.114 3.834-0.697 0.15v1.458l0.761-0.034-0.076 1.415c-0.004 0.013 0 0.021 0.008 0.034 0.046 0.082 0.445 0.356 1.488 0.356zM18.613 13.844c-0.141 0.064-1.336 0.609-2.55 0.695-1.435 0.103-1.926-0.266-1.949-0.326v-0.004l0.076-1.467-0.765 0.034v-1.377l0.696-0.15 0.114-3.868c0.008-0.24 0.107-0.463 0.266-0.618l0.685-0.648c0.019 0.081 0.084 0.274 0.27 0.365 0.274 0.137 0.677 0.009 1.21-0.382l1.222 0.493c0.343 0.137 0.598 0.459 0.681 0.862l0.776 4.25c0.034 0.18-0.008 0.369-0.107 0.515-0.103 0.146-0.255 0.232-0.419 0.24l-0.392 0.013 0.183 1.372z"></path>
<path fill="#141414" style="fill: var(--color3, #141414)" d="M18.454 12.474l0.002 0.043-4.317 0.279-0.002-0.043 4.317-0.279z"></path>
<path fill="#141414" style="fill: var(--color3, #141414)" d="M14.092 11.258l3.285-0.763-0.297-1.844-0.038 0.009 0.293 1.801-3.25 0.759 0.008 0.039z"></path>
<path fill="#ffac71" style="fill: var(--color7, #ffac71)" d="M0.097 10.542c-0.034 0.433 0.206 0.836 0.575 0.965l3.89 1.364 0.369 0.146c0.141 0.056 0.293 0.073 0.442 0.051l0.746-0.103c0.046-0.009 0.095-0.021 0.137-0.039l0.872-0.36c0.11-0.047 0.209-0.133 0.274-0.244l0.011-0.021c0.046-0.077-0.004-0.18-0.088-0.18h-1.401c0.407-0.292 0.377-0.549 0.377-0.549l-0.86 0.133-0.628 0.086-2.965-1.63 0.343-1.926 0.069-0.39h-1.972l-0.019 0.227-0.171 2.47z"></path>
<path fill="#141414" style="fill: var(--color3, #141414)" d="M5.254 13.098c0.042 0 0.084-0.004 0.122-0.009l0.746-0.103c0.049-0.009 0.099-0.021 0.141-0.039l0.872-0.36c0.118-0.047 0.213-0.133 0.282-0.253l0.011-0.021c0.027-0.043 0.027-0.099 0.004-0.141-0.023-0.047-0.061-0.073-0.11-0.073h-1.336c0.358-0.279 0.335-0.519 0.331-0.532l-0.004-0.021-0.879 0.133-0.624 0.081-2.946-1.617 0.415-2.329h-2.010l-0.206 2.723c-0.034 0.446 0.209 0.853 0.59 0.986l3.89 1.364 0.369 0.146c0.118 0.043 0.232 0.064 0.343 0.064zM7.332 12.141c0.030 0 0.061 0.017 0.076 0.051 0.015 0.030 0.015 0.069-0.004 0.099l-0.011 0.021c-0.065 0.107-0.156 0.189-0.263 0.236l-0.872 0.36c-0.042 0.017-0.088 0.030-0.133 0.039l-0.746 0.103c-0.145 0.021-0.297 0.004-0.434-0.052l-0.369-0.146-3.89-1.364c-0.362-0.129-0.594-0.515-0.563-0.944l0.202-2.685h1.93l-0.411 2.307 0.011 0.009 2.969 1.63 0.636-0.086 0.837-0.129c-0.004 0.064-0.046 0.274-0.369 0.506l-0.053 0.039h1.458v0.004z"></path>
<path fill="#141414" style="fill: var(--color3, #141414)" d="M2.441 6.915l0.037 0.010-0.21 0.989-0.037-0.010 0.21-0.989z"></path>
<path fill="#141414" style="fill: var(--color3, #141414)" d="M0.283 8.063l1.914 0.167 0.072-0.395h-1.972l-0.015 0.227z"></path>
</symbol>
<symbol id="icon-romb-t" viewBox="0 0 29 32">
<path d="M28.56 16.63c-1.781-0.001-3.544 0.394-5.189 1.161s-3.14 1.892-4.4 3.311-2.259 3.103-2.941 4.957c-0.682 1.854-1.033 3.841-1.034 5.848 0-4.053-1.429-7.941-3.971-10.807s-5.992-4.476-9.588-4.476c3.596 0 7.045-1.61 9.588-4.476s3.971-6.753 3.971-10.807c0 4.053 1.429 7.941 3.971 10.807s5.992 4.476 9.588 4.476l0.004 0.005z"></path>
</symbol>
<symbol id="icon-romb-tt" viewBox="0 0 26 32">
<path d="M26.274 15.587c-3.469 0-6.796 1.553-9.249 4.318s-3.831 6.515-3.831 10.425c0-3.91-1.378-7.66-3.831-10.425s-5.78-4.318-9.249-4.318c3.469 0 6.796-1.553 9.249-4.318s3.831-6.515 3.831-10.425c0 3.91 1.378 7.66 3.831 10.425s5.78 4.318 9.249 4.318z"></path>
</symbol>
<symbol id="icon-romb-ttt" viewBox="0 0 29 32">
<path d="M27.584 16.102c-1.781-0.001-3.544 0.394-5.189 1.161s-3.14 1.893-4.4 3.311c-1.26 1.419-2.259 3.103-2.941 4.957s-1.033 3.841-1.034 5.848c0-4.053-1.429-7.941-3.971-10.807s-5.992-4.476-9.588-4.476c3.596 0 7.045-1.61 9.588-4.476s3.971-6.753 3.971-10.807c0 4.053 1.429 7.941 3.971 10.807s5.992 4.476 9.588 4.476l0.005 0.005z"></path>
</symbol>
</defs>
</svg>
