<svg aria-hidden="true" style="position: absolute; width: 0; height: 0; overflow: hidden;" version="1.1" xmlns="http://www.w3.org/2000/svg" xmlns:xlink="http://www.w3.org/1999/xlink">
<defs>
<symbol id="icon-ball" viewBox="0 0 30 32">
<path fill="#a1c487" style="fill: var(--color1, #a1c487)" d="M14.752 10.353c1.959 0 3.547-1.81 3.547-4.043s-1.588-4.043-3.547-4.043c-1.959 0-3.547 1.81-3.547 4.043s1.588 4.043 3.547 4.043z"></path>
</symbol>
<symbol id="icon-ball-p" viewBox="0 0 27 32">
<path fill="#576f35" style="fill: var(--color2, #576f35)" d="M13.014 31.319c6.97 0 12.621-6.44 12.621-14.385s-5.65-14.385-12.621-14.385c-6.97 0-12.621 6.44-12.621 14.385s5.65 14.385 12.621 14.385z"></path>
</symbol>
<symbol id="icon-ball-p-a" viewBox="0 0 32 32">
<path fill="#576f35" style="fill: var(--color2, #576f35)" d="M16.098 26.739c6.365 0 11.524-5.881 11.524-13.135s-5.16-13.135-11.524-13.135-11.524 5.881-11.524 13.135c0 7.254 5.16 13.135 11.524 13.135z"></path>
</symbol>
<symbol id="icon-ball-p-v-2" viewBox="0 0 27 32">
<path fill="#576f35" style="fill: var(--color2, #576f35)" d="M14.299 27.057c6.365 0 11.524-5.881 11.524-13.135s-5.159-13.135-11.524-13.135-11.524 5.881-11.524 13.135c0 7.254 5.16 13.135 11.524 13.135z"></path>
</symbol>
<symbol id="icon-cloud-m2x" viewBox="0 0 48 32">
<path fill="#fff" style="fill: var(--color3, #fff)" stroke-linejoin="miter" stroke-linecap="butt" stroke-miterlimit="4" stroke-width="1.4545" stroke="#000" d="M38.472 13.952h0.013l0.013-0c0.94-0.034 1.879 0.148 2.762 0.537s1.697 0.981 2.388 1.744c0.691 0.763 1.245 1.682 1.625 2.704s0.577 2.124 0.577 3.239-0.197 2.217-0.577 3.239c-0.38 1.022-0.934 1.941-1.625 2.704s-1.504 1.354-2.388 1.744c-0.883 0.39-1.822 0.571-2.762 0.537l-0.013-0h-32.037c-0.859 0.006-1.712-0.222-2.489-0.671s-1.459-1.111-1.982-1.935c-0.523-0.825-0.869-1.786-1.004-2.805s-0.054-2.059 0.234-3.032c0.288-0.973 0.774-1.846 1.41-2.548s1.402-1.212 2.23-1.498c0.827-0.285 1.699-0.341 2.546-0.163s1.654 0.585 2.351 1.198l1.446 1.272-0.244-1.91c-0.475-3.713 0.354-7.482 2.291-10.488 1.936-3.005 4.811-4.993 7.988-5.576 3.173-0.582 6.431 0.278 9.074 2.422 2.648 2.147 4.468 5.414 5.039 9.109l0.136 0.879 0.835-0.308c0.701-0.259 1.431-0.39 2.164-0.39z"></path>
</symbol>
<symbol id="icon-Man_and_couriers" viewBox="0 0 20 32">
<path fill="#141414" style="fill: var(--color4, #141414)" d="M4.086 31.929h2.744c0 0-0.173-0.673-1.389-1.227l0.004-0.154 0.011-0.836h-1.298l-0.023 0.738-0.049 1.48z"></path>
<path fill="#141414" style="fill: var(--color4, #141414)" d="M4.064 31.951h2.789l-0.008-0.026c-0.008-0.026-0.188-0.686-1.389-1.235l0.011-0.995h-1.336l-0.068 2.256zM6.804 31.908h-2.699l0.068-2.174h1.261l-0.011 0.982 0.011 0.004c1.054 0.485 1.321 1.059 1.37 1.188z"></path>
<path fill="#141414" style="fill: var(--color4, #141414)" d="M0.511 31.929h2.744c0 0-0.173-0.673-1.389-1.227l0.011-0.103 0.105-0.888h-1.298l-0.060 0.772-0.113 1.445z"></path>
<path fill="#141414" style="fill: var(--color4, #141414)" d="M0.488 31.951h2.793l-0.008-0.026c-0.008-0.026-0.188-0.686-1.389-1.235l0.117-0.999h-1.336l-0.177 2.26zM3.228 31.908h-2.699l0.169-2.174h1.261l-0.117 0.982 0.015 0.004c1.058 0.485 1.321 1.059 1.37 1.188z"></path>
<path fill="#141414" style="fill: var(--color4, #141414)" d="M16.717 31.929h2.744l-0.177-1.565-0.072-0.652h-1.299l0.154 0.802 0.038 0.36c-1.276 0.446-1.389 1.055-1.389 1.055z"></path>
<path fill="#141414" style="fill: var(--color4, #141414)" d="M16.695 31.951h2.789l-0.252-2.26h-1.34l0.162 0.828 0.034 0.339c-1.257 0.442-1.385 1.042-1.389 1.068l-0.004 0.026zM19.442 31.908h-2.699c0.041-0.12 0.271-0.63 1.37-1.012l0.015-0.004-0.038-0.377-0.151-0.776h1.257l0.245 2.17z"></path>
<path fill="#141414" style="fill: var(--color4, #141414)" d="M13.556 31.929h2.744l-0.068-1.54-0.030-0.678h-1.299l0.034 0.823 0.008 0.292c-1.216 0.558-1.389 1.102-1.389 1.102z"></path>
<path fill="#141414" style="fill: var(--color4, #141414)" d="M13.529 31.951h2.793l-0.102-2.26h-1.336l0.038 0.849 0.007 0.279c-1.201 0.549-1.381 1.085-1.389 1.107l-0.011 0.026zM16.281 31.908h-2.695c0.056-0.12 0.335-0.588 1.366-1.059l0.011-0.004-0.008-0.309-0.034-0.802h1.261l0.098 2.174z"></path>
<path fill="#ffac71" style="fill: var(--color5, #ffac71)" d="M6.243 1.205l-1.908-0.489-0.207 0.828c-0.053-0.043-0.105-0.069-0.154-0.069-0.226 0-0.271 0.309-0.271 0.309-0.064 0.335 0.128 0.54 0.215 0.686l-0.655 2.389 1.622 0.287 0.139-1.527c1.396 0.802 1.22-2.415 1.22-2.415z"></path>
<path fill="#141414" style="fill: var(--color4, #141414)" d="M4.903 5.164l0.139-1.518c0.275 0.15 0.512 0.159 0.7 0.017 0.625-0.472 0.527-2.38 0.523-2.462v-0.017l-1.942-0.498-0.203 0.815c-0.049-0.039-0.098-0.056-0.143-0.056-0.237 0-0.29 0.322-0.29 0.326-0.056 0.292 0.075 0.485 0.169 0.626 0.015 0.021 0.030 0.043 0.041 0.064l-0.659 2.402 1.664 0.3zM5.008 3.581l-0.139 1.535-1.581-0.283 0.651-2.372-0.004-0.009c-0.015-0.021-0.030-0.047-0.049-0.073-0.090-0.137-0.215-0.322-0.162-0.592 0.004-0.013 0.045-0.292 0.252-0.292 0.045 0 0.094 0.021 0.143 0.064l0.023 0.017 0.211-0.836 1.878 0.48c0.008 0.189 0.072 1.973-0.508 2.406-0.181 0.137-0.414 0.124-0.685-0.030l-0.030-0.017z"></path>
<path fill="#141414" style="fill: var(--color4, #141414)" d="M6.815 0.27c-0.087-0.021-0.305 0-0.437 0.124 0.008-0.017 0.015-0.034 0.023-0.051 0.196-0.669-0.629-0.172-1.065-0.073-0.090 0.021-0.29 0.051-0.29 0.051-1.306-0.339-1.174 1.179-1.174 1.179 0.343-0.056 0.444 0.476 0.444 0.476 0.35-0.189 0.459-0.459 0.47-0.575 0.339 0.176 1.208 0.51 1.927-0.081 0.493-0.407 0.32-1.004 0.102-1.051z"></path>
<path fill="#141414" style="fill: var(--color4, #141414)" d="M14.395 6.631c0 0 0.531-1.128 0.576-1.69l-0.222-1.235c0 0-0.026-1.184 1.34-0.896 0 0-0.008-0.558 0.316-0.69 0 0-0.158 0.313-0.102 0.622 0 0 0.264-0.686 0.76-0.326 0 0 0.384 0.24 0.282 0.678 0 0 0.008 0.498-0.591 0.506 0 0 0.008 0.622 1.329 1.467 0 0 1.099 0.6 1.009 1.908s-1.114 2.131-1.114 2.131l-3.764 0.004 0.181-2.479z"></path>
<path fill="#ffac71" style="fill: var(--color5, #ffac71)" d="M16.484 7.111l-0.162-2.157c0 0 0.282-0.189 0.211-0.558 0 0-0.068-0.296-0.327-0.069l-0.008-0.523c0 0-0.911 0.39-1.442-0.197 0 0-0.384 2.041 0.425 2.037l-0.173 1.715 1.475-0.249z"></path>
<path fill="#141414" style="fill: var(--color4, #141414)" d="M14.99 7.386l1.517-0.253-0.162-2.166c0.053-0.039 0.275-0.232 0.211-0.575 0-0.004-0.030-0.129-0.12-0.163-0.060-0.021-0.128-0.004-0.207 0.056l-0.008-0.51-0.026 0.009c-0.008 0.004-0.903 0.377-1.423-0.193l-0.023-0.026-0.008 0.039c-0.011 0.056-0.256 1.385 0.098 1.878 0.083 0.116 0.192 0.176 0.324 0.18l-0.173 1.724zM16.465 7.094l-1.43 0.24 0.173-1.711h-0.023c-0.132 0-0.237-0.056-0.316-0.167-0.309-0.433-0.132-1.583-0.094-1.806 0.485 0.498 1.261 0.24 1.411 0.184l0.008 0.536 0.030-0.026c0.079-0.069 0.147-0.094 0.2-0.073 0.072 0.026 0.098 0.133 0.098 0.133 0.068 0.352-0.192 0.527-0.203 0.536l-0.011 0.009v0.013l0.158 2.131z"></path>
<path fill="#141414" style="fill: var(--color4, #141414)" d="M4.131 30.454l1.31 0.094 0.011-0.836h-1.298l-0.023 0.742z"></path>
<path fill="#141414" style="fill: var(--color4, #141414)" d="M0.624 30.484l1.253 0.116 0.105-0.888h-1.298l-0.060 0.772z"></path>
<path fill="#7a3145" style="fill: var(--color6, #7a3145)" d="M2.494 12.454l0.053 0.326 0.32 2.011 0.828 5.172 0.049 1.707 0.252 8.552h2.191l0.245-10.207-0.346-5.691-0.117-1.87h-3.474z"></path>
<path fill="#141414" style="fill: var(--color4, #141414)" d="M3.977 30.244h2.228v-0.021l0.245-10.207-0.463-7.582h-3.515l1.204 7.535 0.301 10.276zM6.168 30.201h-2.157l-0.301-10.237-1.197-7.488h3.433l0.467 7.544-0.245 10.181z"></path>
<path fill="#141414" style="fill: var(--color4, #141414)" d="M17.914 29.712l0.158 0.802 1.216-0.15-0.075-0.652h-1.299z"></path>
<path fill="#141414" style="fill: var(--color4, #141414)" d="M14.903 29.712l0.034 0.828 1.295-0.15-0.030-0.678h-1.299z"></path>
<path fill="#7a3145" style="fill: var(--color6, #7a3145)" d="M0.266 30.266h2.213l1.265-8.595 0.282-1.926 0.482-4.966 0.192-1.998h-3.594l0.015 1.578 0.053 5.206-0.907 10.7z"></path>
<path fill="#141414" style="fill: var(--color4, #141414)" d="M0.247 30.286h2.251l0.004-0.017 1.547-10.52 0.677-6.991h-3.636l0.068 6.806-0.911 10.722zM2.464 30.243h-2.175l0.903-10.675-0.068-6.768h3.557l-0.674 6.939-1.543 10.503z"></path>
<path fill="#141414" style="fill: var(--color4, #141414)" d="M13.857 18.707l0.58 11.515h2.002l-0.068-7.299-0.041-4.164 0.29-3.86 0.113-1.54-1.679-0.030-0.948-0.021-0.079 1.728-0.169 3.671z"></path>
<path fill="#141414" style="fill: var(--color4, #141414)" d="M14.421 30.244h2.036v-0.021l-0.109-11.464 0.406-5.421-2.665-0.051-0.252 5.421 0.583 11.537zM16.42 30.201h-1.965l-0.58-11.494 0.248-5.378 2.589 0.051-0.403 5.378 0.109 11.442z"></path>
<path fill="#141414" style="fill: var(--color4, #141414)" d="M1.105 12.781l0.015 1.578c0.625 0.236 1.212 0.373 1.746 0.433 0.614 0.073 1.167 0.052 1.641-0.017 0.711-0.099 1.253-0.305 1.573-0.455l-0.113-1.87h-3.474l0.053 0.326h-1.442v0.004z"></path>
<path fill="#141414" style="fill: var(--color4, #141414)" d="M15.031 13.15l0.023 0.18 0.214 1.78 0.568 4.692 0.534 3.122 1.235 7.231 1.833 0.043-0.843-10.623-0.233-5.55-0.041-0.978-3.289 0.103z"></path>
<path fill="#141414" style="fill: var(--color4, #141414)" d="M19.461 30.219v-0.026l-0.843-10.623-0.279-6.549-3.327 0.103 0.805 6.682 1.773 10.37 1.87 0.043zM18.302 13.068l0.275 6.506 0.843 10.597-1.799-0.043-1.765-10.336-0.802-6.626 3.248-0.099z"></path>
<path fill="#7a3145" style="fill: var(--color6, #7a3145)" d="M14.263 6.939l-1.46 2.166-2.040 0.455v1.673l2.39-0.257c0.166-0.017 0.32-0.086 0.455-0.193l0.956-0.772-0.301-3.071z"></path>
<path fill="#141414" style="fill: var(--color4, #141414)" d="M10.744 11.258l2.413-0.262c0.166-0.017 0.327-0.086 0.467-0.197l0.967-0.781-0.309-3.135-1.487 2.2-2.047 0.459v1.715h-0.004zM14.549 10.001l-0.948 0.768c-0.132 0.107-0.286 0.172-0.448 0.189l-2.371 0.257v-1.634l2.032-0.455 0.004-0.004 1.434-2.123 0.297 3.002z"></path>
<path fill="#576f35" style="fill: var(--color2, #576f35)" d="M4.978 4.598c0 0-0.282 0.759-1.551-0.738l-2.175 0.914c-0.309 0.154-0.527 0.476-0.583 0.853l-0.343 2.204h1.189l-0.55 5.893c0 0 1.603 0.485 2.83 0.515 2.025 0.052 2.473-0.36 2.473-0.36l-0.090-2.093-0.015-4.76c0.023-0.678-0.226-1.188-0.58-1.737l-0.606-0.691z"></path>
<path fill="#141414" style="fill: var(--color4, #141414)" d="M4.135 14.264c1.72 0 2.127-0.356 2.142-0.369l0.008-0.009-0.090-2.106-0.015-4.76c0.023-0.665-0.218-1.184-0.583-1.75l-0.625-0.712-0.011 0.030c-0.004 0.004-0.056 0.137-0.215 0.172-0.207 0.043-0.598-0.082-1.306-0.918l-0.008-0.009-0.011 0.004-2.175 0.913c-0.316 0.159-0.538 0.485-0.595 0.871l-0.346 2.23h1.189l-0.549 5.888 0.015 0.004c0.015 0.004 1.618 0.485 2.834 0.519 0.117 0 0.233 0 0.342 0zM6.247 13.866c-0.068 0.051-0.598 0.399-2.454 0.352-1.144-0.030-2.638-0.463-2.808-0.51l0.55-5.901h-1.186l0.339-2.179c0.056-0.373 0.267-0.686 0.572-0.836l2.164-0.905c0.715 0.841 1.122 0.965 1.332 0.918 0.136-0.030 0.203-0.124 0.23-0.172l0.587 0.665c0.369 0.575 0.595 1.068 0.572 1.724l0.015 4.76 0.087 2.084z"></path>
<path fill="#141414" style="fill: var(--color4, #141414)" d="M6.277 6.811h6.003v5.327h-6.003v-5.327z"></path>
<path fill="#d4bfc4" style="fill: var(--color7, #d4bfc4)" d="M5.242 6.811h5.491v5.327h-5.491v-5.327z"></path>
<path fill="#141414" style="fill: var(--color4, #141414)" d="M5.223 12.158h5.529v-5.369h-5.529v5.369zM10.714 12.116h-5.454v-5.284h5.454v5.284z"></path>
<path fill="#141414" style="fill: var(--color4, #141414)" d="M7.123 6.811v1.33l0.343-0.214 0.263 0.202 0.316-0.202 0.294 0.214v-1.33h-1.216z"></path>
<path fill="#141414" style="fill: var(--color4, #141414)" d="M8.335 9.427h1.268v0.086h-1.268v-0.086z"></path>
<path fill="#141414" style="fill: var(--color4, #141414)" d="M8.335 9.989h1.268v0.086h-1.268v-0.086z"></path>
<path fill="#141414" style="fill: var(--color4, #141414)" d="M8.335 10.55h1.268v0.086h-1.268v-0.086z"></path>
<path fill="#fefefe" style="fill: var(--color8, #fefefe)" d="M5.919 9.311h2.051v1.458h-2.051v-1.458z"></path>
<path fill="#141414" style="fill: var(--color4, #141414)" d="M5.9 10.791h2.089v-1.501h-2.089v1.501zM7.952 10.748h-2.014v-1.415h2.014v1.415z"></path>
<path fill="#141414" style="fill: var(--color4, #141414)" d="M14.026 15.036c0.316 0.052 0.749 0.094 1.242 0.073 0.414-0.017 0.873-0.077 1.347-0.21 0.576-0.163 1.174-0.437 1.743-0.875l-0.041-0.978-3.286 0.103 0.023 0.18-0.948-0.017-0.079 1.724z"></path>
<path fill="#e78d4c" style="fill: var(--color9, #e78d4c)" d="M10.744 12.313c0.034 0.064 0.079 0.116 0.132 0.159s0.113 0.073 0.177 0.086l0.297 0.077c0.192 0.047 0.388 0.073 0.583 0.073h0.26c0.075 0 0.151-0.021 0.215-0.064l0.279-0.176 0.294-0.039 1.091-0.15v-0.956l-0.918 0.163-0.425 0.077-0.922-0.292c0 0-0.162 0.382 0.342 0.575l-0.489 0.274h-0.821c-0.087-0.009-0.143 0.107-0.094 0.193z"></path>
<path fill="#141414" style="fill: var(--color4, #141414)" d="M11.937 12.725h0.26c0.079 0 0.158-0.021 0.226-0.069l0.275-0.172 1.396-0.193v-0.999l-1.362 0.244-0.933-0.296-0.008 0.017c-0.004 0.004-0.060 0.142 0 0.296 0.045 0.124 0.151 0.223 0.312 0.292l-0.444 0.249h-0.817c-0.049 0-0.094 0.030-0.117 0.077s-0.023 0.107 0.004 0.154c0.038 0.064 0.083 0.12 0.136 0.163 0.056 0.043 0.117 0.073 0.181 0.090l0.297 0.077c0.199 0.047 0.395 0.069 0.595 0.069zM14.056 12.258l-1.374 0.189-0.278 0.176c-0.064 0.039-0.136 0.060-0.207 0.060h-0.26c-0.196 0-0.391-0.026-0.58-0.073l-0.297-0.077c-0.060-0.017-0.117-0.043-0.169-0.086-0.049-0.039-0.094-0.090-0.128-0.15-0.019-0.034-0.019-0.077-0.004-0.112s0.049-0.056 0.083-0.056h0.824l0.534-0.3-0.045-0.017c-0.173-0.064-0.286-0.163-0.331-0.283-0.041-0.107-0.019-0.206-0.004-0.244l0.911 0.287 1.325-0.236v0.922z"></path>
<path fill="#141414" style="fill: var(--color4, #141414)" d="M7.056 3.534h3.722v3.302h-3.722v-3.302z"></path>
<path fill="#576f35" style="fill: var(--color2, #576f35)" d="M6.416 3.534h3.402v3.302h-3.402v-3.302z"></path>
<path fill="#141414" style="fill: var(--color4, #141414)" d="M6.397 6.858h3.44v-3.345h-3.44v3.345zM9.799 6.815h-3.365v-3.259h3.365v3.259z"></path>
<path fill="#141414" style="fill: var(--color4, #141414)" d="M7.579 3.534v0.823l0.215-0.133 0.166 0.124 0.196-0.124 0.181 0.133v-0.823h-0.756z"></path>
<path fill="#141414" style="fill: var(--color4, #141414)" d="M8.332 5.138h0.787v0.086h-0.787v-0.086z"></path>
<path fill="#141414" style="fill: var(--color4, #141414)" d="M8.332 5.485h0.787v0.086h-0.787v-0.086z"></path>
<path fill="#141414" style="fill: var(--color4, #141414)" d="M8.332 5.837h0.787v0.086h-0.787v-0.086z"></path>
<path fill="#fefefe" style="fill: var(--color8, #fefefe)" d="M6.834 5.082h1.272v0.905h-1.272v-0.905z"></path>
<path fill="#141414" style="fill: var(--color4, #141414)" d="M6.815 6.008h1.31v-0.948h-1.31v0.948zM8.087 5.965h-1.235v-0.862h1.235v0.862z"></path>
<path fill="#141414" style="fill: var(--color4, #141414)" d="M12.984 12.424l1.091-0.15v-0.956l-0.918 0.163-0.173 0.944z"></path>
<path fill="#7a3145" style="fill: var(--color6, #7a3145)" d="M13.315 11.387l0.689-0.15 0.113-3.851c0.008-0.244 0.105-0.476 0.271-0.635l0.704-0.669c0 0 0.136 0.982 1.449 0l1.216 0.497c0.342 0.142 0.602 0.472 0.685 0.875l0.768 4.25c0.072 0.395-0.184 0.768-0.538 0.781l-0.365 0.013 0.177 1.355c0 0-1.253 0.613-2.541 0.703-1.483 0.107-1.968-0.296-1.95-0.352l0.075-1.441-0.753 0.034v-1.411z"></path>
<path fill="#141414" style="fill: var(--color4, #141414)" d="M15.46 14.603c0.147 0 0.309-0.004 0.482-0.017 1.276-0.090 2.533-0.699 2.548-0.708l0.015-0.009-0.004-0.017-0.173-1.329 0.346-0.013c0.173-0.009 0.335-0.099 0.444-0.257 0.109-0.154 0.15-0.356 0.113-0.549l-0.768-4.25c-0.087-0.416-0.346-0.746-0.7-0.892l-1.223-0.502-0.008 0.004c-0.508 0.382-0.911 0.515-1.167 0.386-0.214-0.107-0.252-0.369-0.252-0.369l-0.004-0.039-0.726 0.695c-0.169 0.163-0.271 0.399-0.278 0.652l-0.113 3.834-0.689 0.15v1.458l0.753-0.034-0.075 1.415c-0.004 0.013 0 0.021 0.008 0.034 0.045 0.082 0.44 0.356 1.472 0.356zM18.46 13.844c-0.139 0.064-1.321 0.609-2.522 0.695-1.419 0.103-1.905-0.266-1.927-0.326v-0.004l0.075-1.467-0.757 0.034v-1.377l0.689-0.15 0.113-3.868c0.008-0.24 0.105-0.463 0.263-0.618l0.678-0.648c0.019 0.081 0.083 0.274 0.267 0.365 0.271 0.137 0.67 0.009 1.197-0.382l1.208 0.493c0.339 0.137 0.591 0.459 0.674 0.862l0.768 4.25c0.034 0.18-0.008 0.369-0.105 0.515-0.102 0.146-0.252 0.232-0.414 0.24l-0.388 0.013 0.181 1.372z"></path>
<path fill="#141414" style="fill: var(--color4, #141414)" d="M18.302 12.473l0.002 0.043-4.269 0.279-0.002-0.043 4.269-0.279z"></path>
<path fill="#141414" style="fill: var(--color4, #141414)" d="M13.989 11.258l3.248-0.763-0.294-1.844-0.038 0.009 0.29 1.801-3.214 0.759 0.008 0.039z"></path>
<path fill="#ffac71" style="fill: var(--color5, #ffac71)" d="M0.149 10.542c-0.034 0.433 0.203 0.836 0.568 0.965l3.847 1.364 0.365 0.146c0.139 0.056 0.29 0.073 0.437 0.051l0.738-0.103c0.045-0.009 0.094-0.021 0.136-0.039l0.862-0.36c0.109-0.047 0.207-0.133 0.271-0.244l0.011-0.021c0.045-0.077-0.004-0.18-0.087-0.18h-1.385c0.403-0.292 0.373-0.549 0.373-0.549l-0.851 0.133-0.621 0.086-2.932-1.63 0.339-1.926 0.068-0.39h-1.95l-0.019 0.227-0.169 2.47z"></path>
<path fill="#141414" style="fill: var(--color4, #141414)" d="M5.249 13.098c0.041 0 0.083-0.004 0.12-0.009l0.738-0.103c0.049-0.009 0.098-0.021 0.139-0.039l0.862-0.36c0.117-0.047 0.211-0.133 0.279-0.253l0.011-0.021c0.026-0.043 0.026-0.099 0.004-0.142-0.023-0.047-0.060-0.073-0.109-0.073h-1.321c0.354-0.279 0.331-0.519 0.327-0.532l-0.004-0.021-0.869 0.133-0.617 0.082-2.913-1.617 0.41-2.329h-1.987l-0.203 2.723c-0.034 0.446 0.207 0.853 0.583 0.986l3.847 1.364 0.365 0.146c0.117 0.043 0.23 0.064 0.339 0.064zM7.304 12.141c0.030 0 0.060 0.017 0.075 0.051 0.015 0.030 0.015 0.069-0.004 0.099l-0.011 0.021c-0.064 0.107-0.154 0.189-0.26 0.236l-0.862 0.36c-0.041 0.017-0.087 0.030-0.132 0.039l-0.738 0.103c-0.143 0.021-0.294 0.004-0.429-0.051l-0.365-0.146-3.847-1.364c-0.358-0.129-0.587-0.515-0.557-0.944l0.199-2.685h1.908l-0.406 2.307 0.011 0.009 2.936 1.63 0.629-0.086 0.828-0.129c-0.004 0.064-0.045 0.274-0.365 0.506l-0.053 0.039h1.442v0.004z"></path>
<path fill="#141414" style="fill: var(--color4, #141414)" d="M2.467 6.915l0.037 0.010-0.208 0.989-0.037-0.010 0.208-0.989z"></path>
<path fill="#141414" style="fill: var(--color4, #141414)" d="M0.334 8.063l1.893 0.167 0.071-0.395h-1.95l-0.015 0.227z"></path>
</symbol>
<symbol id="icon-romb-m-a2x-1" viewBox="0 0 29 32">
<path d="M27.924 15.869c-3.351 0-6.564 1.517-8.934 4.218s-3.7 6.363-3.7 10.183c0-3.819-1.331-7.482-3.7-10.183s-5.583-4.218-8.934-4.218c3.351 0 6.564-1.517 8.934-4.218s3.7-6.363 3.7-10.183c0 3.819 1.331 7.482 3.7 10.183s5.583 4.218 8.934 4.218z"></path>
</symbol>
<symbol id="icon-romb-pip1x" viewBox="0 0 27 32">
<path d="M26.216 17.046c-1.712-0.001-3.408 0.383-4.99 1.129s-3.020 1.84-4.231 3.22c-1.211 1.379-2.172 3.017-2.828 4.82s-0.994 3.735-0.994 5.686c0-3.941-1.374-7.721-3.819-10.508s-5.761-4.352-9.219-4.352c3.458 0 6.774-1.566 9.219-4.352s3.819-6.567 3.819-10.508c0 3.941 1.374 7.721 3.819 10.508s5.761 4.352 9.219 4.352l0.004 0.005z"></path>
</symbol>
<symbol id="icon-roumb-m2x" viewBox="0 0 27 32">
<path d="M26.539 16.178c-1.712-0.001-3.408 0.383-4.99 1.129s-3.020 1.84-4.231 3.22c-1.211 1.379-2.172 3.017-2.828 4.82s-0.994 3.735-0.994 5.686c0-3.941-1.374-7.721-3.819-10.508s-5.761-4.352-9.219-4.352c3.458 0 6.774-1.566 9.219-4.352s3.819-6.567 3.819-10.508c0 3.941 1.374 7.721 3.819 10.508s5.761 4.352 9.219 4.352l0.004 0.005z"></path>
</symbol>
<symbol id="icon-rover" viewBox="0 0 83 32">
<path fill="#141414" style="fill: var(--color4, #141414)" d="M2.821 4.021h9.835v8.724h-9.835v-8.724z"></path>
<path fill="#576f35" style="fill: var(--color2, #576f35)" d="M1.126 4.021h8.997v8.724h-8.997v-8.724z"></path>
<path fill="#141414" style="fill: var(--color4, #141414)" d="M1.101 12.779h9.058v-8.794h-9.058v8.794zM10.092 12.71h-8.936v-8.655h8.936v8.655z"></path>
<path fill="#141414" style="fill: var(--color4, #141414)" d="M4.21 4.021v2.176l0.563-0.356 0.435 0.335 0.52-0.335 0.477 0.356v-2.176h-1.995z"></path>
<path fill="#141414" style="fill: var(--color4, #141414)" d="M6.206 8.303h2.075v0.14h-2.075v-0.14z"></path>
<path fill="#141414" style="fill: var(--color4, #141414)" d="M6.206 9.223h2.075v0.14h-2.075v-0.14z"></path>
<path fill="#141414" style="fill: var(--color4, #141414)" d="M6.206 10.144h2.075v0.14h-2.075v-0.14z"></path>
<path fill="#fefefe" style="fill: var(--color8, #fefefe)" d="M2.24 8.114h3.36v2.392h-3.36v-2.392z"></path>
<path fill="#141414" style="fill: var(--color4, #141414)" d="M2.209 10.534h3.421v-2.462h-3.421v2.462zM5.569 10.465h-3.299v-2.322h3.299v2.322z"></path>
<path fill="#f27b79" style="fill: var(--color10, #f27b79)" d="M12.387 14.342h-2.626c-0.122 0-0.245 0.063-0.318 0.174l-1.328 1.904c-0.214 0.307-0.024 0.753 0.318 0.753h3.954v-2.831z"></path>
<path fill="#141414" style="fill: var(--color4, #141414)" d="M8.434 17.208h3.984v-2.901h-2.656c-0.135 0-0.263 0.070-0.343 0.188l-1.328 1.904c-0.104 0.153-0.129 0.356-0.049 0.53 0.067 0.167 0.22 0.279 0.392 0.279zM12.357 17.138h-3.923c-0.147 0-0.275-0.091-0.343-0.244-0.061-0.153-0.049-0.328 0.043-0.453l1.328-1.904c0.073-0.105 0.178-0.16 0.294-0.16h2.595v2.762h0.006z"></path>
<path fill="#141414" style="fill: var(--color4, #141414)" d="M39.139 2.375c0 0.258-0.184 0.46-0.404 0.46h-1.322c-0.226 0-0.404-0.209-0.404-0.46 0-0.258 0.184-0.46 0.404-0.46h1.322c0.22-0.007 0.404 0.202 0.404 0.46z"></path>
<path fill="#141414" style="fill: var(--color4, #141414)" d="M34.151 2.919h1.628v2.629h-1.628v-2.629z"></path>
<path fill="#576f35" style="fill: var(--color2, #576f35)" d="M38.343 22.417v-15.37c0-1.304-0.93-2.364-2.075-2.364h-5.998c-1.144 0-2.075 1.060-2.075 2.364v14.157c0 1.2-0.851 2.169-1.903 2.169h-1.683c-1.053 0-1.903-0.969-1.903-2.169v-6.186c0 0 0.043-1.869 1.053-2.141h-10.368c0 0-4.309 4.003-5.214 10.454v0.711h30.167v-1.625z"></path>
<path fill="#141414" style="fill: var(--color4, #141414)" d="M8.146 24.077h30.228v-17.030c0-1.325-0.942-2.399-2.105-2.399h-5.998c-1.163 0-2.105 1.074-2.105 2.399v14.157c0 1.179-0.838 2.134-1.873 2.134h-1.683c-1.034 0-1.873-0.955-1.873-2.134v-6.186c0-0.021 0.049-1.841 1.034-2.106l0.257-0.070-10.649 0.007c-0.012 0.007-1.096 1.025-2.271 2.81-1.089 1.653-2.485 4.324-2.95 7.664l-0.012 0.753zM38.313 24.007h-30.106v-0.676c0.465-3.32 1.854-5.984 2.938-7.622 1.12-1.702 2.154-2.699 2.258-2.797h10.172c-0.851 0.425-0.894 2.029-0.9 2.106v6.186c0 1.213 0.869 2.204 1.934 2.204h1.683c1.065 0 1.934-0.99 1.934-2.204v-14.157c0-1.283 0.918-2.329 2.044-2.329h5.998c1.126 0 2.044 1.046 2.044 2.329v16.96z"></path>
<path fill="#141414" style="fill: var(--color4, #141414)" d="M34.255 4.676h0.734v15.454h-0.734v-15.454z"></path>
<path fill="#141414" style="fill: var(--color4, #141414)" d="M0 12.501h14.003v0.795h-14.003v-0.795z"></path>
<path fill="#141414" style="fill: var(--color4, #141414)" d="M15.735 24.085h9.731v2.28h-9.731v-2.28z"></path>
<path fill="#141414" style="fill: var(--color4, #141414)" d="M12.228 30.857c-2.447 0-4.431-2.57-4.431-5.74s1.984-5.739 4.431-5.739 4.431 2.57 4.431 5.739c0 3.17-1.984 5.74-4.431 5.74z"></path>
<path fill="#fefefe" style="fill: var(--color8, #fefefe)" d="M11.482 28.596c-1.592 0-2.883-1.673-2.883-3.738s1.291-3.738 2.883-3.738 2.883 1.674 2.883 3.738c0 2.065-1.291 3.738-2.883 3.738z"></path>
<path fill="#141414" style="fill: var(--color4, #141414)" d="M11.481 28.632c1.61 0 2.913-1.695 2.913-3.773s-1.31-3.773-2.913-3.773-2.913 1.695-2.913 3.773c0 2.078 1.304 3.773 2.913 3.773zM11.481 21.156c1.573 0 2.852 1.66 2.852 3.703s-1.279 3.703-2.852 3.703c-1.573 0-2.852-1.66-2.852-3.703s1.279-3.703 2.852-3.703z"></path>
<path fill="#141414" style="fill: var(--color4, #141414)" d="M13.006 24.879c0 0.83-0.343 1.569-1.438 1.569-0.643 0-0.881-0.739-0.881-1.569s0.245-1.506 0.881-1.506c1.096 0 1.438 0.67 1.438 1.506z"></path>
<path fill="#fefefe" style="fill: var(--color8, #fefefe)" d="M11.494 26.386c-0.642 0-1.163-0.674-1.163-1.506s0.521-1.506 1.163-1.506 1.163 0.674 1.163 1.506c0 0.832-0.521 1.506-1.163 1.506z"></path>
<path fill="#141414" style="fill: var(--color4, #141414)" d="M11.494 26.413c0.655 0 1.193-0.69 1.193-1.541s-0.532-1.541-1.193-1.541c-0.661 0-1.193 0.69-1.193 1.541s0.539 1.541 1.193 1.541zM11.494 23.408c0.624 0 1.132 0.663 1.132 1.471s-0.508 1.471-1.132 1.471c-0.624 0-1.132-0.663-1.132-1.471s0.508-1.471 1.132-1.471z"></path>
<path fill="#141414" style="fill: var(--color4, #141414)" d="M37.193 30.857c-2.447 0-4.431-2.57-4.431-5.74s1.984-5.739 4.431-5.739c2.447 0 4.431 2.57 4.431 5.739s-1.984 5.74-4.431 5.74z"></path>
<path fill="#fefefe" style="fill: var(--color8, #fefefe)" d="M36.446 28.596c-1.592 0-2.882-1.673-2.882-3.738s1.29-3.738 2.882-3.738 2.883 1.674 2.883 3.738c0 2.065-1.291 3.738-2.883 3.738z"></path>
<path fill="#141414" style="fill: var(--color4, #141414)" d="M36.446 28.632c1.61 0 2.913-1.695 2.913-3.773s-1.31-3.773-2.913-3.773c-1.603 0-2.913 1.695-2.913 3.773s1.304 3.773 2.913 3.773zM36.446 21.156c1.573 0 2.852 1.66 2.852 3.703s-1.279 3.703-2.852 3.703c-1.573 0-2.852-1.66-2.852-3.703s1.279-3.703 2.852-3.703z"></path>
<path fill="#141414" style="fill: var(--color4, #141414)" d="M37.97 24.879c0 0.83-0.343 1.506-1.438 1.506-0.642 0-0.881-0.676-0.881-1.506s0.245-1.506 0.881-1.506c1.095 0 1.438 0.67 1.438 1.506z"></path>
<path fill="#fefefe" style="fill: var(--color8, #fefefe)" d="M36.458 26.386c-0.642 0-1.163-0.674-1.163-1.506s0.521-1.506 1.163-1.506 1.163 0.674 1.163 1.506c0 0.832-0.52 1.506-1.163 1.506z"></path>
<path fill="#141414" style="fill: var(--color4, #141414)" d="M36.458 26.413c0.655 0 1.193-0.69 1.193-1.541s-0.532-1.541-1.193-1.541c-0.661 0-1.193 0.69-1.193 1.541s0.539 1.541 1.193 1.541zM36.458 23.408c0.624 0 1.132 0.663 1.132 1.471s-0.508 1.471-1.132 1.471c-0.624 0-1.132-0.663-1.132-1.471s0.514-1.471 1.132-1.471z"></path>
<path fill="#141414" style="fill: var(--color4, #141414)" d="M4.082 23.352h0.563c0.073-0.663 0.569-1.172 1.169-1.172h12.51v2.692h-12.51c-0.569 0-1.047-0.46-1.157-1.074h-0.575v-0.446z"></path>
<path fill="#576f35" style="fill: var(--color2, #576f35)" d="M6.304 24.042c0 0-0.777-7.099 6.5-9.031 2.626-0.697 8.654-1.151 7.301 9.031h-13.801z"></path>
<path fill="#141414" style="fill: var(--color4, #141414)" d="M6.273 24.077h13.85l0.006-0.028c0.502-3.787 0.031-6.479-1.402-7.985-1.75-1.848-4.474-1.471-5.937-1.081-1.665 0.439-3.042 1.193-4.101 2.232-0.845 0.83-1.487 1.848-1.903 3.027-0.71 2.002-0.526 3.787-0.52 3.808l0.006 0.028zM20.074 24.007h-13.746c-0.018-0.244-0.135-1.904 0.52-3.745 0.649-1.827 2.209-4.219 5.955-5.216 1.45-0.384 4.15-0.76 5.882 1.067 1.42 1.492 1.885 4.149 1.389 7.894z"></path>
<path fill="#141414" style="fill: var(--color4, #141414)" d="M23.073 13.296h-9.125c-0.949 0-1.72-0.879-1.72-1.96 0-1.144 0.857-2.043 1.854-1.953l9.095 0.823c0.704 0.063 1.249 0.732 1.249 1.541 0 0.851-0.606 1.548-1.353 1.548z"></path>
<path fill="#576f35" style="fill: var(--color2, #576f35)" d="M32.425 23.255h10.429c0 0-0.171-1.75-1.206-3.34-2.265-3.452-6.971-2.978-8.636 0.886-0.3 0.683-0.508 1.492-0.588 2.455z"></path>
<path fill="#141414" style="fill: var(--color4, #141414)" d="M32.388 23.289h10.496l-0.006-0.042c0-0.021-0.184-1.778-1.212-3.354-1.071-1.639-2.785-2.504-4.584-2.315-1.787 0.188-3.317 1.388-4.107 3.208-0.312 0.732-0.514 1.555-0.588 2.462v0.042zM42.817 23.219h-10.356c0.073-0.879 0.269-1.688 0.575-2.399 0.777-1.799 2.289-2.985 4.058-3.166 1.775-0.188 3.47 0.669 4.529 2.287 0.93 1.43 1.157 3.013 1.193 3.278z"></path>
<path fill="#141414" style="fill: var(--color4, #141414)" d="M6.231 24.503h26.825v-0.921h9.786v-0.837h-9.805c-0.398 0-0.716 0.37-0.716 0.816v0.105h-26.091v0.837z"></path>
<path fill="#141414" style="fill: var(--color4, #141414)" d="M25.050 29.014h1.793v-0.837h-1.542l-3.452-2.999-0.441 0.663 3.641 3.173z"></path>
<path fill="#576f35" style="fill: var(--color2, #576f35)" d="M34.096 3.791h2.234c0.135 0 0.269-0.021 0.392-0.056 0.71-0.202 1.236-0.934 1.236-1.806 0-0.516-0.184-0.976-0.477-1.311-0.208-0.237-0.465-0.405-0.759-0.488-0.129-0.035-0.257-0.056-0.398-0.056h-0.324c-1.12 0-2.191 0.635-2.773 1.73-0.031 0.056-0.061 0.119-0.092 0.181-0.373 0.823 0.147 1.806 0.961 1.806z"></path>
<path fill="#141414" style="fill: var(--color4, #141414)" d="M34.096 3.826h2.234c0.134 0 0.269-0.021 0.404-0.056 0.74-0.209 1.261-0.962 1.261-1.841 0-0.509-0.171-0.983-0.49-1.339-0.214-0.244-0.483-0.418-0.771-0.502-0.135-0.035-0.269-0.056-0.404-0.056h-0.324c-1.151 0-2.222 0.669-2.797 1.75-0.031 0.063-0.061 0.119-0.092 0.181-0.184 0.391-0.178 0.858 0.024 1.241 0.208 0.391 0.563 0.621 0.955 0.621zM36.33 0.109c0.129 0 0.263 0.021 0.386 0.056 0.282 0.077 0.539 0.244 0.747 0.481 0.3 0.342 0.471 0.802 0.471 1.29 0 0.844-0.502 1.569-1.212 1.771-0.129 0.035-0.257 0.056-0.386 0.056h-2.234c-0.373 0-0.71-0.216-0.9-0.586-0.19-0.363-0.202-0.802-0.025-1.172 0.031-0.063 0.061-0.119 0.092-0.181 0.563-1.060 1.616-1.716 2.742-1.716h0.318z"></path>
<path fill="#141414" style="fill: var(--color4, #141414)" d="M35.602 1.936c0 0.739 0.282 1.402 0.728 1.862h0.006c0.899 0 1.634-0.83 1.634-1.862 0-0.516-0.184-0.976-0.477-1.311s-0.704-0.544-1.151-0.544h-0.006c-0.459 0.453-0.734 1.116-0.734 1.855z"></path>
<path fill="#fefefe" style="fill: var(--color8, #fefefe)" d="M36.048 1.936c0 0.711 0.257 1.346 0.673 1.806 0.71-0.202 1.236-0.935 1.236-1.806 0-0.516-0.184-0.976-0.478-1.311-0.208-0.237-0.465-0.405-0.759-0.488-0.416 0.446-0.673 1.088-0.673 1.799z"></path>
<path fill="#141414" style="fill: var(--color4, #141414)" d="M36.716 3.778l0.018-0.007c0.741-0.209 1.261-0.962 1.261-1.841 0-0.509-0.171-0.983-0.49-1.339-0.214-0.244-0.483-0.418-0.771-0.502l-0.018-0.007-0.012 0.014c-0.441 0.481-0.685 1.13-0.685 1.827s0.245 1.346 0.685 1.827l0.012 0.028zM36.734 0.172c0.275 0.084 0.526 0.244 0.728 0.474 0.3 0.342 0.471 0.802 0.471 1.29 0 0.837-0.49 1.555-1.2 1.764-0.422-0.467-0.655-1.095-0.655-1.764 0-0.676 0.233-1.297 0.655-1.764z"></path>
<path fill="#a1c487" style="fill: var(--color1, #a1c487)" d="M31.899 2.096h1.206v0.565h-1.206v-0.565z"></path>
<path fill="#141414" style="fill: var(--color4, #141414)" d="M31.874 2.702h1.267v-0.635h-1.267v0.635zM33.074 2.633h-1.145v-0.495h1.145v0.495z"></path>
<path fill="#141414" style="fill: var(--color4, #141414)" d="M33.557 1.908h-0.483c-0.226 0-0.404 0.209-0.404 0.46 0 0.258 0.184 0.46 0.404 0.46h0.483c0.226 0 0.404-0.209 0.404-0.46s-0.178-0.46-0.404-0.46z"></path>
<path fill="#141414" style="fill: var(--color4, #141414)" d="M32.131 2.375c0 0.258-0.184 0.46-0.404 0.46h-1.322c-0.226 0-0.404-0.209-0.404-0.46 0-0.258 0.184-0.46 0.404-0.46h1.322c0.22-0.007 0.404 0.202 0.404 0.46z"></path>
<path fill="#fff" style="fill: var(--color3, #fff)" d="M10.288 22.257h5.973v0.391h-5.973v-0.391z"></path>
<path fill="#141414" style="fill: var(--color4, #141414)" d="M10.258 22.683h6.035v-0.46h-6.035v0.46zM16.231 22.613h-5.912v-0.321h5.912v0.321z"></path>
<path fill="#fff" style="fill: var(--color3, #fff)" d="M10.288 21.226h5.973v0.391h-5.973v-0.391z"></path>
<path fill="#141414" style="fill: var(--color4, #141414)" d="M10.258 21.65h6.035v-0.46h-6.035v0.46zM16.231 21.58h-5.912v-0.321h5.912v0.321z"></path>
<path fill="#fff" style="fill: var(--color3, #fff)" d="M10.288 20.199h5.973v0.391h-5.973v-0.391z"></path>
<path fill="#141414" style="fill: var(--color4, #141414)" d="M10.258 20.625h6.035v-0.46h-6.035v0.46zM16.231 20.556h-5.912v-0.321h5.912v0.321z"></path>
<path fill="#141414" style="fill: var(--color4, #141414)" d="M19.383 29.008h12.547v0.139h-12.547v-0.139z"></path>
<path fill="#141414" style="fill: var(--color4, #141414)" d="M43.822 31.892h39.279v0.108h-39.279v-0.108z"></path>
</symbol>
</defs>
</svg>
